<!-- <svg xmlns="http://www.w3.org/2000/svg" viewBox="0 0 64 64">
  <path fill="#FFE3D1" d="M23 18h-8.349A5.997 5.997 0 0 1 9 22v3c0 4.971 4.029 9 9 9s9-4.029 9-9v-4c0-1.39-.325-2.702-.888-3.878A5.953 5.953 0 0 1 23 18z"/>
  <path fill="#E2DEDC" d="M33 61H3V42a8 8 0 0 1 8-8h14a8 8 0 0 1 8 8v19z"/>
  <path fill="#E05346" d="m23 52-5 3-5-3 2-12 3-1-3-3v-2h6v2l-3 3 3 1z"/>
  <path fill="#FCBA5B" d="M15 12a6 6 0 0 0-6 6v4a5.996 5.996 0 0 0 5.651-4H23a6 6 0 0 0 6-6H15z"/>
  <path fill="#6ACCEF" d="M55 42h-.408A6.989 6.989 0 0 0 58 36a7 7 0 1 0-14 0 6.989 6.989 0 0 0 3.408 6H47a6 6 0 0 0-6 6v13h20V48a6 6 0 0 0-6-6z"/>
  <path fill="#FCBA5B" d="M38 7v9l-7 7h26a4 4 0 0 0 4-4V7a4 4 0 0 0-4-4H42a4 4 0 0 0-4 4z"/>
  <path fill="#2D2E46" d="M41 6h17v2H41zM41 10h17v2H41zM41 14h17v2H41zM41 18h17v2H41zM50 46h2v2h-2zM50 50h2v2h-2zM18 30c-2.206 0-4-1.794-4-4h2c0 1.103.897 2 2 2v2z"/>
</svg> -->
<svg xmlns="http://www.w3.org/2000/svg" xmlns:xlink="http://www.w3.org/1999/xlink" viewBox="10 100 1080 804" width="1080" height="840" preserveAspectRatio="xMidYMid meet" style="width: 100%; height: 100%; transform: translate3d(0px, 0px, 0px); content-visibility: visible;"><defs><clipPath id="__lottie_element_537"><rect width="1080" height="804" x="0" y="0"></rect></clipPath><linearGradient id="__lottie_element_541" spreadMethod="pad" gradientUnits="userSpaceOnUse" x1="-648.9180297851562" y1="-4.6539998054504395" x2="663.4600219726562" y2="6.125"><stop offset="0%" stop-color="rgb(187,247,233)"></stop><stop offset="82%" stop-color="rgb(208,247,238)"></stop><stop offset="100%" stop-color="rgb(229,247,244)"></stop></linearGradient><linearGradient id="__lottie_element_542" spreadMethod="pad" gradientUnits="userSpaceOnUse" x1="-199.18899536132812" y1="23.177000045776367" x2="278.4679870605469" y2="-39.47700119018555"><stop offset="0%" stop-color="rgb(187,247,233)"></stop><stop offset="82%" stop-color="rgb(208,247,238)"></stop><stop offset="100%" stop-color="rgb(229,247,244)"></stop></linearGradient><linearGradient id="__lottie_element_561" spreadMethod="pad" gradientUnits="userSpaceOnUse" x1="-466.3680114746094" y1="-0.6940000057220459" x2="465.67999267578125" y2="-0.6940000057220459"><stop offset="0%" stop-color="rgb(187,247,233)"></stop><stop offset="65%" stop-color="rgb(208,247,238)"></stop><stop offset="100%" stop-color="rgb(229,247,244)"></stop></linearGradient><linearGradient id="__lottie_element_565" spreadMethod="pad" gradientUnits="userSpaceOnUse" x1="-20.944000244140625" y1="-191.58999633789062" x2="11.890000343322754" y2="112.55899810791016"><stop offset="7%" stop-color="rgb(255,147,143)"></stop><stop offset="55%" stop-color="rgb(249,178,172)"></stop><stop offset="96%" stop-color="rgb(243,209,201)"></stop></linearGradient><linearGradient id="__lottie_element_566" spreadMethod="pad" gradientUnits="userSpaceOnUse" x1="-2.825000047683716" y1="-0.37299999594688416" x2="12.758999824523926" y2="-0.15800000727176666"><stop offset="0%" stop-color="rgb(255,147,143)"></stop><stop offset="82%" stop-color="rgb(249,178,172)"></stop><stop offset="96%" stop-color="rgb(243,209,201)"></stop></linearGradient><linearGradient id="__lottie_element_567" spreadMethod="pad" gradientUnits="userSpaceOnUse" x1="-27.225000381469727" y1="10.420999526977539" x2="27.336000442504883" y2="-15.984999656677246"><stop offset="0%" stop-color="rgb(255,147,143)"></stop><stop offset="82%" stop-color="rgb(249,178,172)"></stop><stop offset="96%" stop-color="rgb(243,209,201)"></stop></linearGradient><clipPath id="__lottie_element_569"><path d="M0,0 L1080,0 L1080,1080 L0,1080z"></path></clipPath><linearGradient id="__lottie_element_575" spreadMethod="pad" gradientUnits="userSpaceOnUse" x1="-95.55500030517578" y1="-219.85499572753906" x2="18.999000549316406" y2="208.0749969482422"><stop offset="23%" stop-color="rgb(250,144,140)"></stop><stop offset="39%" stop-color="rgb(249,127,118)"></stop><stop offset="85%" stop-color="rgb(249,110,96)"></stop></linearGradient><clipPath id="__lottie_element_580"><path d="M0,0 L1080,0 L1080,1080 L0,1080z"></path></clipPath><linearGradient id="__lottie_element_589" spreadMethod="pad" gradientUnits="userSpaceOnUse" x1="54.63399887084961" y1="-45.03900146484375" x2="-26.3439998626709" y2="29.354999542236328"><stop offset="0%" stop-color="rgb(255,147,143)"></stop><stop offset="66%" stop-color="rgb(249,178,172)"></stop><stop offset="100%" stop-color="rgb(243,209,201)"></stop></linearGradient></defs><g clip-path="url(#__lottie_element_537)"><g transform="matrix(1,0,0,1,16,-136)" opacity="1" style="display: block;"><g opacity="1" transform="matrix(1,0,0,1,546.9180297851562,601.6539916992188)"><path fill="url(#__lottie_element_541)" fill-opacity="1" d=" M102.72200012207031,-332.6300048828125 C-146.86599731445312,-355.77099609375 -165.04800415039062,-213.6199951171875 -198.1060028076172,-132.6280059814453 C-210.5030059814453,-102.25599670410156 -231.73300170898438,-79.78700256347656 -253.427001953125,-63.564998626708984 C-281.74798583984375,-42.387001037597656 -315.3399963378906,-29.445999145507812 -350.3940124511719,-24.775999069213867 C-575.8809814453125,5.263999938964844 -539.0919799804688,309.5469970703125 -454.3059997558594,335.14300537109375 C-454.3059997558594,335.14300537109375 444.87298583984375,335.14300537109375 444.87298583984375,335.14300537109375 C666.3619995117188,-86.34700012207031 352.30999755859375,-309.489013671875 102.72200012207031,-332.6300048828125z"></path></g><g opacity="1" transform="matrix(1,0,0,1,212.18899536132812,446.822998046875)"><path fill="url(#__lottie_element_542)" fill-opacity="1" d=" M6.043000221252441,-110.02899932861328 C-123.93599700927734,-109.23600006103516 -158.677001953125,18.27400016784668 -88.1729965209961,89.9729995727539 C9.347999572753906,189.14700317382812 277.1189880371094,-111.68199920654297 6.043000221252441,-110.02899932861328z"></path></g></g><g transform="matrix(0.9977249503135681,-0.06741615384817123,0.06741615384817123,0.9977249503135681,-71.40177917480469,-257.830078125)" opacity="1" style="display: block;"><g opacity="1" transform="matrix(1,0,0,1,192.51100158691406,898.9019775390625)"><path fill="rgb(137,206,199)" fill-opacity="1" d=" M112.88300323486328,79.65499877929688 C112.6240005493164,43.974998474121094 92.13500213623047,53.948001861572266 79.80500030517578,30.25200080871582 C66.18099975585938,-2.48799991607666 75.98899841308594,-46.98899841308594 43.58000183105469,-70.3270034790039 C37.81399917602539,-76.10199737548828 28.77400016784668,-74.81800079345703 22.76099967956543,-80.01000213623047 C21.236000061035156,-81.59200286865234 19.82200050354004,-83.45899963378906 18.395000457763672,-85.2229995727539 C18.375999450683594,-85.46800231933594 18.222000122070312,-85.61399841308594 18.024999618530273,-85.72799682617188 C12.684000015258789,-95.13800048828125 9.814000129699707,-105.85299682617188 5.230000019073486,-115.59700012207031 C5.236000061035156,-116.31900024414062 4.999000072479248,-116.94000244140625 4.461999893188477,-117.43299865722656 C3.8289999961853027,-119.73400115966797 2.5,-121.71800231933594 1.50600004196167,-123.83799743652344 C1.4839999675750732,-124.1989974975586 1.343999981880188,-124.48999786376953 1.0149999856948853,-124.66899871826172 C0.984000027179718,-125.1520004272461 0.6679999828338623,-125.45500183105469 0.2669999897480011,-125.68000030517578 C0.12999999523162842,-127.125 -1.0779999494552612,-128.177001953125 -1.8250000476837158,-129.2760009765625 C-11.029999732971191,-144.7830047607422 -28.79199981689453,-150.5800018310547 -44.58700180053711,-157.072998046875 C-52.529998779296875,-162.17300415039062 -59.58000183105469,-168.52000427246094 -67.45800018310547,-173.72799682617188 C-67.60900115966797,-174.18699645996094 -68.06099700927734,-174.2310028076172 -68.41000366210938,-174.41600036621094 C-92.34700012207031,-192.7449951171875 -116.33899688720703,-170.36000061035156 -112.50499725341797,-143.5850067138672 C-111.48699951171875,-126.05000305175781 -99.46900177001953,-112.53800201416016 -93.03099822998047,-97.01000213623047 C-83.72799682617188,-73.08899688720703 -105.08499908447266,-48.92499923706055 -93.572998046875,-25.683000564575195 C-83.95500183105469,4.239999771118164 -40.553001403808594,17.166000366210938 -46.012001037597656,40.49300003051758 C-48.1609992980957,51.012001037597656 -49.58399963378906,61.77299880981445 -48.025001525878906,72.46900177001953 C-42.37200164794922,113.76200103759766 -10.5,113.572998046875 1.4270000457763672,136.6840057373047 C0.06400000303983688,155.9759979248047 -1.9140000343322754,156.66099548339844 17.90999984741211,164.01400756835938 C43.37699890136719,170.86900329589844 72.25399780273438,180.21099853515625 97.41699981689453,181.09800720214844 C104.74800109863281,147.80299377441406 113.45899963378906,113.96499633789062 112.88300323486328,79.65499877929688z M29.635000228881836,-73.96199798583984 C29.569000244140625,-73.72599792480469 29.739999771118164,-73.64299774169922 29.902000427246094,-73.5719985961914 C29.739999771118164,-73.64299774169922 29.56800079345703,-73.72699737548828 29.635000228881836,-73.96199798583984z"></path></g><g opacity="1" transform="matrix(1,0,0,1,161.47000122070312,905.2050170898438)"><path fill="rgb(0,135,127)" fill-opacity="1" d=" M64.10600280761719,50.3120002746582 C63.40700149536133,50.09299850463867 62.6619987487793,50.483001708984375 62.44300079345703,51.18199920654297 C62.44300079345703,51.18199920654297 53.665000915527344,79.23400115966797 53.665000915527344,79.23400115966797 C52.209999084472656,73.17500305175781 50.58399963378906,66.85199737548828 48.76300048828125,60.2859992980957 C40.22999954223633,29.516000747680664 26.33799934387207,-10.258999824523926 3.9560000896453857,-54.19499969482422 C4.034999847412109,-54.305999755859375 4.098999977111816,-54.43199920654297 4.142000198364258,-54.569000244140625 C4.142000198364258,-54.569000244140625 14.409000396728516,-87.37999725341797 14.409000396728516,-87.37999725341797 C14.628000259399414,-88.0790023803711 14.23799991607666,-88.8239974975586 13.538999557495117,-89.04299926757812 C12.84000015258789,-89.26200103759766 12.095000267028809,-88.87200164794922 11.87600040435791,-88.1729965209961 C11.87600040435791,-88.1729965209961 2.2720000743865967,-57.479000091552734 2.2720000743865967,-57.479000091552734 C-14.565999984741211,-90.06900024414062 -36.073001861572266,-124.86100006103516 -63.52000045776367,-159.91200256347656 C-63.97200012207031,-160.48899841308594 -64.80599975585938,-160.59100341796875 -65.38300323486328,-160.13900756835938 C-65.95999908447266,-159.68699645996094 -66.06199645996094,-158.85299682617188 -65.61000061035156,-158.2760009765625 C-49.39699935913086,-137.5709991455078 -35.26599884033203,-116.95700073242188 -22.951000213623047,-96.83899688720703 C-22.951000213623047,-96.83899688720703 -46.72600173950195,-103.70099639892578 -46.72600173950195,-103.70099639892578 C-47.430999755859375,-103.90499877929688 -48.16699981689453,-103.49800109863281 -48.369998931884766,-102.79399871826172 C-48.57400131225586,-102.08999633789062 -48.16699981689453,-101.3550033569336 -47.4630012512207,-101.1510009765625 C-47.4630012512207,-101.1510009765625 -20.951000213623047,-93.49800109863281 -20.951000213623047,-93.49800109863281 C-20.94099998474121,-93.49500274658203 -20.93000030517578,-93.49700164794922 -20.91900062561035,-93.49400329589844 C4.609000205993652,-51.21799850463867 22.131000518798828,-11.244000434875488 34.104000091552734,22.642000198364258 C34.104000091552734,22.642000198364258 -0.656000018119812,15.369999885559082 -0.656000018119812,15.369999885559082 C-1.3730000257492065,15.218999862670898 -2.0769999027252197,15.680000305175781 -2.2269999980926514,16.39699935913086 C-2.377000093460083,17.114999771118164 -1.9160000085830688,17.81800079345703 -1.1990000009536743,17.968000411987305 C-1.1990000009536743,17.968000411987305 34.3120002746582,25.39699935913086 34.3120002746582,25.39699935913086 C34.415000915527344,25.417999267578125 34.516998291015625,25.42799949645996 34.61800003051758,25.424999237060547 C34.768001556396484,25.42099952697754 34.91400146484375,25.392000198364258 35.05099868774414,25.340999603271484 C39.513999938964844,38.16600036621094 43.17900085449219,50.0890007019043 46.178001403808594,60.89500045776367 C48.448001861572266,69.0739974975586 50.41600036621094,76.87799835205078 52.12300109863281,84.25299835205078 C52.09299850463867,84.54499816894531 52.16400146484375,84.8290023803711 52.310001373291016,85.07099914550781 C62.63399887084961,129.98899841308594 63.233001708984375,158.78199768066406 63.237998962402344,159.11599731445312 C63.25,159.8489990234375 63.854000091552734,160.43299865722656 64.58699798583984,160.42100524902344 C64.59100341796875,160.42100524902344 64.59400177001953,160.42100524902344 64.5979995727539,160.42100524902344 C65.32499694824219,160.4029998779297 65.90399932861328,159.802001953125 65.89199829101562,159.072998046875 C65.88700103759766,158.73599243164062 65.28900146484375,129.6320037841797 54.85900115966797,84.30899810791016 C54.85900115966797,84.30899810791016 64.97599792480469,51.974998474121094 64.97599792480469,51.974998474121094 C65.19499969482422,51.2760009765625 64.80599975585938,50.53099822998047 64.10600280761719,50.3120002746582z"></path></g></g><g transform="matrix(0.9953588843345642,0.09623274207115173,-0.09623274207115173,0.9953588843345642,103.47835540771484,-288.87274169921875)" opacity="1" style="display: block;"><g opacity="1" transform="matrix(1,0,0,1,114.19599914550781,1007.3610229492188)"><path fill="rgb(176,222,219)" fill-opacity="1" d=" M90.95999908447266,52.95100021362305 C84.15499877929688,33.233001708984375 80.52799987792969,9.630000114440918 64.91200256347656,-5.208000183105469 C58.87699890136719,-9.62399959564209 50.45199966430664,-5.491000175476074 44.54899978637695,-10.916999816894531 C30.024999618530273,-22.290000915527344 23.142000198364258,-44.941001892089844 2.506999969482422,-47.26300048828125 C-1.5779999494552612,-48.4109992980957 -5.3460001945495605,-45.525001525878906 -9.394000053405762,-46.34600067138672 C-10.47599983215332,-46.67100143432617 -11.604999542236328,-47.159000396728516 -12.701000213623047,-47.59600067138672 C-12.772000312805176,-47.70199966430664 -12.878999710083008,-47.72999954223633 -12.996999740600586,-47.73099899291992 C-17.81100082397461,-50.63199996948242 -21.860000610351562,-54.770999908447266 -26.405000686645508,-58.00600051879883 C-26.586999893188477,-58.334999084472656 -26.851999282836914,-58.55500030517578 -27.22100067138672,-58.641998291015625 C-28.0939998626709,-59.52399826049805 -29.201000213623047,-60.084999084472656 -30.191999435424805,-60.79199981689453 C-30.29400062561035,-60.95000076293945 -30.430999755859375,-61.04600143432617 -30.625999450683594,-61.042999267578125 C-30.76300048828125,-61.25400161743164 -30.983999252319336,-61.31100082397461 -31.222999572753906,-61.31100082397461 C-31.652999877929688,-61.930999755859375 -32.46799850463867,-62.0989990234375 -33.08700180053711,-62.40700149536133 C-45.89699935913086,-68.9469985961914 -60.47600173950195,-61.91699981689453 -74.15399932861328,-65.8280029296875 C-74.33999633789062,-65.99800109863281 -74.55500030517578,-65.9020004272461 -74.76000213623047,-65.89700317382812 C-89.6719970703125,-68.58599853515625 -95.64800262451172,-51.141998291015625 -86.88600158691406,-40.69200134277344 C-81.072998046875,-31.1299991607666 -68.49199676513672,-29.305999755859375 -62.470001220703125,-20.134000778198242 C-50.63600158691406,10.482999801635742 -50.75699996948242,11.97700023651123 -16.820999145507812,18.718000411987305 C0.7310000061988831,30.732999801635742 -13.607000350952148,51.86800003051758 31.33799934387207,54.64899826049805 C38.79100036621094,54.95399856567383 36.63399887084961,66.30999755859375 43.64899826049805,66.17400360107422 C59.507999420166016,64.2770004272461 77.11499786376953,59.40399932861328 90.95999908447266,52.95100021362305z M-4.73799991607666,-45.356998443603516 C-4.706999778747559,-45.233001708984375 -4.610000133514404,-45.23899841308594 -4.51800012588501,-45.24800109863281 C-4.609000205993652,-45.23899841308594 -4.709000110626221,-45.23400115966797 -4.73799991607666,-45.356998443603516z"></path></g><g opacity="1" transform="matrix(1,0,0,1,116.072998046875,1011.2789916992188)"><path fill="rgb(0,135,127)" fill-opacity="1" d=" M75.1989974975586,59.880001068115234 C75.08999633789062,59.689998626708984 63.992000579833984,40.577999114990234 40.119998931884766,16.260000228881836 C27.632999420166016,3.5390000343322754 10.08899974822998,-12.130999565124512 -12.722000122070312,-27.538000106811523 C-12.713000297546387,-27.614999771118164 -12.717000007629395,-27.694000244140625 -12.732999801635742,-27.77400016784668 C-12.732999801635742,-27.77400016784668 -16.59000015258789,-46.57600021362305 -16.59000015258789,-46.57600021362305 C-16.672000885009766,-46.97700119018555 -17.06399917602539,-47.23500061035156 -17.46500015258789,-47.15299987792969 C-17.865999221801758,-47.07099914550781 -18.124000549316406,-46.67900085449219 -18.04199981689453,-46.27799987792969 C-18.04199981689453,-46.27799987792969 -14.432000160217285,-28.68199920654297 -14.432000160217285,-28.68199920654297 C-31.47100067138672,-40.04999923706055 -51.37799835205078,-51.23099899291992 -74.26699829101562,-60.93199920654297 C-74.64399719238281,-61.09199905395508 -75.0790023803711,-60.91600036621094 -75.23899841308594,-60.53900146484375 C-75.39900207519531,-60.1619987487793 -75.22200012207031,-59.72700119018555 -74.84500122070312,-59.56700134277344 C-61.32699966430664,-53.8380012512207 -48.85200119018555,-47.590999603271484 -37.39699935913086,-41.09400177001953 C-37.39699935913086,-41.09400177001953 -50.8650016784668,-38.016998291015625 -50.8650016784668,-38.016998291015625 C-51.263999938964844,-37.92599868774414 -51.51300048828125,-37.52899932861328 -51.422000885009766,-37.130001068115234 C-51.33100128173828,-36.73099899291992 -50.933998107910156,-36.48099899291992 -50.53499984741211,-36.571998596191406 C-50.53499984741211,-36.571998596191406 -35.51599884033203,-40.00299835205078 -35.51599884033203,-40.00299835205078 C-35.51300048828125,-40.00400161743164 -35.5099983215332,-40.00600051879883 -35.50699996948242,-40.00699996948242 C-11.605999946594238,-26.260000228881836 7.76800012588501,-11.47599983215332 22.77899932861328,1.8380000591278076 C22.77899932861328,1.8380000591278076 3.8359999656677246,7.684999942779541 3.8359999656677246,7.684999942779541 C3.444999933242798,7.804999828338623 3.2249999046325684,8.220000267028809 3.3459999561309814,8.611000061035156 C3.4670000076293945,9.001999855041504 3.881999969482422,9.222000122070312 4.2729997634887695,9.10099983215332 C4.2729997634887695,9.10099983215332 23.62700080871582,3.127000093460083 23.62700080871582,3.127000093460083 C23.683000564575195,3.109999895095825 23.735000610351562,3.0859999656677246 23.784000396728516,3.058000087738037 C23.854999542236328,3.0160000324249268 23.917999267578125,2.9630000591278076 23.969999313354492,2.9019999504089355 C29.615999221801758,7.956999778747559 34.637001037597656,12.791999816894531 39.02199935913086,17.256999969482422 C62.777000427246094,41.446998596191406 73.80500030517578,60.43000030517578 73.91400146484375,60.61899948120117 C74.11799621582031,60.9739990234375 74.57099914550781,61.09600067138672 74.9260025024414,60.891998291015625 C74.9280014038086,60.89099884033203 74.93000030517578,60.88999938964844 74.93199920654297,60.888999938964844 C75.28199768066406,60.683998107910156 75.4020004272461,60.233001708984375 75.1989974975586,59.880001068115234z"></path></g></g><g transform="matrix(0.9988390207290649,0.04817229509353638,-0.04817229509353638,0.9988390207290649,52.27569580078125,-318.90673828125)" opacity="1" style="display: block;"><g opacity="1" transform="matrix(1,0,0,1,938.31298828125,969.0980224609375)"><path fill="rgb(137,206,199)" fill-opacity="1" d=" M-57.75600051879883,107.36799621582031 C-42.8380012512207,106.84200286865234 -25.716999053955078,101.3030014038086 -10.618000030517578,97.23899841308594 C1.1349999904632568,92.87899780273438 -0.03799999877810478,92.4739990234375 -0.8460000157356262,81.03600311279297 C6.224999904632568,67.33399963378906 25.121000289916992,67.4469985961914 28.472999572753906,42.96500015258789 C29.39699935913086,36.624000549316406 28.554000854492188,30.243000030517578 27.280000686645508,24.006999969482422 C24.042999267578125,10.177000045776367 49.775001525878906,2.5139999389648438 55.47700119018555,-15.22700023651123 C62.301998138427734,-29.006999969482422 49.638999938964844,-43.332000732421875 55.154998779296875,-57.513999938964844 C58.97200012207031,-66.72000122070312 66.0979995727539,-74.73100280761719 66.70099639892578,-85.12699890136719 C68.9739990234375,-101.0009994506836 54.749000549316406,-114.27300262451172 40.55799865722656,-103.40599822998047 C40.35100173950195,-103.2959976196289 40.08399963378906,-103.2699966430664 39.99399948120117,-102.99800109863281 C35.323001861572266,-99.91000366210938 31.14299964904785,-96.14700317382812 26.43400001525879,-93.1240005493164 C17.069000244140625,-89.27400207519531 6.539000034332275,-85.83799743652344 1.0820000171661377,-76.64399719238281 C0.6389999985694885,-75.99199676513672 -0.07699999958276749,-75.36900329589844 -0.15800000727176666,-74.51200103759766 C-0.3959999978542328,-74.37799835205078 -0.5839999914169312,-74.1989974975586 -0.6019999980926514,-73.91300201416016 C-0.796999990940094,-73.80699920654297 -0.8799999952316284,-73.63400268554688 -0.8930000066757202,-73.41999816894531 C-1.4819999933242798,-72.16300201416016 -2.2709999084472656,-70.98699951171875 -2.6459999084472656,-69.62300109863281 C-2.9649999141693115,-69.33100128173828 -3.1040000915527344,-68.96199798583984 -3.1010000705718994,-68.53399658203125 C-5.818999767303467,-62.75699996948242 -7.519999980926514,-56.404998779296875 -10.685999870300293,-50.82600021362305 C-10.803000450134277,-50.757999420166016 -10.895000457763672,-50.67100143432617 -10.906000137329102,-50.5260009765625 C-11.751999855041504,-49.47999954223633 -12.590999603271484,-48.37300109863281 -13.494999885559082,-47.435001373291016 C-17.059999465942383,-44.356998443603516 -22.417999267578125,-45.11899948120117 -25.836999893188477,-41.69499969482422 C-45.051998138427734,-27.857999801635742 -39.23699951171875,-1.475000023841858 -47.31399917602539,17.93600082397461 C-54.624000549316406,31.985000610351562 -66.77100372314453,26.070999145507812 -66.92500305175781,47.224998474121094 C-67.26699829101562,67.56700134277344 -62.10200119018555,87.62899780273438 -57.75600051879883,107.36799621582031z M-17.72800064086914,-43.61899948120117 C-17.631999969482422,-43.6609992980957 -17.5310001373291,-43.709999084472656 -17.56999969482422,-43.849998474121094 C-17.530000686645508,-43.71099853515625 -17.631999969482422,-43.6609992980957 -17.72800064086914,-43.61899948120117z"></path></g><g opacity="1" transform="matrix(1,0,0,1,956.7160034179688,972.833984375)"><path fill="rgb(0,135,127)" fill-opacity="1" d=" M-38.00699996948242,29.82900047302246 C-37.59199905395508,29.698999404907227 -37.1510009765625,29.929000854492188 -37.020999908447266,30.3439998626709 C-37.020999908447266,30.3439998626709 -31.816999435424805,46.97600173950195 -31.816999435424805,46.97600173950195 C-30.95400047302246,43.38399887084961 -29.98900032043457,39.6349983215332 -28.90999984741211,35.742000579833984 C-23.85099983215332,17.5 -15.614999771118164,-6.081999778747559 -2.3450000286102295,-32.13100051879883 C-2.3919999599456787,-32.196998596191406 -2.430999994277954,-32.270999908447266 -2.4560000896453857,-32.35200119018555 C-2.4560000896453857,-32.35200119018555 -8.543000221252441,-51.80500030517578 -8.543000221252441,-51.80500030517578 C-8.67300033569336,-52.220001220703125 -8.442000389099121,-52.6609992980957 -8.027000427246094,-52.79100036621094 C-7.611999988555908,-52.92100143432617 -7.171000003814697,-52.689998626708984 -7.040999889373779,-52.275001525878906 C-7.040999889373779,-52.275001525878906 -1.347000002861023,-34.077999114990234 -1.347000002861023,-34.077999114990234 C8.63599967956543,-53.39899826049805 21.386999130249023,-74.0260009765625 37.659000396728516,-94.80699920654297 C37.926998138427734,-95.14900207519531 38.422000885009766,-95.20999908447266 38.763999938964844,-94.94200134277344 C39.10599899291992,-94.67400360107422 39.16600036621094,-94.17900085449219 38.89799880981445,-93.83699798583984 C29.285999298095703,-81.56199645996094 20.908000946044922,-69.34100341796875 13.607000350952148,-57.41299819946289 C13.607000350952148,-57.41299819946289 27.702999114990234,-61.481998443603516 27.702999114990234,-61.481998443603516 C28.121000289916992,-61.60300064086914 28.55699920654297,-61.36199951171875 28.677000045776367,-60.944000244140625 C28.79800033569336,-60.527000427246094 28.55699920654297,-60.090999603271484 28.138999938964844,-59.970001220703125 C28.138999938964844,-59.970001220703125 12.420999526977539,-55.43199920654297 12.420999526977539,-55.43199920654297 C12.414999961853027,-55.43000030517578 12.407999992370605,-55.43199920654297 12.402000427246094,-55.43000030517578 C-2.7330000400543213,-30.365999221801758 -13.121000289916992,-6.665999889373779 -20.2189998626709,13.423999786376953 C-20.2189998626709,13.423999786376953 0.3889999985694885,9.11299991607666 0.3889999985694885,9.11299991607666 C0.8140000104904175,9.02299976348877 1.2309999465942383,9.295999526977539 1.3200000524520874,9.720999717712402 C1.409000039100647,10.145999908447266 1.1360000371932983,10.564000129699707 0.7110000252723694,10.652999877929688 C0.7110000252723694,10.652999877929688 -20.341999053955078,15.057000160217285 -20.341999053955078,15.057000160217285 C-20.402999877929688,15.069999694824219 -20.464000701904297,15.074999809265137 -20.52400016784668,15.074000358581543 C-20.613000869750977,15.071999549865723 -20.700000762939453,15.053999900817871 -20.7810001373291,15.02400016784668 C-23.427000045776367,22.628000259399414 -25.599000930786133,29.69700050354004 -27.37700080871582,36.10300064086914 C-28.722999572753906,40.95199966430664 -29.889999389648438,45.58000183105469 -30.902000427246094,49.95199966430664 C-30.884000778198242,50.125 -30.927000045776367,50.292999267578125 -31.01300048828125,50.43600082397461 C-37.13399887084961,77.06700134277344 -37.48899841308594,94.13700103759766 -37.492000579833984,94.33499908447266 C-37.499000549316406,94.7699966430664 -37.858001708984375,95.11599731445312 -38.29199981689453,95.10900115966797 C-38.29399871826172,95.10900115966797 -38.297000885009766,95.10900115966797 -38.29899978637695,95.10900115966797 C-38.72999954223633,95.0979995727539 -39.073001861572266,94.74199676513672 -39.066001892089844,94.30999755859375 C-39.0629997253418,94.11000061035156 -38.70800018310547,76.8550033569336 -32.52399826049805,49.98400115966797 C-32.52399826049805,49.98400115966797 -38.52299880981445,30.81399917602539 -38.52299880981445,30.81399917602539 C-38.65299987792969,30.39900016784668 -38.422000885009766,29.958999633789062 -38.00699996948242,29.82900047302246z"></path></g></g><g transform="matrix(0.9970288276672363,-0.07702913135290146,0.07702913135290146,0.9970288276672363,-79.5738525390625,-200.2039794921875)" opacity="1" style="display: block;"><g opacity="1" transform="matrix(1,0,0,1,984.7440185546875,1033.3990478515625)"><path fill="rgb(176,222,219)" fill-opacity="1" d=" M-25.878000259399414,39.233001708984375 C-21.7189998626709,39.3129997253418 -22.999000549316406,32.58100128173828 -18.579999923706055,32.400001525878906 C8.067000389099121,30.750999450683594 -0.43299999833106995,18.219999313354492 9.972999572753906,11.097000122070312 C30.091999053955078,7.099999904632568 30.020999908447266,6.215000152587891 37.0369987487793,-11.937000274658203 C40.606998443603516,-17.375 48.064998626708984,-18.45599937438965 51.512001037597656,-24.125 C56.707000732421875,-30.31999969482422 53.16400146484375,-40.66299819946289 44.323001861572266,-39.069000244140625 C44.20100021362305,-39.071998596191406 44.07400131225586,-39.12900161743164 43.9640007019043,-39.02799987792969 C35.85499954223633,-36.70899963378906 27.211000442504883,-40.875999450683594 19.615999221801758,-36.999000549316406 C19.249000549316406,-36.816001892089844 18.766000747680664,-36.71699905395508 18.51099967956543,-36.3489990234375 C18.368999481201172,-36.3489990234375 18.238000869750977,-36.316001892089844 18.156999588012695,-36.191001892089844 C18.04199981689453,-36.19300079345703 17.959999084472656,-36.13600158691406 17.899999618530273,-36.04199981689453 C17.312999725341797,-35.62300109863281 16.655000686645508,-35.290000915527344 16.13800048828125,-34.766998291015625 C15.918999671936035,-34.715999603271484 15.762999534606934,-34.584999084472656 15.654999732971191,-34.38999938964844 C12.961000442504883,-32.47200012207031 10.5600004196167,-30.01799964904785 7.705999851226807,-28.29800033569336 C7.636000156402588,-28.297000885009766 7.572000026702881,-28.281999588012695 7.53000020980835,-28.2189998626709 C6.880000114440918,-27.959999084472656 6.210999965667725,-27.670000076293945 5.568999767303467,-27.476999282836914 C3.1689999103546143,-26.989999771118164 0.9350000023841858,-28.701000213623047 -1.4869999885559082,-28.020999908447266 C-13.720999717712402,-26.643999099731445 -17.801000595092773,-13.21500015258789 -26.41200065612793,-6.4720001220703125 C-29.910999298095703,-3.255000114440918 -34.90700149536133,-5.704999923706055 -38.48500061035156,-3.0869998931884766 C-47.74300003051758,5.710000038146973 -49.893001556396484,19.702999114990234 -53.928001403808594,31.39299964904785 C-45.71900177001953,35.21900177001953 -35.279998779296875,38.108001708984375 -25.878000259399414,39.233001708984375z M2.677999973297119,-26.826000213623047 C2.7320001125335693,-26.820999145507812 2.7909998893737793,-26.81800079345703 2.809000015258789,-26.891000747680664 C2.7920000553131104,-26.81800079345703 2.7320001125335693,-26.81999969482422 2.677999973297119,-26.826000213623047z"></path></g><g opacity="1" transform="matrix(1,0,0,1,983.6309814453125,1035.7220458984375)"><path fill="rgb(0,135,127)" fill-opacity="1" d=" M-44.58300018310547,35.500999450683594 C-44.518001556396484,35.38800048828125 -37.93899917602539,24.05699920654297 -23.785999298095703,9.640000343322754 C-16.382999420166016,2.0980000495910645 -5.980999946594238,-7.191999912261963 7.543000221252441,-16.32699966430664 C7.538000106811523,-16.371999740600586 7.539000034332275,-16.41900062561035 7.548999786376953,-16.465999603271484 C7.548999786376953,-16.465999603271484 9.836000442504883,-27.61400032043457 9.836000442504883,-27.61400032043457 C9.885000228881836,-27.851999282836914 10.116000175476074,-28.0049991607666 10.354000091552734,-27.95599937438965 C10.592000007629395,-27.906999588012695 10.744999885559082,-27.674999237060547 10.696000099182129,-27.437000274658203 C10.696000099182129,-27.437000274658203 8.555999755859375,-17.0049991607666 8.555999755859375,-17.0049991607666 C18.658000946044922,-23.7450008392334 30.461000442504883,-30.374000549316406 44.03099822998047,-36.125 C44.255001068115234,-36.220001220703125 44.512001037597656,-36.11600112915039 44.606998443603516,-35.891998291015625 C44.70199966430664,-35.66899871826172 44.59700012207031,-35.4109992980957 44.374000549316406,-35.316001892089844 C36.36000061035156,-31.91900062561035 28.96299934387207,-28.21500015258789 22.172000885009766,-24.363000869750977 C22.172000885009766,-24.363000869750977 30.1560001373291,-22.538999557495117 30.1560001373291,-22.538999557495117 C30.39299964904785,-22.485000610351562 30.541000366210938,-22.249000549316406 30.48699951171875,-22.01300048828125 C30.433000564575195,-21.775999069213867 30.19700050354004,-21.628999710083008 29.961000442504883,-21.683000564575195 C29.961000442504883,-21.683000564575195 21.055999755859375,-23.716999053955078 21.055999755859375,-23.716999053955078 C21.054000854492188,-23.716999053955078 21.05299949645996,-23.7189998626709 21.051000595092773,-23.7189998626709 C6.88100004196167,-15.569000244140625 -4.605000019073486,-6.803999900817871 -13.505000114440918,1.090000033378601 C-13.505000114440918,1.090000033378601 -2.2739999294281006,4.556000232696533 -2.2739999294281006,4.556000232696533 C-2.0420000553131104,4.626999855041504 -1.9119999408721924,4.873000144958496 -1.9839999675750732,5.105000019073486 C-2.055999994277954,5.336999893188477 -2.3010001182556152,5.4679999351501465 -2.5329999923706055,5.395999908447266 C-2.5329999923706055,5.395999908447266 -14.008000373840332,1.8539999723434448 -14.008000373840332,1.8539999723434448 C-14.041000366210938,1.843999981880188 -14.071999549865723,1.8300000429153442 -14.10099983215332,1.812999963760376 C-14.142999649047852,1.7879999876022339 -14.180000305175781,1.75600004196167 -14.211000442504883,1.7200000286102295 C-17.558000564575195,4.7170000076293945 -20.53499984741211,7.584000110626221 -23.135000228881836,10.230999946594238 C-37.21900177001953,24.572999954223633 -43.757999420166016,35.82699966430664 -43.821998596191406,35.93899917602539 C-43.94300079345703,36.14899826049805 -44.21099853515625,36.22200012207031 -44.42100143432617,36.10100173950195 C-44.422000885009766,36.10100173950195 -44.42399978637695,36.099998474121094 -44.42499923706055,36.0989990234375 C-44.632999420166016,35.97700119018555 -44.702999114990234,35.709999084472656 -44.58300018310547,35.500999450683594z"></path></g></g><g transform="matrix(0.993319034576416,0.11540059000253677,-0.11540059000253677,0.993319034576416,125.41653442382812,-331.19293212890625)" opacity="1" style="display: block;"><g opacity="1" transform="matrix(1,0,0,1,500.38299560546875,1023.5659790039062)"><path fill="rgb(176,222,219)" fill-opacity="1" d=" M53.928001403808594,31.39299964904785 C49.893001556396484,19.702999114990234 47.74300003051758,5.710000038146973 38.48500061035156,-3.0869998931884766 C34.90700149536133,-5.704999923706055 29.910999298095703,-3.255000114440918 26.41200065612793,-6.4720001220703125 C17.801000595092773,-13.21500015258789 13.720999717712402,-26.643999099731445 1.4869999885559082,-28.020999908447266 C-0.9350000023841858,-28.701000213623047 -3.1689999103546143,-26.989999771118164 -5.568999767303467,-27.476999282836914 C-6.210999965667725,-27.670000076293945 -6.880000114440918,-27.959999084472656 -7.53000020980835,-28.2189998626709 C-7.572000026702881,-28.281999588012695 -7.636000156402588,-28.297000885009766 -7.705999851226807,-28.29800033569336 C-10.5600004196167,-30.01799964904785 -12.961000442504883,-32.47200012207031 -15.654999732971191,-34.38999938964844 C-15.762999534606934,-34.584999084472656 -15.918999671936035,-34.715999603271484 -16.13800048828125,-34.766998291015625 C-16.655000686645508,-35.290000915527344 -17.312999725341797,-35.62300109863281 -17.899999618530273,-36.04199981689453 C-17.959999084472656,-36.13600158691406 -18.04199981689453,-36.19300079345703 -18.156999588012695,-36.191001892089844 C-18.238000869750977,-36.316001892089844 -18.368999481201172,-36.3489990234375 -18.51099967956543,-36.3489990234375 C-18.766000747680664,-36.71699905395508 -19.249000549316406,-36.816001892089844 -19.615999221801758,-36.999000549316406 C-27.211000442504883,-40.875999450683594 -35.85499954223633,-36.70899963378906 -43.9640007019043,-39.02799987792969 C-44.07400131225586,-39.12900161743164 -44.20100021362305,-39.071998596191406 -44.323001861572266,-39.069000244140625 C-53.16400146484375,-40.66299819946289 -56.707000732421875,-30.31999969482422 -51.512001037597656,-24.125 C-48.064998626708984,-18.45599937438965 -40.606998443603516,-17.375 -37.0369987487793,-11.937000274658203 C-30.020999908447266,6.215000152587891 -30.091999053955078,7.099999904632568 -9.972999572753906,11.097000122070312 C0.43299999833106995,18.219999313354492 -8.067000389099121,30.750999450683594 18.579999923706055,32.400001525878906 C22.999000549316406,32.58100128173828 21.7189998626709,39.3129997253418 25.878000259399414,39.233001708984375 C35.279998779296875,38.108001708984375 45.71900177001953,35.21900177001953 53.928001403808594,31.39299964904785z M-2.809000015258789,-26.891000747680664 C-2.7909998893737793,-26.81800079345703 -2.7320001125335693,-26.820999145507812 -2.677999973297119,-26.826000213623047 C-2.7320001125335693,-26.81999969482422 -2.7920000553131104,-26.81800079345703 -2.809000015258789,-26.891000747680664z"></path></g><g opacity="1" transform="matrix(1,0,0,1,501.4949951171875,1025.8890380859375)"><g opacity="1" transform="matrix(1,0,0,1,0,0)"><path fill="rgb(0,135,127)" fill-opacity="1" d=" M44.58300018310547,35.500999450683594 C44.518001556396484,35.38800048828125 37.93899917602539,24.05699920654297 23.785999298095703,9.640000343322754 C16.382999420166016,2.0980000495910645 5.980999946594238,-7.191999912261963 -7.543000221252441,-16.32699966430664 C-7.538000106811523,-16.371999740600586 -7.539000034332275,-16.41900062561035 -7.548999786376953,-16.465999603271484 C-7.548999786376953,-16.465999603271484 -9.836000442504883,-27.61400032043457 -9.836000442504883,-27.61400032043457 C-9.885000228881836,-27.851999282836914 -10.116000175476074,-28.0049991607666 -10.354000091552734,-27.95599937438965 C-10.592000007629395,-27.906999588012695 -10.744999885559082,-27.674999237060547 -10.696000099182129,-27.437000274658203 C-10.696000099182129,-27.437000274658203 -8.555999755859375,-17.0049991607666 -8.555999755859375,-17.0049991607666 C-18.658000946044922,-23.7450008392334 -30.461000442504883,-30.374000549316406 -44.03099822998047,-36.125 C-44.255001068115234,-36.220001220703125 -44.512001037597656,-36.11600112915039 -44.606998443603516,-35.891998291015625 C-44.70199966430664,-35.66899871826172 -44.59700012207031,-35.4109992980957 -44.374000549316406,-35.316001892089844 C-36.36000061035156,-31.91900062561035 -28.96299934387207,-28.21500015258789 -22.172000885009766,-24.363000869750977 C-22.172000885009766,-24.363000869750977 -30.1560001373291,-22.538999557495117 -30.1560001373291,-22.538999557495117 C-30.39299964904785,-22.485000610351562 -30.541000366210938,-22.249000549316406 -30.48699951171875,-22.01300048828125 C-30.433000564575195,-21.775999069213867 -30.19700050354004,-21.628999710083008 -29.961000442504883,-21.683000564575195 C-29.961000442504883,-21.683000564575195 -21.055999755859375,-23.716999053955078 -21.055999755859375,-23.716999053955078 C-21.054000854492188,-23.716999053955078 -21.05299949645996,-23.7189998626709 -21.051000595092773,-23.7189998626709 C-6.88100004196167,-15.569000244140625 4.605000019073486,-6.803999900817871 13.505000114440918,1.090000033378601 C13.505000114440918,1.090000033378601 2.2739999294281006,4.556000232696533 2.2739999294281006,4.556000232696533 C2.0420000553131104,4.626999855041504 1.9119999408721924,4.873000144958496 1.9839999675750732,5.105000019073486 C2.055999994277954,5.336999893188477 2.3010001182556152,5.4679999351501465 2.5329999923706055,5.395999908447266 C2.5329999923706055,5.395999908447266 14.008000373840332,1.8539999723434448 14.008000373840332,1.8539999723434448 C14.041000366210938,1.843999981880188 14.071999549865723,1.8300000429153442 14.10099983215332,1.812999963760376 C14.142999649047852,1.7879999876022339 14.180000305175781,1.75600004196167 14.211000442504883,1.7200000286102295 C17.558000564575195,4.7170000076293945 20.53499984741211,7.584000110626221 23.135000228881836,10.230999946594238 C37.21900177001953,24.572999954223633 43.757999420166016,35.82699966430664 43.821998596191406,35.93899917602539 C43.94300079345703,36.14899826049805 44.21099853515625,36.22200012207031 44.42100143432617,36.10100173950195 C44.422000885009766,36.10100173950195 44.42399978637695,36.099998474121094 44.42499923706055,36.0989990234375 C44.632999420166016,35.97700119018555 44.702999114990234,35.709999084472656 44.58300018310547,35.500999450683594z"></path></g></g></g><g transform="matrix(1,0,0,1,541.3679809570312,789.6939697265625)" opacity="1" style="display: block;"><g opacity="1" transform="matrix(1,0,0,1,0,0)"><path fill="url(#__lottie_element_561)" fill-opacity="1" d=" M466.02398681640625,13.753999710083008 C466.02398681640625,13.753999710083008 -466.02398681640625,13.753999710083008 -466.02398681640625,13.753999710083008 C-466.02398681640625,13.753999710083008 -466.02398681640625,6.250999927520752 -466.02398681640625,6.250999927520752 C-466.02398681640625,-4.796999931335449 -457.0669860839844,-13.753999710083008 -446.0190124511719,-13.753999710083008 C-446.0190124511719,-13.753999710083008 446.0190124511719,-13.753999710083008 446.0190124511719,-13.753999710083008 C457.0669860839844,-13.753999710083008 466.02398681640625,-4.796999931335449 466.02398681640625,6.250999927520752 C466.02398681640625,6.250999927520752 466.02398681640625,13.753999710083008 466.02398681640625,13.753999710083008z"></path></g></g><g transform="matrix(0.9964923858642578,-0.0836833268404007,0.0836833268404007,0.9964923858642578,-64.29092407226562,-243.02789306640625)" opacity="1" style="display: block;"><g opacity="1" transform="matrix(1,0,0,1,359.17401123046875,692.9749755859375)"><path fill="rgb(43,23,16)" fill-opacity="1" d=" M-12.956999778747559,-43.20199966430664 C-10.781000137329102,-50.63600158691406 -5.466000080108643,-45.172000885009766 -5.466000080108643,-45.172000885009766 C12.187999725341797,-62.345001220703125 37.72200012207031,-49.551998138427734 35.83399963378906,-32.99100112915039 C47.108001708984375,-38.64099884033203 52.62099838256836,-17.415000915527344 46.316001892089844,-11.281999588012695 C60.71799850463867,-3.2039999961853027 53.792999267578125,17.849000930786133 38.84400177001953,19.301000595092773 C34.60599899291992,25.87700080871582 -10.053999900817871,46.823001861572266 -14.678000450134277,51.32099914550781 C-35.91400146484375,57.6619987487793 -37.43000030517578,47.27399826049805 -37.37799835205078,43.542999267578125 C-52.683998107910156,40.84299850463867 -59.064998626708984,22.509000778198242 -50.16400146484375,8.532999992370605 C-56.619998931884766,-4.410999774932861 -49.4739990234375,-11.362000465393066 -46.98099899291992,-11.741999626159668 C-52.87300109863281,-35.459999084472656 -21.18600082397461,-47.87699890136719 -12.956999778747559,-43.20199966430664z"></path></g><g opacity="1" transform="matrix(1,0,0,1,360.5889892578125,737.281982421875)"><path fill="url(#__lottie_element_565)" fill-opacity="1" d=" M-20.743000030517578,-47.779998779296875 C-20.743000030517578,-47.779998779296875 -19.482999801635742,-35.26900100708008 -18.53499984741211,-29.72599983215332 C-17.58799934387207,-24.183000564575195 -20.986000061035156,-15.42199993133545 -28.084999084472656,-20.43600082397461 C-28.084999084472656,-20.43600082397461 -26.716999053955078,-5.807000160217285 -26.716999053955078,-5.807000160217285 C-26.716999053955078,-5.807000160217285 -23.1299991607666,31.108999252319336 -36.880001068115234,38.01900100708008 C-14.560999870300293,63.178001403808594 27.829999923706055,58.57600021362305 23.209999084472656,37.21099853515625 C14.199999809265137,37.08700180053711 13.972999572753906,33.805999755859375 14.097000122070312,24.79599952697754 C35.99300003051758,21.274999618530273 34.04600143432617,4.044000148773193 35.757999420166016,-21.055999755859375 C36.56700134277344,-32.922000885009766 37.56399917602539,-45.10300064086914 36.222999572753906,-54.362998962402344 C14.66100025177002,-44.856998443603516 -6.368000030517578,-52.632999420166016 -11.177000045776367,-55.12099838256836 C-11.560999870300293,-43.23699951171875 -20.743000030517578,-47.779998779296875 -20.743000030517578,-47.779998779296875z"></path></g><g opacity="1" transform="matrix(1,0,0,1,340.447998046875,717.3469848632812)"><path fill="rgb(43,23,16)" fill-opacity="1" d=" M3.384000062942505,-3.746999979019165 C3.052999973297119,1.4320000410079956 -0.7020000219345093,3.0390000343322754 -3.9089999198913574,2.5799999237060547 C1.1779999732971191,5.811999797821045 5.431000232696533,1.8799999952316284 3.384000062942505,-3.746999979019165z"></path></g><g opacity="1" transform="matrix(1,0,0,1,327.8299865722656,719.333984375)"><path fill="url(#__lottie_element_566)" fill-opacity="1" d=" M7.645999908447266,1.5 C6.817999839782715,5.7230000495910645 2.7230000495910645,8.473999977111816 -1.5,7.645999908447266 C-5.7230000495910645,6.817999839782715 -8.473999977111816,2.7230000495910645 -7.645999908447266,-1.5 C-6.817999839782715,-5.7230000495910645 -2.7230000495910645,-8.473999977111816 1.5,-7.645999908447266 C5.7230000495910645,-6.817999839782715 8.473999977111816,-2.7230000495910645 7.645999908447266,1.5z"></path></g><g opacity="0.4" transform="matrix(1,0,0,1,328.739013671875,719.1019897460938)"><path fill="rgb(43,23,16)" fill-opacity="1" d=" M0.1589999943971634,-5.216000080108643 C-1.5199999809265137,-5.545000076293945 -3.2279999256134033,-5.093999862670898 -4.5279998779296875,-3.9779999256134033 C-4.665999889373779,-3.859999895095825 -4.681000232696533,-3.6519999504089355 -4.563000202178955,-3.515000104904175 C-4.445000171661377,-3.377000093460083 -4.23799991607666,-3.361999988555908 -4.10099983215332,-3.4800000190734863 C-2.9539999961853027,-4.464000225067139 -1.4479999542236328,-4.861999988555908 0.032999999821186066,-4.572000026702881 C0.7699999809265137,-4.427999973297119 1.4320000410079956,-4.11899995803833 1.9980000257492065,-3.6989998817443848 C1.9290000200271606,-3.7170000076293945 1.8650000095367432,-3.746999979019165 1.7940000295639038,-3.760999917984009 C-0.004999999888241291,-4.113999843597412 -1.75600004196167,-2.937000036239624 -2.1089999675750732,-1.1380000114440918 C-2.4619998931884766,0.6610000133514404 -1.284999966621399,2.4119999408721924 0.5139999985694885,2.765000104904175 C1.8109999895095825,3.0190000534057617 3.075000047683716,2.4709999561309814 3.815999984741211,1.475000023841858 C3.441999912261963,2.8929998874664307 2.4519999027252197,4.085000038146973 1.1039999723434448,4.693999767303467 C0.9390000104904175,4.769000053405762 0.8650000095367432,4.9629998207092285 0.9399999976158142,5.127999782562256 C0.9850000143051147,5.229000091552734 1.0750000476837158,5.295000076293945 1.1759999990463257,5.315000057220459 C1.2410000562667847,5.328000068664551 1.309000015258789,5.321000099182129 1.3739999532699585,5.291999816894531 C3.009999990463257,4.552000045776367 4.192999839782715,3.059999942779541 4.538000106811523,1.2999999523162842 C5.126999855041504,-1.7039999961853027 3.1630001068115234,-4.626999855041504 0.1589999943971634,-5.216000080108643z M0.6399999856948853,2.121000051498413 C-0.8040000200271606,1.8380000591278076 -1.7480000257492065,0.4320000112056732 -1.465000033378601,-1.0119999647140503 C-1.1820000410079956,-2.4560000896453857 0.22300000488758087,-3.4000000953674316 1.6670000553131104,-3.117000102996826 C3.1110000610351562,-2.8340001106262207 4.054999828338623,-1.4290000200271606 3.7720000743865967,0.014999999664723873 C3.489000082015991,1.4589999914169312 2.0840001106262207,2.4040000438690186 0.6399999856948853,2.121000051498413z"></path></g><g opacity="1" transform="matrix(1,0,0,1,356.0780029296875,752.2039794921875)"><path fill="url(#__lottie_element_567)" fill-opacity="1" d=" M18.60700035095215,9.875 C-4.873000144958496,6.072000026702881 -13.513999938964844,-3.885999917984009 -18.60700035095215,-18.636999130249023 C-15.13700008392334,15.010000228881836 9.78600025177002,29.274999618530273 18.60700035095215,9.875z"></path></g></g><g clip-path="url(#__lottie_element_569)" transform="matrix(1,0,0,1,0,-279.1332702636719)" opacity="1" style="display: block;"><g transform="matrix(1,0,0,1,0,0)" opacity="1" style="display: block;"><g opacity="1" transform="matrix(1,0,0,1,696.9010009765625,695.406982421875)"><path fill="rgb(81,135,127)" fill-opacity="1" d=" M231.60499572753906,184.8990020751953 C231.60499572753906,184.8990020751953 -231.60499572753906,184.8990020751953 -231.60499572753906,184.8990020751953 C-231.60499572753906,184.8990020751953 -231.60499572753906,-184.8990020751953 -231.60499572753906,-184.8990020751953 C-231.60499572753906,-184.8990020751953 231.60499572753906,-184.8990020751953 231.60499572753906,-184.8990020751953 C231.60499572753906,-184.8990020751953 231.60499572753906,184.8990020751953 231.60499572753906,184.8990020751953z"></path></g><g opacity="1" transform="matrix(1,0,0,1,688.8720092773438,710.8410034179688)"><g opacity="1" transform="matrix(1,0,0,1,0,0)"><path fill="rgb(245,255,254)" fill-opacity="1" d=" M231.60499572753906,163.9199981689453 C231.60499572753906,163.9199981689453 -231.60499572753906,163.9199981689453 -231.60499572753906,163.9199981689453 C-231.60499572753906,163.9199981689453 -231.60499572753906,-163.9199981689453 -231.60499572753906,-163.9199981689453 C-231.60499572753906,-163.9199981689453 231.60499572753906,-163.9199981689453 231.60499572753906,-163.9199981689453 C231.60499572753906,-163.9199981689453 231.60499572753906,163.9199981689453 231.60499572753906,163.9199981689453z"></path></g></g><g opacity="1" transform="matrix(1,0,0,1,688.8720092773438,523.2930297851562)"><g opacity="1" transform="matrix(1,0,0,1,0,0)"><path fill="rgb(0,135,127)" fill-opacity="1" d=" M231.60499572753906,-23.628000259399414 C231.60499572753906,-23.628000259399414 -231.60499572753906,-23.628000259399414 -231.60499572753906,-23.628000259399414 C-231.60499572753906,-23.628000259399414 -231.60499572753906,23.628000259399414 -231.60499572753906,23.628000259399414 C-231.60499572753906,23.628000259399414 231.60499572753906,23.628000259399414 231.60499572753906,23.628000259399414 C231.60499572753906,23.628000259399414 231.60499572753906,-23.628000259399414 231.60499572753906,-23.628000259399414z"></path></g></g><g opacity="1" transform="matrix(1,0,0,1,516.7479858398438,516.156005859375)"><g opacity="1" transform="matrix(1,0,0,1,0,0)"><path fill="rgb(249,123,112)" fill-opacity="1" d=" M2.5510001182556152,47.50199890136719 C2.5510001182556152,47.50199890136719 -2.5510001182556152,47.50199890136719 -2.5510001182556152,47.50199890136719 C-6.986999988555908,47.50199890136719 -10.583000183105469,43.90599822998047 -10.583000183105469,39.470001220703125 C-10.583000183105469,39.470001220703125 -10.583000183105469,-39.470001220703125 -10.583000183105469,-39.470001220703125 C-10.583000183105469,-43.90599822998047 -6.986999988555908,-47.50199890136719 -2.5510001182556152,-47.50199890136719 C-2.5510001182556152,-47.50199890136719 2.5510001182556152,-47.50199890136719 2.5510001182556152,-47.50199890136719 C6.986999988555908,-47.50199890136719 10.583000183105469,-43.90599822998047 10.583000183105469,-39.470001220703125 C10.583000183105469,-39.470001220703125 10.583000183105469,39.470001220703125 10.583000183105469,39.470001220703125 C10.583000183105469,43.90599822998047 6.986999988555908,47.50199890136719 2.5510001182556152,47.50199890136719z"></path></g></g><g opacity="1" transform="matrix(1,0,0,1,629.9710083007812,516.156005859375)"><g opacity="1" transform="matrix(1,0,0,1,0,0)"><path fill="rgb(249,123,112)" fill-opacity="1" d=" M2.5510001182556152,47.50199890136719 C2.5510001182556152,47.50199890136719 -2.5510001182556152,47.50199890136719 -2.5510001182556152,47.50199890136719 C-6.986999988555908,47.50199890136719 -10.583000183105469,43.90599822998047 -10.583000183105469,39.470001220703125 C-10.583000183105469,39.470001220703125 -10.583000183105469,-39.470001220703125 -10.583000183105469,-39.470001220703125 C-10.583000183105469,-43.90599822998047 -6.986999988555908,-47.50199890136719 -2.5510001182556152,-47.50199890136719 C-2.5510001182556152,-47.50199890136719 2.5510001182556152,-47.50199890136719 2.5510001182556152,-47.50199890136719 C6.986999988555908,-47.50199890136719 10.583000183105469,-43.90599822998047 10.583000183105469,-39.470001220703125 C10.583000183105469,-39.470001220703125 10.583000183105469,39.470001220703125 10.583000183105469,39.470001220703125 C10.583000183105469,43.90599822998047 6.986999988555908,47.50199890136719 2.5510001182556152,47.50199890136719z"></path></g></g><g opacity="1" transform="matrix(1,0,0,1,745.0759887695312,516.156005859375)"><g opacity="1" transform="matrix(1,0,0,1,0,0)"><path fill="rgb(249,123,112)" fill-opacity="1" d=" M2.5510001182556152,47.50199890136719 C2.5510001182556152,47.50199890136719 -2.5510001182556152,47.50199890136719 -2.5510001182556152,47.50199890136719 C-6.986999988555908,47.50199890136719 -10.583000183105469,43.90599822998047 -10.583000183105469,39.470001220703125 C-10.583000183105469,39.470001220703125 -10.583000183105469,-39.470001220703125 -10.583000183105469,-39.470001220703125 C-10.583000183105469,-43.90599822998047 -6.986999988555908,-47.50199890136719 -2.5510001182556152,-47.50199890136719 C-2.5510001182556152,-47.50199890136719 2.5510001182556152,-47.50199890136719 2.5510001182556152,-47.50199890136719 C6.986999988555908,-47.50199890136719 10.583000183105469,-43.90599822998047 10.583000183105469,-39.470001220703125 C10.583000183105469,-39.470001220703125 10.583000183105469,39.470001220703125 10.583000183105469,39.470001220703125 C10.583000183105469,43.90599822998047 6.986999988555908,47.50199890136719 2.5510001182556152,47.50199890136719z"></path></g></g><g opacity="1" transform="matrix(1,0,0,1,860.1810302734375,516.156005859375)"><g opacity="1" transform="matrix(1,0,0,1,0,0)"><path fill="rgb(249,123,112)" fill-opacity="1" d=" M2.5510001182556152,47.50199890136719 C2.5510001182556152,47.50199890136719 -2.5510001182556152,47.50199890136719 -2.5510001182556152,47.50199890136719 C-6.986999988555908,47.50199890136719 -10.583000183105469,43.90599822998047 -10.583000183105469,39.470001220703125 C-10.583000183105469,39.470001220703125 -10.583000183105469,-39.470001220703125 -10.583000183105469,-39.470001220703125 C-10.583000183105469,-43.90599822998047 -6.986999988555908,-47.50199890136719 -2.5510001182556152,-47.50199890136719 C-2.5510001182556152,-47.50199890136719 2.5510001182556152,-47.50199890136719 2.5510001182556152,-47.50199890136719 C6.986999988555908,-47.50199890136719 10.583000183105469,-43.90599822998047 10.583000183105469,-39.470001220703125 C10.583000183105469,-39.470001220703125 10.583000183105469,39.470001220703125 10.583000183105469,39.470001220703125 C10.583000183105469,43.90599822998047 6.986999988555908,47.50199890136719 2.5510001182556152,47.50199890136719z"></path></g></g></g><g transform="matrix(1,0,0,1,0,0)" opacity="1" style="display: block;"><g opacity="0.1" transform="matrix(1,0,0,1,517.2760009765625,637.5419921875)"><path fill="rgb(58,81,80)" fill-opacity="1" d=" M33.944000244140625,38.395999908447266 C33.944000244140625,38.395999908447266 -33.944000244140625,38.395999908447266 -33.944000244140625,38.395999908447266 C-36.40299987792969,38.395999908447266 -38.395999908447266,36.40299987792969 -38.395999908447266,33.944000244140625 C-38.395999908447266,33.944000244140625 -38.395999908447266,-33.944000244140625 -38.395999908447266,-33.944000244140625 C-38.395999908447266,-36.40299987792969 -36.40299987792969,-38.395999908447266 -33.944000244140625,-38.395999908447266 C-33.944000244140625,-38.395999908447266 33.944000244140625,-38.395999908447266 33.944000244140625,-38.395999908447266 C36.40299987792969,-38.395999908447266 38.395999908447266,-36.40299987792969 38.395999908447266,-33.944000244140625 C38.395999908447266,-33.944000244140625 38.395999908447266,33.944000244140625 38.395999908447266,33.944000244140625 C38.395999908447266,36.40299987792969 36.40299987792969,38.395999908447266 33.944000244140625,38.395999908447266z"></path></g><g opacity="1" transform="matrix(1,0,0,1,520.2760009765625,634.5419921875)"><path fill="rgb(137,206,199)" fill-opacity="1" d=" M33.944000244140625,38.395999908447266 C33.944000244140625,38.395999908447266 -33.944000244140625,38.395999908447266 -33.944000244140625,38.395999908447266 C-36.40299987792969,38.395999908447266 -38.395999908447266,36.40299987792969 -38.395999908447266,33.944000244140625 C-38.395999908447266,33.944000244140625 -38.395999908447266,-33.944000244140625 -38.395999908447266,-33.944000244140625 C-38.395999908447266,-36.40299987792969 -36.40299987792969,-38.395999908447266 -33.944000244140625,-38.395999908447266 C-33.944000244140625,-38.395999908447266 33.944000244140625,-38.395999908447266 33.944000244140625,-38.395999908447266 C36.40299987792969,-38.395999908447266 38.395999908447266,-36.40299987792969 38.395999908447266,-33.944000244140625 C38.395999908447266,-33.944000244140625 38.395999908447266,33.944000244140625 38.395999908447266,33.944000244140625 C38.395999908447266,36.40299987792969 36.40299987792969,38.395999908447266 33.944000244140625,38.395999908447266z"></path></g></g><g transform="matrix(1,0,0,1,0,0)" opacity="1" style="display: block;"><g opacity="0.1" transform="matrix(1,0,0,1,632.3809814453125,637.5419921875)"><path fill="rgb(58,81,80)" fill-opacity="1" d=" M33.944000244140625,38.395999908447266 C33.944000244140625,38.395999908447266 -33.944000244140625,38.395999908447266 -33.944000244140625,38.395999908447266 C-36.40299987792969,38.395999908447266 -38.395999908447266,36.40299987792969 -38.395999908447266,33.944000244140625 C-38.395999908447266,33.944000244140625 -38.395999908447266,-33.944000244140625 -38.395999908447266,-33.944000244140625 C-38.395999908447266,-36.40299987792969 -36.40299987792969,-38.395999908447266 -33.944000244140625,-38.395999908447266 C-33.944000244140625,-38.395999908447266 33.944000244140625,-38.395999908447266 33.944000244140625,-38.395999908447266 C36.40299987792969,-38.395999908447266 38.395999908447266,-36.40299987792969 38.395999908447266,-33.944000244140625 C38.395999908447266,-33.944000244140625 38.395999908447266,33.944000244140625 38.395999908447266,33.944000244140625 C38.395999908447266,36.40299987792969 36.40299987792969,38.395999908447266 33.944000244140625,38.395999908447266z"></path></g><g opacity="1" transform="matrix(1,0,0,1,635.3809814453125,634.5419921875)"><path fill="rgb(168,236,231)" fill-opacity="1" d=" M33.944000244140625,38.395999908447266 C33.944000244140625,38.395999908447266 -33.944000244140625,38.395999908447266 -33.944000244140625,38.395999908447266 C-36.40299987792969,38.395999908447266 -38.395999908447266,36.40299987792969 -38.395999908447266,33.944000244140625 C-38.395999908447266,33.944000244140625 -38.395999908447266,-33.944000244140625 -38.395999908447266,-33.944000244140625 C-38.395999908447266,-36.40299987792969 -36.40299987792969,-38.395999908447266 -33.944000244140625,-38.395999908447266 C-33.944000244140625,-38.395999908447266 33.944000244140625,-38.395999908447266 33.944000244140625,-38.395999908447266 C36.40299987792969,-38.395999908447266 38.395999908447266,-36.40299987792969 38.395999908447266,-33.944000244140625 C38.395999908447266,-33.944000244140625 38.395999908447266,33.944000244140625 38.395999908447266,33.944000244140625 C38.395999908447266,36.40299987792969 36.40299987792969,38.395999908447266 33.944000244140625,38.395999908447266z"></path></g></g><g transform="matrix(1,0,0,1,0,0)" opacity="1" style="display: block;"><g opacity="0.1" transform="matrix(1,0,0,1,747.4860229492188,637.5419921875)"><path fill="rgb(58,81,80)" fill-opacity="1" d=" M33.944000244140625,38.395999908447266 C33.944000244140625,38.395999908447266 -33.944000244140625,38.395999908447266 -33.944000244140625,38.395999908447266 C-36.40299987792969,38.395999908447266 -38.395999908447266,36.40299987792969 -38.395999908447266,33.944000244140625 C-38.395999908447266,33.944000244140625 -38.395999908447266,-33.944000244140625 -38.395999908447266,-33.944000244140625 C-38.395999908447266,-36.40299987792969 -36.40299987792969,-38.395999908447266 -33.944000244140625,-38.395999908447266 C-33.944000244140625,-38.395999908447266 33.944000244140625,-38.395999908447266 33.944000244140625,-38.395999908447266 C36.40299987792969,-38.395999908447266 38.395999908447266,-36.40299987792969 38.395999908447266,-33.944000244140625 C38.395999908447266,-33.944000244140625 38.395999908447266,33.944000244140625 38.395999908447266,33.944000244140625 C38.395999908447266,36.40299987792969 36.40299987792969,38.395999908447266 33.944000244140625,38.395999908447266z"></path></g><g opacity="1" transform="matrix(1,0,0,1,750.4860229492188,634.5419921875)"><path fill="rgb(168,236,231)" fill-opacity="1" d=" M33.944000244140625,38.395999908447266 C33.944000244140625,38.395999908447266 -33.944000244140625,38.395999908447266 -33.944000244140625,38.395999908447266 C-36.40299987792969,38.395999908447266 -38.395999908447266,36.40299987792969 -38.395999908447266,33.944000244140625 C-38.395999908447266,33.944000244140625 -38.395999908447266,-33.944000244140625 -38.395999908447266,-33.944000244140625 C-38.395999908447266,-36.40299987792969 -36.40299987792969,-38.395999908447266 -33.944000244140625,-38.395999908447266 C-33.944000244140625,-38.395999908447266 33.944000244140625,-38.395999908447266 33.944000244140625,-38.395999908447266 C36.40299987792969,-38.395999908447266 38.395999908447266,-36.40299987792969 38.395999908447266,-33.944000244140625 C38.395999908447266,-33.944000244140625 38.395999908447266,33.944000244140625 38.395999908447266,33.944000244140625 C38.395999908447266,36.40299987792969 36.40299987792969,38.395999908447266 33.944000244140625,38.395999908447266z"></path></g></g><g transform="matrix(1,0,0,1,0,0)" opacity="1" style="display: block;"><g opacity="0.1" transform="matrix(1,0,0,1,860.7039794921875,637.5419921875)"><path fill="rgb(58,81,80)" fill-opacity="1" d=" M33.944000244140625,38.395999908447266 C33.944000244140625,38.395999908447266 -33.944000244140625,38.395999908447266 -33.944000244140625,38.395999908447266 C-36.40299987792969,38.395999908447266 -38.395999908447266,36.40299987792969 -38.395999908447266,33.944000244140625 C-38.395999908447266,33.944000244140625 -38.395999908447266,-33.944000244140625 -38.395999908447266,-33.944000244140625 C-38.395999908447266,-36.40299987792969 -36.40299987792969,-38.395999908447266 -33.944000244140625,-38.395999908447266 C-33.944000244140625,-38.395999908447266 33.944000244140625,-38.395999908447266 33.944000244140625,-38.395999908447266 C36.40299987792969,-38.395999908447266 38.395999908447266,-36.40299987792969 38.395999908447266,-33.944000244140625 C38.395999908447266,-33.944000244140625 38.395999908447266,33.944000244140625 38.395999908447266,33.944000244140625 C38.395999908447266,36.40299987792969 36.40299987792969,38.395999908447266 33.944000244140625,38.395999908447266z"></path></g><g opacity="1" transform="matrix(1,0,0,1,863.7039794921875,634.5419921875)"><path fill="rgb(168,236,231)" fill-opacity="1" d=" M33.944000244140625,38.395999908447266 C33.944000244140625,38.395999908447266 -33.944000244140625,38.395999908447266 -33.944000244140625,38.395999908447266 C-36.40299987792969,38.395999908447266 -38.395999908447266,36.40299987792969 -38.395999908447266,33.944000244140625 C-38.395999908447266,33.944000244140625 -38.395999908447266,-33.944000244140625 -38.395999908447266,-33.944000244140625 C-38.395999908447266,-36.40299987792969 -36.40299987792969,-38.395999908447266 -33.944000244140625,-38.395999908447266 C-33.944000244140625,-38.395999908447266 33.944000244140625,-38.395999908447266 33.944000244140625,-38.395999908447266 C36.40299987792969,-38.395999908447266 38.395999908447266,-36.40299987792969 38.395999908447266,-33.944000244140625 C38.395999908447266,-33.944000244140625 38.395999908447266,33.944000244140625 38.395999908447266,33.944000244140625 C38.395999908447266,36.40299987792969 36.40299987792969,38.395999908447266 33.944000244140625,38.395999908447266z"></path></g></g><g transform="matrix(1,0,0,1,0,0)" opacity="1" style="display: block;"><g opacity="0.1" transform="matrix(1,0,0,1,517.2760009765625,771.5170288085938)"><path fill="rgb(58,81,80)" fill-opacity="1" d=" M33.944000244140625,38.395999908447266 C33.944000244140625,38.395999908447266 -33.944000244140625,38.395999908447266 -33.944000244140625,38.395999908447266 C-36.40299987792969,38.395999908447266 -38.395999908447266,36.40299987792969 -38.395999908447266,33.944000244140625 C-38.395999908447266,33.944000244140625 -38.395999908447266,-33.944000244140625 -38.395999908447266,-33.944000244140625 C-38.395999908447266,-36.40299987792969 -36.40299987792969,-38.395999908447266 -33.944000244140625,-38.395999908447266 C-33.944000244140625,-38.395999908447266 33.944000244140625,-38.395999908447266 33.944000244140625,-38.395999908447266 C36.40299987792969,-38.395999908447266 38.395999908447266,-36.40299987792969 38.395999908447266,-33.944000244140625 C38.395999908447266,-33.944000244140625 38.395999908447266,33.944000244140625 38.395999908447266,33.944000244140625 C38.395999908447266,36.40299987792969 36.40299987792969,38.395999908447266 33.944000244140625,38.395999908447266z"></path></g><g opacity="1" transform="matrix(1,0,0,1,520.2760009765625,768.5170288085938)"><path fill="rgb(168,236,231)" fill-opacity="1" d=" M33.944000244140625,38.395999908447266 C33.944000244140625,38.395999908447266 -33.944000244140625,38.395999908447266 -33.944000244140625,38.395999908447266 C-36.40299987792969,38.395999908447266 -38.395999908447266,36.40299987792969 -38.395999908447266,33.944000244140625 C-38.395999908447266,33.944000244140625 -38.395999908447266,-33.944000244140625 -38.395999908447266,-33.944000244140625 C-38.395999908447266,-36.40299987792969 -36.40299987792969,-38.395999908447266 -33.944000244140625,-38.395999908447266 C-33.944000244140625,-38.395999908447266 33.944000244140625,-38.395999908447266 33.944000244140625,-38.395999908447266 C36.40299987792969,-38.395999908447266 38.395999908447266,-36.40299987792969 38.395999908447266,-33.944000244140625 C38.395999908447266,-33.944000244140625 38.395999908447266,33.944000244140625 38.395999908447266,33.944000244140625 C38.395999908447266,36.40299987792969 36.40299987792969,38.395999908447266 33.944000244140625,38.395999908447266z"></path></g></g><g transform="matrix(1,0,0,1,0,0)" opacity="1" style="display: block;"><g opacity="0.1" transform="matrix(1,0,0,1,632.3809814453125,771.5170288085938)"><path fill="rgb(58,81,80)" fill-opacity="1" d=" M33.944000244140625,38.395999908447266 C33.944000244140625,38.395999908447266 -33.944000244140625,38.395999908447266 -33.944000244140625,38.395999908447266 C-36.40299987792969,38.395999908447266 -38.395999908447266,36.40299987792969 -38.395999908447266,33.944000244140625 C-38.395999908447266,33.944000244140625 -38.395999908447266,-33.944000244140625 -38.395999908447266,-33.944000244140625 C-38.395999908447266,-36.40299987792969 -36.40299987792969,-38.395999908447266 -33.944000244140625,-38.395999908447266 C-33.944000244140625,-38.395999908447266 33.944000244140625,-38.395999908447266 33.944000244140625,-38.395999908447266 C36.40299987792969,-38.395999908447266 38.395999908447266,-36.40299987792969 38.395999908447266,-33.944000244140625 C38.395999908447266,-33.944000244140625 38.395999908447266,33.944000244140625 38.395999908447266,33.944000244140625 C38.395999908447266,36.40299987792969 36.40299987792969,38.395999908447266 33.944000244140625,38.395999908447266z"></path></g><g opacity="1" transform="matrix(1,0,0,1,635.3809814453125,768.5170288085938)"><path fill="rgb(168,236,231)" fill-opacity="1" d=" M33.944000244140625,38.395999908447266 C33.944000244140625,38.395999908447266 -33.944000244140625,38.395999908447266 -33.944000244140625,38.395999908447266 C-36.40299987792969,38.395999908447266 -38.395999908447266,36.40299987792969 -38.395999908447266,33.944000244140625 C-38.395999908447266,33.944000244140625 -38.395999908447266,-33.944000244140625 -38.395999908447266,-33.944000244140625 C-38.395999908447266,-36.40299987792969 -36.40299987792969,-38.395999908447266 -33.944000244140625,-38.395999908447266 C-33.944000244140625,-38.395999908447266 33.944000244140625,-38.395999908447266 33.944000244140625,-38.395999908447266 C36.40299987792969,-38.395999908447266 38.395999908447266,-36.40299987792969 38.395999908447266,-33.944000244140625 C38.395999908447266,-33.944000244140625 38.395999908447266,33.944000244140625 38.395999908447266,33.944000244140625 C38.395999908447266,36.40299987792969 36.40299987792969,38.395999908447266 33.944000244140625,38.395999908447266z"></path></g></g><g transform="matrix(1,0,0,1,0,0)" opacity="1" style="display: block;"><g opacity="0.1" transform="matrix(1,0,0,1,747.4860229492188,771.5170288085938)"><path fill="rgb(58,81,80)" fill-opacity="1" d=" M33.944000244140625,38.395999908447266 C33.944000244140625,38.395999908447266 -33.944000244140625,38.395999908447266 -33.944000244140625,38.395999908447266 C-36.40299987792969,38.395999908447266 -38.395999908447266,36.40299987792969 -38.395999908447266,33.944000244140625 C-38.395999908447266,33.944000244140625 -38.395999908447266,-33.944000244140625 -38.395999908447266,-33.944000244140625 C-38.395999908447266,-36.40299987792969 -36.40299987792969,-38.395999908447266 -33.944000244140625,-38.395999908447266 C-33.944000244140625,-38.395999908447266 33.944000244140625,-38.395999908447266 33.944000244140625,-38.395999908447266 C36.40299987792969,-38.395999908447266 38.395999908447266,-36.40299987792969 38.395999908447266,-33.944000244140625 C38.395999908447266,-33.944000244140625 38.395999908447266,33.944000244140625 38.395999908447266,33.944000244140625 C38.395999908447266,36.40299987792969 36.40299987792969,38.395999908447266 33.944000244140625,38.395999908447266z"></path></g><g opacity="1" transform="matrix(1,0,0,1,750.4860229492188,768.5170288085938)"><path fill="rgb(168,236,231)" fill-opacity="1" d=" M33.944000244140625,38.395999908447266 C33.944000244140625,38.395999908447266 -33.944000244140625,38.395999908447266 -33.944000244140625,38.395999908447266 C-36.40299987792969,38.395999908447266 -38.395999908447266,36.40299987792969 -38.395999908447266,33.944000244140625 C-38.395999908447266,33.944000244140625 -38.395999908447266,-33.944000244140625 -38.395999908447266,-33.944000244140625 C-38.395999908447266,-36.40299987792969 -36.40299987792969,-38.395999908447266 -33.944000244140625,-38.395999908447266 C-33.944000244140625,-38.395999908447266 33.944000244140625,-38.395999908447266 33.944000244140625,-38.395999908447266 C36.40299987792969,-38.395999908447266 38.395999908447266,-36.40299987792969 38.395999908447266,-33.944000244140625 C38.395999908447266,-33.944000244140625 38.395999908447266,33.944000244140625 38.395999908447266,33.944000244140625 C38.395999908447266,36.40299987792969 36.40299987792969,38.395999908447266 33.944000244140625,38.395999908447266z"></path></g></g><g transform="matrix(1,0,0,1,0,0)" opacity="1" style="display: block;"><g opacity="0.1" transform="matrix(1,0,0,1,860.7039794921875,771.5170288085938)"><path fill="rgb(58,81,80)" fill-opacity="1" d=" M33.944000244140625,38.395999908447266 C33.944000244140625,38.395999908447266 -33.944000244140625,38.395999908447266 -33.944000244140625,38.395999908447266 C-36.40299987792969,38.395999908447266 -38.395999908447266,36.40299987792969 -38.395999908447266,33.944000244140625 C-38.395999908447266,33.944000244140625 -38.395999908447266,-33.944000244140625 -38.395999908447266,-33.944000244140625 C-38.395999908447266,-36.40299987792969 -36.40299987792969,-38.395999908447266 -33.944000244140625,-38.395999908447266 C-33.944000244140625,-38.395999908447266 33.944000244140625,-38.395999908447266 33.944000244140625,-38.395999908447266 C36.40299987792969,-38.395999908447266 38.395999908447266,-36.40299987792969 38.395999908447266,-33.944000244140625 C38.395999908447266,-33.944000244140625 38.395999908447266,33.944000244140625 38.395999908447266,33.944000244140625 C38.395999908447266,36.40299987792969 36.40299987792969,38.395999908447266 33.944000244140625,38.395999908447266z"></path></g><g opacity="1" transform="matrix(1,0,0,1,863.7039794921875,768.5170288085938)"><path fill="rgb(168,236,231)" fill-opacity="1" d=" M33.944000244140625,38.395999908447266 C33.944000244140625,38.395999908447266 -33.944000244140625,38.395999908447266 -33.944000244140625,38.395999908447266 C-36.40299987792969,38.395999908447266 -38.395999908447266,36.40299987792969 -38.395999908447266,33.944000244140625 C-38.395999908447266,33.944000244140625 -38.395999908447266,-33.944000244140625 -38.395999908447266,-33.944000244140625 C-38.395999908447266,-36.40299987792969 -36.40299987792969,-38.395999908447266 -33.944000244140625,-38.395999908447266 C-33.944000244140625,-38.395999908447266 33.944000244140625,-38.395999908447266 33.944000244140625,-38.395999908447266 C36.40299987792969,-38.395999908447266 38.395999908447266,-36.40299987792969 38.395999908447266,-33.944000244140625 C38.395999908447266,-33.944000244140625 38.395999908447266,33.944000244140625 38.395999908447266,33.944000244140625 C38.395999908447266,36.40299987792969 36.40299987792969,38.395999908447266 33.944000244140625,38.395999908447266z"></path></g></g><g transform="matrix(1,0,0,1,516.7479858398438,634.5419921875)" opacity="1" style="display: block;"><g opacity="1" transform="matrix(1.5704799890518188,0,0,1.5704799890518188,3,1.5)"><path stroke-linecap="round" stroke-linejoin="round" fill-opacity="0" stroke="rgb(255,255,255)" stroke-opacity="1" stroke-width="4" d=" M-11.767000198364258,-0.6990000009536743 C-11.767000198364258,-0.6990000009536743 -3.8450000286102295,7.2230000495910645 -3.8450000286102295,7.2230000495910645 C-3.8450000286102295,7.2230000495910645 3.8550000190734863,0.09799999743700027 8.4399995803833,-4.144000053405762"></path></g></g><g transform="matrix(1,0,0,1,863.7479858398438,633.5419921875)" opacity="1" style="display: none;"><g opacity="1" transform="matrix(1.5704799890518188,0,0,1.5704799890518188,3,1.5)"><path stroke-linecap="round" stroke-linejoin="round" fill-opacity="0" stroke="rgb(255,255,255)" stroke-opacity="1" stroke-width="4" d=" M-11.767000198364258,-0.6990000009536743 C-11.767000198364258,-0.6990000009536743 -3.8450000286102295,7.2230000495910645 -3.8450000286102295,7.2230000495910645 C-3.8450000286102295,7.2230000495910645 11.767000198364258,-7.2230000495910645 11.767000198364258,-7.2230000495910645"></path></g></g><g transform="matrix(1,0,0,1,749.7479858398438,768.5419921875)" opacity="1" style="display: none;"><g opacity="1" transform="matrix(1.5704799890518188,0,0,1.5704799890518188,3,1.5)"><path stroke-linecap="round" stroke-linejoin="round" fill-opacity="0" stroke="rgb(255,255,255)" stroke-opacity="1" stroke-width="4" d=" M-11.767000198364258,-0.6990000009536743 C-11.767000198364258,-0.6990000009536743 -3.8450000286102295,7.2230000495910645 -3.8450000286102295,7.2230000495910645 C-3.8450000286102295,7.2230000495910645 11.767000198364258,-7.2230000495910645 11.767000198364258,-7.2230000495910645"></path></g></g></g><g transform="matrix(1,0,0,1,0,-276)" opacity="1" style="display: block;"><g opacity="1" transform="matrix(1,0,0,1,369.55499267578125,912.85498046875)"><path fill="url(#__lottie_element_575)" fill-opacity="1" d=" M-50.07099914550781,139.68600463867188 C-50.07099914550781,139.68600463867188 -208.94900512695312,139.68600463867188 -208.94900512695312,139.68600463867188 C-223.47799682617188,99.58699798583984 -184.46499633789062,-92.01200103759766 -38.70500183105469,-139.68600463867188 C0.2680000066757202,-137.96200561523438 14.020999908447266,-138.4219970703125 14.020999908447266,-138.4219970703125 C95.54100036621094,-90.91000366210938 160.08599853515625,-25.363000869750977 170.98300170898438,6.60099983215332 C181.8800048828125,38.564998626708984 211.78500366210938,139.68600463867188 211.78500366210938,139.68600463867188 C211.78500366210938,139.68600463867188 -50.07099914550781,139.68600463867188 -50.07099914550781,139.68600463867188z"></path></g><g opacity="1" transform="matrix(1,0,0,1,332.77398681640625,905.291015625)"><path fill="rgb(69,69,69)" fill-opacity="1" d=" M94.14099884033203,92.50700378417969 C94.11100006103516,92.50700378417969 94.08100128173828,92.50499725341797 94.0510025024414,92.5009994506836 C89.86699676513672,91.96700286865234 -45.23400115966797,74.40399932861328 -51.72800064086914,72.96099853515625 C-54.13100051879883,72.427001953125 -53.60100173950195,65.48400115966797 -50.48500061035156,38.35100173950195 C-45.70100021362305,-3.2980000972747803 -37.694000244140625,-73.00700378417969 -57.77299880981445,-86.22899627685547 C-58.09400177001953,-86.44000244140625 -58.18299865722656,-86.87200164794922 -57.97200012207031,-87.19300079345703 C-57.757999420166016,-87.51499938964844 -57.327999114990234,-87.60199737548828 -57.00600051879883,-87.39099884033203 C-36.2130012512207,-73.697998046875 -44.28200149536133,-3.4579999446868896 -49.10200119018555,38.50899887084961 C-50.981998443603516,54.88199996948242 -52.757999420166016,70.34700012207031 -51.35100173950195,71.63500213623047 C-44.99399948120117,73.03099822998047 93.2040023803711,90.98899841308594 94.22799682617188,91.12000274658203 C94.60900115966797,91.16899871826172 94.87999725341797,91.51699829101562 94.83100128173828,91.89800262451172 C94.78600311279297,92.2490005493164 94.48600006103516,92.50700378417969 94.14099884033203,92.50700378417969z"></path></g><g opacity="1" transform="matrix(1,0,0,1,458.45001220703125,873.3270263671875)"><path fill="rgb(69,69,69)" fill-opacity="1" d=" M12.350000381469727,35.92900085449219 C11.97599983215332,35.92900085449219 11.666999816894531,35.63199996948242 11.652999877929688,35.25600051879883 C11.645999908447266,35.03200149536133 10.628000259399414,12.281000137329102 -12.972999572753906,-34.92100143432617 C-13.144000053405762,-35.26499938964844 -13.005000114440918,-35.68299865722656 -12.66100025177002,-35.85499954223633 C-12.315999984741211,-36.0260009765625 -11.899999618530273,-35.888999938964844 -11.72700023651123,-35.54399871826172 C12.038000106811523,11.98799991607666 13.038000106811523,34.983001708984375 13.045999526977539,35.209999084472656 C13.057999610900879,35.59400177001953 12.755999565124512,35.915000915527344 12.373000144958496,35.928001403808594 C12.364999771118164,35.928001403808594 12.357000350952148,35.92900085449219 12.350000381469727,35.92900085449219z"></path></g></g><g transform="matrix(1,0,0,1.149999976158142,62,-370.6807861328125)" opacity="1" style="display: block;"><g opacity="1" transform="matrix(1,0,0,1,313.12200927734375,587.8519897460938)"><path fill="rgb(52,143,133)" fill-opacity="1" d=" M139.86000061035156,34.86600112915039 C139.86000061035156,34.86600112915039 -139.86000061035156,34.86600112915039 -139.86000061035156,34.86600112915039 C-146.9530029296875,34.86600112915039 -152.70399475097656,29.114999771118164 -152.70399475097656,22.02199935913086 C-152.70399475097656,22.02199935913086 -152.70399475097656,-22.02199935913086 -152.70399475097656,-22.02199935913086 C-152.70399475097656,-29.114999771118164 -146.9530029296875,-34.86600112915039 -139.86000061035156,-34.86600112915039 C-139.86000061035156,-34.86600112915039 139.86000061035156,-34.86600112915039 139.86000061035156,-34.86600112915039 C146.9530029296875,-34.86600112915039 152.70399475097656,-29.114999771118164 152.70399475097656,-22.02199935913086 C152.70399475097656,-22.02199935913086 152.70399475097656,22.02199935913086 152.70399475097656,22.02199935913086 C152.70399475097656,29.114999771118164 146.9530029296875,34.86600112915039 139.86000061035156,34.86600112915039z"></path></g><g opacity="1" transform="matrix(1,0,0,1,318.4179992675781,584.6160278320312)"><path fill="rgb(171,239,223)" fill-opacity="1" d=" M139.86000061035156,34.86600112915039 C139.86000061035156,34.86600112915039 -139.86000061035156,34.86600112915039 -139.86000061035156,34.86600112915039 C-146.9530029296875,34.86600112915039 -152.70399475097656,29.114999771118164 -152.70399475097656,22.02199935913086 C-152.70399475097656,22.02199935913086 -152.70399475097656,-22.02199935913086 -152.70399475097656,-22.02199935913086 C-152.70399475097656,-29.114999771118164 -146.9530029296875,-34.86600112915039 -139.86000061035156,-34.86600112915039 C-139.86000061035156,-34.86600112915039 139.86000061035156,-34.86600112915039 139.86000061035156,-34.86600112915039 C146.9530029296875,-34.86600112915039 152.70399475097656,-29.114999771118164 152.70399475097656,-22.02199935913086 C152.70399475097656,-22.02199935913086 152.70399475097656,22.02199935913086 152.70399475097656,22.02199935913086 C152.70399475097656,29.114999771118164 146.9530029296875,34.86600112915039 139.86000061035156,34.86600112915039z"></path></g></g><g clip-path="url(#__lottie_element_580)" transform="matrix(1.2000000476837158,0,0,1.2000020742416382,106,91.75347900390625)" opacity="1" style="display: block;"><g transform="matrix(1.2325600385665894,0,0,1.2325600385665894,289.2870178222656,189.06005859375)" opacity="1" style="display: block;"><g opacity="1" transform="matrix(1,0,0,1,-21.5,-15)"><path fill="rgb(255,255,255)" fill-opacity="1" d=" M0,-10.75 C5.932925224304199,-10.75 10.75,-5.932925224304199 10.75,0 C10.75,5.932925224304199 5.932925224304199,10.75 0,10.75 C-5.932925224304199,10.75 -10.75,5.932925224304199 -10.75,0 C-10.75,-5.932925224304199 -5.932925224304199,-10.75 0,-10.75z"></path></g></g><g transform="matrix(1.2325600385665894,0,0,1.2325600385665894,234.17105102539062,177.23504638671875)" opacity="1" style="display: block;"><g opacity="1" transform="matrix(1,0,0,1,-21.5,-15)"><path fill="rgb(255,255,255)" fill-opacity="1" d=" M0,-10.75 C5.932925224304199,-10.75 10.75,-5.932925224304199 10.75,0 C10.75,5.932925224304199 5.932925224304199,10.75 0,10.75 C-5.932925224304199,10.75 -10.75,5.932925224304199 -10.75,0 C-10.75,-5.932925224304199 -5.932925224304199,-10.75 0,-10.75z"></path></g></g><g transform="matrix(1.2325600385665894,0,0,1.2325600385665894,179.55604553222656,195.9134063720703)" opacity="1" style="display: block;"><g opacity="1" transform="matrix(1,0,0,1,-21.5,-15)"><path fill="rgb(255,255,255)" fill-opacity="1" d=" M0,-10.75 C5.932925224304199,-10.75 10.75,-5.932925224304199 10.75,0 C10.75,5.932925224304199 5.932925224304199,10.75 0,10.75 C-5.932925224304199,10.75 -10.75,5.932925224304199 -10.75,0 C-10.75,-5.932925224304199 -5.932925224304199,-10.75 0,-10.75z"></path></g></g></g><g transform="matrix(1.230780005455017,0,0,1.2307759523391724,283.3450012207031,302.1158142089844)" opacity="1" style="display: none;"><g opacity="1" transform="matrix(1,0,0,1,0,0)"><path fill="rgb(255,255,255)" fill-opacity="1" d=" M23.832000732421875,0 C23.832000732421875,13.161999702453613 13.161999702453613,23.832000732421875 0,23.832000732421875 C-13.161999702453613,23.832000732421875 -23.832000732421875,13.161999702453613 -23.832000732421875,0 C-23.832000732421875,-13.161999702453613 -13.161999702453613,-23.832000732421875 0,-23.832000732421875 C13.161999702453613,-23.832000732421875 23.832000732421875,-13.161999702453613 23.832000732421875,0z"></path></g></g><g transform="matrix(1,0,0,1.0000054836273193,407.4530029296875,314.4955749511719)" opacity="1" style="display: none;"><g opacity="1" transform="matrix(1,0,0,1,0,0)"><path stroke-linecap="round" stroke-linejoin="round" fill-opacity="0" stroke="rgb(255,255,255)" stroke-opacity="1" stroke-width="7" d=" M-71.33699798583984,0 C-71.33699798583984,0 71.33699798583984,0 71.33699798583984,0"></path></g></g><g transform="matrix(1,0,0,1.0000054836273193,391.1889953613281,292.2419128417969)" opacity="1" style="display: none;"><g opacity="1" transform="matrix(1,0,0,1,0,0)"><path stroke-linecap="round" stroke-linejoin="round" fill-opacity="0" stroke="rgb(255,255,255)" stroke-opacity="1" stroke-width="7" d=" M-55.073001861572266,0 C-55.073001861572266,0 55.073001861572266,0 55.073001861572266,0"></path></g></g><g transform="matrix(0.946271538734436,0,0,0.946271538734436,31.22918701171875,-219.9293212890625)" opacity="1" style="display: block;"><g opacity="1" transform="matrix(1,0,0,1,495.8370056152344,970.3900146484375)"><g opacity="1" transform="matrix(1,0,0,1,0,0)"><path fill="rgb(124,136,189)" fill-opacity="1" d=" M110.96099853515625,-69.74299621582031 C110.96099853515625,-69.74299621582031 -78.15699768066406,-69.74299621582031 -78.15699768066406,-69.74299621582031 C-78.15699768066406,-69.74299621582031 -110.96099853515625,69.74299621582031 -110.96099853515625,69.74299621582031 C-110.96099853515625,69.74299621582031 78.15699768066406,69.74299621582031 78.15699768066406,69.74299621582031 C78.15699768066406,69.74299621582031 110.96099853515625,-69.74299621582031 110.96099853515625,-69.74299621582031z"></path></g></g><g opacity="1" transform="matrix(1,0,0,1,504.0379943847656,970.3900146484375)"><g opacity="1" transform="matrix(1,0,0,1,0,0)"><path fill="rgb(186,221,245)" fill-opacity="1" d=" M110.96099853515625,-69.74299621582031 C110.96099853515625,-69.74299621582031 -78.15699768066406,-69.74299621582031 -78.15699768066406,-69.74299621582031 C-78.15699768066406,-69.74299621582031 -110.96099853515625,69.74299621582031 -110.96099853515625,69.74299621582031 C-110.96099853515625,69.74299621582031 78.15699768066406,69.74299621582031 78.15699768066406,69.74299621582031 C78.15699768066406,69.74299621582031 110.96099853515625,-69.74299621582031 110.96099853515625,-69.74299621582031z"></path></g></g><g opacity="1" transform="matrix(1,0,0,1,0,0)"><g opacity="1" transform="matrix(1,0,0,1,504.0379943847656,970.3900146484375)"><g opacity="1" transform="matrix(1,0,0,1,0,0)"><path fill="rgb(129,157,198)" fill-opacity="1" d=" M13.49899959564209,10.482999801635742 C13.49899959564209,10.482999801635742 -17.114999771118164,10.482999801635742 -17.114999771118164,10.482999801635742 C-17.114999771118164,10.482999801635742 -17.114999771118164,-6.867000102996826 -17.114999771118164,-6.867000102996826 C-17.114999771118164,-8.86400032043457 -15.496000289916992,-10.482999801635742 -13.49899959564209,-10.482999801635742 C-13.49899959564209,-10.482999801635742 17.114999771118164,-10.482999801635742 17.114999771118164,-10.482999801635742 C17.114999771118164,-10.482999801635742 17.114999771118164,6.867000102996826 17.114999771118164,6.867000102996826 C17.114999771118164,8.86400032043457 15.496000289916992,10.482999801635742 13.49899959564209,10.482999801635742z"></path></g></g></g><g opacity="1" transform="matrix(1,0,0,1,450.4119873046875,1046.3370361328125)"><g opacity="1" transform="matrix(1,0,0,1,0,0)"><path fill="rgb(161,208,229)" fill-opacity="1" d=" M-130.92799377441406,6.203999996185303 C-130.92799377441406,6.203999996185303 130.92799377441406,6.203999996185303 130.92799377441406,6.203999996185303 C130.92799377441406,6.203999996185303 130.92799377441406,-6.203999996185303 130.92799377441406,-6.203999996185303 C130.92799377441406,-6.203999996185303 -130.92799377441406,-6.203999996185303 -130.92799377441406,-6.203999996185303 C-130.92799377441406,-6.203999996185303 -130.92799377441406,6.203999996185303 -130.92799377441406,6.203999996185303z"></path></g></g></g><g transform="matrix(1,0,0,1,-0.2686767578125,-272.6419677734375)" opacity="1" style="display: block;"><g opacity="1" transform="matrix(1,0,0,1,591.3660278320312,972.0390014648438)"><path fill="url(#__lottie_element_589)" fill-opacity="1" d=" M17.152000427246094,26.95599937438965 C32.13600158691406,16.117000579833984 38.19300079345703,-21.18400001525879 13.326000213623047,-29.15399932861328 C12.369000434875488,-27.878999710083008 11.095000267028809,-18.315000534057617 11.095000267028809,-18.315000534057617 C11.095000267028809,-18.315000534057617 -26.20599937438965,-14.807000160217285 -27.799999237060547,-3.3299999237060547 C-33.53900146484375,2.7269999980926514 -27.16200065612793,9.42199993133545 -27.16200065612793,9.42199993133545 C-27.799999237060547,16.117000579833984 -11.541000366210938,20.26099967956543 -11.541000366210938,20.26099967956543 C-11.541000366210938,20.26099967956543 -21.423999786376953,18.349000930786133 -21.104999542236328,23.131000518798828 C-20.785999298095703,27.913000106811523 5.99399995803833,31.738000869750977 17.152000427246094,26.95599937438965z"></path></g><g opacity="0.5" transform="matrix(1,0,0,1,585.9630126953125,969.02001953125)"><path fill="rgb(137,23,0)" fill-opacity="1" d=" M-10.612000465393066,3.1110000610351562 C-2.1989998817443848,3.1110000610351562 10.649999618530273,2.250999927520752 19.240999221801758,-2.3440001010894775 C19.43899917602539,-2.450000047683716 19.513999938964844,-2.697999954223633 19.408000946044922,-2.8959999084472656 C19.302000045776367,-3.0940001010894775 19.05500030517578,-3.1689999103546143 18.85700035095215,-3.062999963760376 C5.410999774932861,4.129000186920166 -18.770000457763672,2.0139999389648438 -19.011999130249023,1.9919999837875366 C-19.23900032043457,1.9700000286102295 -19.43400001525879,2.135999917984009 -19.454999923706055,2.359999895095825 C-19.47599983215332,2.5840001106262207 -19.309999465942383,2.7829999923706055 -19.086000442504883,2.802999973297119 C-18.9950008392334,2.811000108718872 -15.574999809265137,3.1110000610351562 -10.612000465393066,3.1110000610351562z"></path></g><g opacity="0.5" transform="matrix(1,0,0,1,580.4630126953125,983.77197265625)"><path fill="rgb(137,23,0)" fill-opacity="1" d=" M14.532999992370605,2.559999942779541 C14.616000175476074,2.559999942779541 14.661999702453613,2.559000015258789 14.670000076293945,2.559000015258789 C14.895000457763672,2.555999994277954 15.074999809265137,2.371999979019165 15.072999954223633,2.1470000743865967 C15.069999694824219,1.9220000505447388 14.920000076293945,1.7450000047683716 14.66100025177002,1.7450000047683716 C14.517999649047852,1.7480000257492065 0.19900000095367432,1.850000023841858 -14.548999786376953,-2.5429999828338623 C-14.763999938964844,-2.6070001125335693 -14.991999626159668,-2.4839999675750732 -15.055999755859375,-2.2679998874664307 C-15.119999885559082,-2.052000045776367 -14.998000144958496,-1.8259999752044678 -14.781999588012695,-1.7619999647140503 C-0.6859999895095825,2.437000036239624 13.020000457763672,2.559999942779541 14.532999992370605,2.559999942779541z"></path></g><g opacity="0.5" transform="matrix(1,0,0,1,585.802978515625,992.9559936523438)"><path fill="rgb(137,23,0)" fill-opacity="1" d=" M3.2939999103546143,0.9039999842643738 C4.064000129699707,0.9039999842643738 4.521999835968018,0.8690000176429749 4.576000213623047,0.8650000095367432 C4.800000190734863,0.847000002861023 4.9670000076293945,0.6510000228881836 4.948999881744385,0.4269999861717224 C4.931000232696533,0.2029999941587448 4.736000061035156,0.03799999877810478 4.511000156402588,0.05299999937415123 C4.4720001220703125,0.05700000002980232 0.5249999761581421,0.3499999940395355 -4.443999767303467,-0.8920000195503235 C-4.6620001792907715,-0.9470000267028809 -4.882999897003174,-0.8140000104904175 -4.938000202178955,-0.5960000157356262 C-4.992000102996826,-0.3779999911785126 -4.860000133514404,-0.15700000524520874 -4.642000198364258,-0.10199999809265137 C-1.2039999961853027,0.7570000290870667 1.7079999446868896,0.9039999842643738 3.2939999103546143,0.9039999842643738z"></path></g></g></g></svg>