<svg width="23" height="23" viewBox="0 0 23 23" fill="none" xmlns="http://www.w3.org/2000/svg">
<path d="M17.653 6.80812C17.5929 6.79811 17.5228 6.79811 17.4627 6.80812C16.0804 6.75804 14.9785 5.62613 14.9785 4.22376C14.9785 2.79135 16.1305 1.6394 17.5629 1.6394C18.9953 1.6394 20.1472 2.80137 20.1472 4.22376C20.1372 5.62613 19.0354 6.75804 17.653 6.80812Z" stroke="#738294" stroke-width="1.50253" stroke-linecap="round" stroke-linejoin="round"/>
<path d="M16.6212 14.1004C17.9935 14.3308 19.506 14.0903 20.5678 13.3791C21.9802 12.4376 21.9802 10.895 20.5678 9.95337C19.496 9.24217 17.9634 9.00176 16.5911 9.24216" stroke="#738294" stroke-width="1.50253" stroke-linecap="round" stroke-linejoin="round"/>
<path d="M5.60261 6.80812C5.66271 6.79811 5.73282 6.79811 5.79293 6.80812C7.17526 6.75804 8.27711 5.62613 8.27711 4.22376C8.27711 2.79135 7.12517 1.6394 5.69276 1.6394C4.26034 1.6394 3.1084 2.80137 3.1084 4.22376C3.11842 5.62613 4.22028 6.75804 5.60261 6.80812Z" stroke="#738294" stroke-width="1.50253" stroke-linecap="round" stroke-linejoin="round"/>
<path d="M6.6343 14.1004C5.26198 14.3308 3.74943 14.0903 2.68764 13.3791C1.27526 12.4376 1.27526 10.895 2.68764 9.95337C3.75945 9.24217 5.29203 9.00176 6.66435 9.24216" stroke="#738294" stroke-width="1.50253" stroke-linecap="round" stroke-linejoin="round"/>
<path d="M11.6429 14.2908C11.5828 14.2808 11.5127 14.2808 11.4526 14.2908C10.0702 14.2407 8.96838 13.1088 8.96838 11.7064C8.96838 10.274 10.1203 9.12207 11.5527 9.12207C12.9852 9.12207 14.1371 10.284 14.1371 11.7064C14.1271 13.1088 13.0252 14.2507 11.6429 14.2908Z" stroke="#738294" stroke-width="1.50253" stroke-linecap="round" stroke-linejoin="round"/>
<path d="M8.72811 17.446C7.31573 18.3876 7.31573 19.9302 8.72811 20.8718C10.3308 21.9436 12.9552 21.9436 14.5579 20.8718C15.9703 19.9302 15.9703 18.3876 14.5579 17.446C12.9653 16.3842 10.3308 16.3842 8.72811 17.446Z" stroke="#738294" stroke-width="1.50253" stroke-linecap="round" stroke-linejoin="round"/>
</svg>
