<svg width="19" height="19" viewBox="0 0 19 19" fill="none" xmlns="http://www.w3.org/2000/svg">
  <path d="M4.90058 5.58949C5.10641 5.55782 5.32016 5.54199 5.54183 5.54199H13.4585C13.6643 5.54199 13.8622 5.5499 14.0522 5.58157C16.0947 5.81907 17.4168 7.33116 17.4168 9.50033V13.4587C17.4168 15.8337 15.8335 17.417 13.4585 17.417H6.04058C6.286 17.2112 6.49975 16.9578 6.666 16.6728C6.95891 16.1978 7.12516 15.6357 7.12516 15.042C7.12516 13.2924 5.70808 11.8753 3.9585 11.8753C3.0085 11.8753 2.16141 12.2949 1.5835 12.952V9.50033C1.5835 8.81158 1.71808 8.18615 1.9635 7.65573" stroke="#7FE9D5" stroke-width="1.5" stroke-linecap="round" stroke-linejoin="round"/>
  <path d="M7.12484 15.0417C7.12484 15.6354 6.95859 16.1975 6.66567 16.6725C6.11942 17.5908 5.114 18.2083 3.95817 18.2083C2.80234 18.2083 1.79692 17.5908 1.25067 16.6725C0.957755 16.1975 0.791504 15.6354 0.791504 15.0417C0.791504 13.2921 2.20859 11.875 3.95817 11.875C5.70775 11.875 7.12484 13.2921 7.12484 15.0417Z" stroke="#7FE9D5" stroke-width="1.5" stroke-miterlimit="10" stroke-linecap="round" stroke-linejoin="round"/>
  <path d="M2.72314 15.0414L3.5069 15.8252L5.19315 14.2656" stroke="#7FE9D5" stroke-width="1.5" stroke-linecap="round" stroke-linejoin="round"/>
  <path d="M14.0521 5.5809C13.8621 5.54923 13.6641 5.54133 13.4583 5.54133H5.54164C5.31998 5.54133 5.10622 5.55716 4.90039 5.58882C5.01122 5.36716 5.16956 5.16135 5.35956 4.97135L7.93248 2.39051C9.01706 1.31384 10.7746 1.31384 11.8591 2.39051L13.2446 3.79172C13.7512 4.29047 14.0204 4.92382 14.0521 5.5809Z" stroke="#7FE9D5" stroke-width="1.5" stroke-linecap="round" stroke-linejoin="round"/>
  <path d="M17.4168 9.89551H15.0418C14.171 9.89551 13.4585 10.608 13.4585 11.4788C13.4585 12.3497 14.171 13.0622 15.0418 13.0622H17.4168" stroke="#7FE9D5" stroke-width="1.5" stroke-linecap="round" stroke-linejoin="round"/>
</svg>
