<svg width="24" height="22" viewBox="0 0 24 22" fill="none" xmlns="http://www.w3.org/2000/svg">
<path d="M1.05054 20.2626H23.0877" stroke="#738294" stroke-width="1.50253" stroke-miterlimit="10" stroke-linecap="round" stroke-linejoin="round"/>
<path d="M19.8625 20.2726V15.8051" stroke="#738294" stroke-width="1.50253" stroke-miterlimit="10" stroke-linecap="round" stroke-linejoin="round"/>
<path d="M19.8824 9.13379C18.6604 9.13379 17.6787 10.1155 17.6787 11.3375V13.6113C17.6787 14.8334 18.6604 15.815 19.8824 15.815C21.1045 15.815 22.0862 14.8334 22.0862 13.6113V11.3375C22.0862 10.1155 21.1045 9.13379 19.8824 9.13379Z" stroke="#738294" stroke-width="1.50253" stroke-miterlimit="10" stroke-linecap="round" stroke-linejoin="round"/>
<path d="M2.15247 20.2625V4.2656C2.15247 2.2522 3.15421 1.24048 5.14757 1.24048H11.3881C13.3814 1.24048 14.3731 2.2522 14.3731 4.2656V20.2625" stroke="#738294" stroke-width="1.50253" stroke-miterlimit="10" stroke-linecap="round" stroke-linejoin="round"/>
<path d="M5.85876 6.48926H10.8171" stroke="#738294" stroke-width="1.50253" stroke-miterlimit="10" stroke-linecap="round" stroke-linejoin="round"/>
<path d="M5.85876 10.2456H10.8171" stroke="#738294" stroke-width="1.50253" stroke-miterlimit="10" stroke-linecap="round" stroke-linejoin="round"/>
<path d="M8.31274 20.2626V16.5062" stroke="#738294" stroke-width="1.50253" stroke-miterlimit="10" stroke-linecap="round" stroke-linejoin="round"/>
</svg>
