<svg fill="none" xmlns="http://www.w3.org/2000/svg" viewBox="0.2 0.3 23.46 21.49"> <path d="M21.8522 5.76938L18.4881 19.3223C18.2485 20.334 17.3501 21.0351 16.312 21.0351H3.19516C1.68782 21.0351 0.609742 19.5526 1.05895 18.1001L5.26151 4.55737C5.551 3.61579 6.41948 2.9646 7.39775 2.9646H19.676C20.6244 2.9646 21.413 3.54558 21.7424 4.34694C21.932 4.77766 21.972 5.26853 21.8522 5.76938Z" stroke="#738294" stroke-width="1.50253" stroke-miterlimit="10"></path> <path d="M15.9325 21.0351H20.7041C21.9918 21.0351 23 19.9432 22.9101 18.6511L21.9219 5.00806" stroke="#738294" stroke-width="1.50253" stroke-miterlimit="10" stroke-linecap="round" stroke-linejoin="round"></path> <path d="M9.62402 5.38877L10.6622 1.06152" stroke="#738294" stroke-width="1.50253" stroke-miterlimit="10" stroke-linecap="round" stroke-linejoin="round"></path> <path d="M16.3115 5.39881L17.2499 1.05151" stroke="#738294" stroke-width="1.50253" stroke-miterlimit="10" stroke-linecap="round" stroke-linejoin="round"></path> <path d="M7.64722 11.0183H15.6331" stroke="#738294" stroke-width="1.50253" stroke-miterlimit="10" stroke-linecap="round" stroke-linejoin="round"></path> <path d="M6.64917 15.0251H14.6351" stroke="#738294" stroke-width="1.50253" stroke-miterlimit="10" stroke-linecap="round" stroke-linejoin="round"></path> </svg>