<svg width="20" height="17" viewBox="0 0 20 17" fill="none" xmlns="http://www.w3.org/2000/svg">
<path d="M1 8.2C1 4.80589 1 3.10883 2.05442 2.05442C3.10883 1 4.80589 1 8.2 1H11.8C15.1941 1 16.8912 1 17.9456 2.05442C19 3.10883 19 4.80589 19 8.2C19 11.5941 19 13.2912 17.9456 14.3456C16.8912 15.4 15.1941 15.4 11.8 15.4H8.2C4.80589 15.4 3.10883 15.4 2.05442 14.3456C1 13.2912 1 11.5941 1 8.2Z" stroke="#E17EBF" stroke-width="1.5"/>
<path d="M8.2001 11.7998H4.6001" stroke="#E17EBF" stroke-width="1.5" stroke-linecap="round"/>
<path d="M11.8002 11.7998H10.4502" stroke="#E17EBF" stroke-width="1.5" stroke-linecap="round"/>
<path d="M1 6.40039L19 6.40039" stroke="#E17EBF" stroke-width="1.5" stroke-linecap="round"/>
</svg>