<svg width="32" height="32" viewBox="0 0 32 32" fill="none" xmlns="http://www.w3.org/2000/svg">
<path d="M22.592 11.7752L23.0864 11.2809C23.9054 10.4619 25.2333 10.4619 26.0524 11.2809C26.8714 12.0999 26.8714 13.4279 26.0524 14.2469L25.5581 14.7413M22.592 11.7752C22.592 11.7752 22.6538 12.8257 23.5807 13.7526C24.5076 14.6795 25.5581 14.7413 25.5581 14.7413M22.592 11.7752L18.0474 16.3199C17.7396 16.6277 17.5856 16.7816 17.4533 16.9513C17.2971 17.1515 17.1633 17.3681 17.054 17.5973C16.9615 17.7916 16.8926 17.9981 16.755 18.4111L16.3142 19.7333L16.1716 20.1611M25.5581 14.7413L21.0134 19.2859C20.7056 19.5937 20.5517 19.7476 20.382 19.88C20.1818 20.0362 19.9652 20.17 19.736 20.2792C19.5417 20.3718 19.3352 20.4407 18.9222 20.5783L17.6 21.0191L17.1722 21.1617M17.1722 21.1617L16.7444 21.3043C16.5412 21.372 16.3172 21.3191 16.1657 21.1676C16.0142 21.0161 15.9613 20.7921 16.029 20.5888L16.1716 20.1611M17.1722 21.1617L16.1716 20.1611" stroke="#070127" stroke-width="1.5"/>
<path d="M11.7344 17.0667H14.401" stroke="#070127" stroke-width="1.5" stroke-linecap="round"/>
<path d="M11.7344 12.8H18.6677" stroke="#070127" stroke-width="1.5" stroke-linecap="round"/>
<path d="M11.7344 21.3334H13.3344" stroke="#070127" stroke-width="1.5" stroke-linecap="round"/>
<path d="M24.3488 6.58305C23.0991 5.33337 21.0878 5.33337 17.0651 5.33337H14.9318C10.9091 5.33337 8.89779 5.33337 7.64812 6.58305C6.39844 7.83273 6.39844 9.84406 6.39844 13.8667V18.1334C6.39844 22.156 6.39844 24.1674 7.64812 25.417C8.89779 26.6667 10.9091 26.6667 14.9318 26.6667H17.0651C21.0878 26.6667 23.0991 26.6667 24.3488 25.417C25.3547 24.4111 25.5509 22.9116 25.5892 20.2667" stroke="#070127" stroke-width="1.5" stroke-linecap="round"/>
</svg>
