<svg width="38" height="38" viewBox="0 0 38 38" fill="none" xmlns="http://www.w3.org/2000/svg">
<path d="M19 13.9333V19L22.1667 22.1667" stroke="#E47964" stroke-width="1.5" stroke-linecap="round" stroke-linejoin="round"/>
<path d="M10.8982 10.8987L10.3679 10.3683V10.3683L10.8982 10.8987ZM9.29411 12.5028L8.54412 12.5065C8.54618 12.9178 8.87907 13.2507 9.29034 13.2527L9.29411 12.5028ZM12.5147 13.269C12.9289 13.271 13.2664 12.9369 13.2685 12.5227C13.2705 12.1085 12.9365 11.7711 12.5222 11.769L12.5147 13.269ZM10.0279 9.27462C10.0258 8.86041 9.68834 8.52632 9.27413 8.5284C8.85993 8.53048 8.52583 8.86795 8.52791 9.28216L10.0279 9.27462ZM8.4485 17.4338C8.50475 17.0235 8.21767 16.6452 7.80729 16.5889C7.39692 16.5327 7.01864 16.8198 6.96239 17.2301L8.4485 17.4338ZM27.5504 10.4494C22.7882 5.68721 15.0953 5.64089 10.3679 10.3683L11.4285 11.429C15.5602 7.29736 22.3033 7.32358 26.4897 11.51L27.5504 10.4494ZM10.4489 27.5508C15.211 32.313 22.9039 32.3593 27.6314 27.6319L26.5707 26.5712C22.4391 30.7028 15.696 30.6766 11.5095 26.4902L10.4489 27.5508ZM27.6314 27.6319C32.3588 22.9044 32.3125 15.2115 27.5504 10.4494L26.4897 11.51C30.6761 15.6965 30.7023 22.4395 26.5707 26.5712L27.6314 27.6319ZM10.3679 10.3683L8.76378 11.9724L9.82444 13.0331L11.4285 11.429L10.3679 10.3683ZM9.29034 13.2527L12.5147 13.269L12.5222 11.769L9.29788 11.7528L9.29034 13.2527ZM10.0441 12.499L10.0279 9.27462L8.52791 9.28216L8.54412 12.5065L10.0441 12.499ZM6.96239 17.2301C6.46211 20.88 7.6271 24.7291 10.4489 27.5508L11.5095 26.4902C9.03103 24.0117 8.00967 20.6353 8.4485 17.4338L6.96239 17.2301Z" fill="#E47964"/>
</svg>