<svg width="22" height="23" viewBox="0 0 22 23" fill="none" xmlns="http://www.w3.org/2000/svg">
<path d="M11.0676 21.2743C16.5998 21.2743 21.0845 16.7895 21.0845 11.2574C21.0845 5.72519 16.5998 1.24048 11.0676 1.24048C5.53544 1.24048 1.05072 5.72519 1.05072 11.2574C1.05072 16.7895 5.53544 21.2743 11.0676 21.2743Z" stroke="#738294" stroke-width="1.50253" stroke-linecap="round" stroke-linejoin="round"/>
<path d="M7.06094 2.24219H8.06263C6.10933 8.09205 6.10933 14.4227 8.06263 20.2726H7.06094" stroke="#738294" stroke-width="1.50253" stroke-linecap="round" stroke-linejoin="round"/>
<path d="M14.0726 2.24219C16.0259 8.09205 16.0259 14.4227 14.0726 20.2726" stroke="#738294" stroke-width="1.50253" stroke-linecap="round" stroke-linejoin="round"/>
<path d="M2.05237 15.2641V14.2625C7.90223 16.2157 14.2329 16.2157 20.0828 14.2625V15.2641" stroke="#738294" stroke-width="1.50253" stroke-linecap="round" stroke-linejoin="round"/>
<path d="M2.05237 8.25245C7.90223 6.29915 14.2329 6.29915 20.0828 8.25245" stroke="#738294" stroke-width="1.50253" stroke-linecap="round" stroke-linejoin="round"/>
</svg>
