<svg width="20" height="18" viewBox="0 0 20 18" fill="none" xmlns="http://www.w3.org/2000/svg">
<path d="M6.05714 14.7865L5.55679 15.3452L6.05714 14.7865ZM10 3.32893L9.45082 3.83972C9.59271 3.99227 9.79166 4.07893 10 4.07893C10.2083 4.07893 10.4073 3.99227 10.5492 3.83972L10 3.32893ZM13.9429 14.7865L13.4425 14.2278L13.9429 14.7865ZM10 17L10 16.25L10 17ZM6.55749 14.2278C5.37099 13.1652 4.15336 11.9119 3.23753 10.5915C2.31437 9.2606 1.75 7.93627 1.75 6.71574H0.25C0.25 8.37629 1.00446 10.004 2.00501 11.4464C3.01289 12.8995 4.32383 14.241 5.55679 15.3452L6.55749 14.2278ZM1.75 6.71574C1.75 4.10555 2.882 2.51452 4.25601 1.97366C5.62507 1.43476 7.56338 1.81043 9.45082 3.83972L10.5492 2.81814C8.38677 0.493221 5.82508 -0.255999 3.7066 0.577906C1.59307 1.40986 0.25 3.68933 0.25 6.71574H1.75ZM14.4432 15.3452C15.6762 14.241 16.9871 12.8995 17.995 11.4465C18.9955 10.004 19.75 8.37629 19.75 6.71571H18.25C18.25 7.93628 17.6856 9.26062 16.7625 10.5916C15.8467 11.9119 14.629 13.1652 13.4425 14.2278L14.4432 15.3452ZM19.75 6.71571C19.75 3.68932 18.4069 1.40985 16.2934 0.577901C14.1749 -0.255998 11.6132 0.493221 9.45082 2.81814L10.5492 3.83972C12.4366 1.81043 14.3749 1.43476 15.744 1.97366C17.118 2.51451 18.25 4.10554 18.25 6.71571H19.75ZM5.55679 15.3452C7.15486 16.7764 8.19273 17.75 10 17.75L10 16.25C8.86478 16.25 8.2549 15.7479 6.55749 14.2278L5.55679 15.3452ZM13.4425 14.2278C11.7451 15.748 11.1352 16.25 10 16.25L10 17.75C11.8073 17.75 12.8452 16.7764 14.4432 15.3452L13.4425 14.2278Z" fill="#EDC68C"/>
</svg>