<svg xmlns="http://www.w3.org/2000/svg" xmlns:xlink="http://www.w3.org/1999/xlink" viewBox="0 0 1501 1501" width="1501" height="1501" preserveAspectRatio="xMidYMid meet" style="width: 100%; height: 100%; transform: translate3d(0px, 0px, 0px); content-visibility: visible;"><defs><clipPath id="__lottie_element_23776"><rect width="1501" height="1501" x="0" y="0"></rect></clipPath></defs><g clip-path="url(#__lottie_element_23776)"><g transform="matrix(0.9898231029510498,-0.14230307936668396,0.14230307936668396,0.9898231029510498,-49.10496139526367,101.69214630126953)" opacity="1" style="display: block;"><g opacity="1" transform="matrix(1,0,0,1,635.9940185546875,507.9129943847656)"><path fill="rgb(237,236,236)" fill-opacity="1" d=" M66.61499786376953,-97.48699951171875 C52.47800064086914,-106.03600311279297 35.07699966430664,-104.68000030517578 22.53700065612793,-95.43099975585938 C22.53700065612793,-95.43099975585938 22.402000427246094,-95.5719985961914 22.402000427246094,-95.5719985961914 C22.402000427246094,-95.5719985961914 19.96500015258789,-93.36399841308594 19.96500015258789,-93.36399841308594 C19.77199935913086,-93.19499969482422 19.583999633789062,-93.02100372314453 19.395000457763672,-92.8479995727539 C19.395000457763672,-92.8479995727539 19.167999267578125,-92.64199829101562 19.167999267578125,-92.64199829101562 C-18.638999938964844,-58.38600158691406 -82.31099700927734,45.82400131225586 -86.13899993896484,52.111000061035156 C-86.18099975585938,52.17900085449219 -86.22200012207031,52.24700164794922 -86.26300048828125,52.316001892089844 C-86.26300048828125,52.316001892089844 -88.29199981689453,55.654998779296875 -88.29199981689453,55.654998779296875 C-88.29199981689453,55.654998779296875 -88.0979995727539,55.808998107910156 -88.0979995727539,55.808998107910156 C-88.18800354003906,56.005001068115234 -88.27400207519531,56.202999114990234 -88.36000061035156,56.400001525878906 C-88.40899658203125,56.513999938964844 -88.46299743652344,56.62699890136719 -88.51100158691406,56.74100112915039 C-90.47799682617188,61.4119987487793 -91.3290023803711,66.34600067138672 -91.15499877929688,71.20600128173828 C-91.15499877929688,71.21399688720703 -91.15399932861328,71.22200012207031 -91.15399932861328,71.23100280761719 C-91.13700103759766,71.7020034790039 -91.10800170898438,72.1729965209961 -91.0719985961914,72.64199829101562 C-91.06300354003906,72.75599670410156 -91.05599975585938,72.86900329589844 -91.0459976196289,72.98200225830078 C-91.01499938964844,73.34500122070312 -90.9739990234375,73.70600128173828 -90.93099975585938,74.06700134277344 C-90.90499877929688,74.28900146484375 -90.87999725341797,74.51100158691406 -90.8489990234375,74.73300170898438 C-90.81400299072266,74.98500061035156 -90.77300262451172,75.23699951171875 -90.73200225830078,75.48799896240234 C-90.68000030517578,75.81400299072266 -90.6259994506836,76.13999938964844 -90.56500244140625,76.46499633789062 C-90.53600311279297,76.61299896240234 -90.50399780273438,76.76100158691406 -90.4739990234375,76.90899658203125 C-90.38800048828125,77.33000183105469 -90.2969970703125,77.7509994506836 -90.19499969482422,78.16899871826172 C-90.18199920654297,78.2229995727539 -90.16799926757812,78.2760009765625 -90.15399932861328,78.33000183105469 C-89.2509994506836,81.97200012207031 -87.74800109863281,85.49400329589844 -85.63500213623047,88.73699951171875 C-85.56700134277344,88.84100341796875 -85.49500274658203,88.94100189208984 -85.427001953125,89.04399871826172 C-85.197998046875,89.38800048828125 -84.96700286865234,89.73100280761719 -84.7239990234375,90.06800079345703 C-84.53399658203125,90.33200073242188 -84.33399963378906,90.58999633789062 -84.13600158691406,90.8489990234375 C-84.00399780273438,91.02200317382812 -83.87699890136719,91.197998046875 -83.74099731445312,91.36900329589844 C-82.5999984741211,92.80500030517578 -81.33300018310547,94.15799713134766 -79.9469985961914,95.41400146484375 C-79.8759994506836,95.47899627685547 -79.802001953125,95.54100036621094 -79.7300033569336,95.60600280761719 C-79.31099700927734,95.97899627685547 -78.88200378417969,96.34300231933594 -78.44200134277344,96.697998046875 C-78.28700256347656,96.822998046875 -78.13099670410156,96.94599914550781 -77.9749984741211,97.06800079345703 C-77.61299896240234,97.3499984741211 -77.24299621582031,97.62300109863281 -76.86699676513672,97.89199829101562 C-76.6729965209961,98.03199768066406 -76.4800033569336,98.17400360107422 -76.28299713134766,98.30899810791016 C-75.91100311279297,98.56300354003906 -75.52799987792969,98.80699920654297 -75.14399719238281,99.04900360107422 C-74.9739990234375,99.15599822998047 -74.80999755859375,99.27300262451172 -74.63800048828125,99.37699890136719 C-73.6510009765625,99.9739990234375 -72.64199829101562,100.50900268554688 -71.61699676513672,100.99600219726562 C-71.5780029296875,101.01499938964844 -71.53800201416016,101.03299713134766 -71.4990005493164,101.052001953125 C-71.01699829101562,101.27899932861328 -70.53199768066406,101.49400329589844 -70.04299926757812,101.6969985961914 C-70.01200103759766,101.70999908447266 -69.98100280761719,101.7229995727539 -69.94999694824219,101.73600006103516 C-59.51300048828125,106.03500366210938 -47.61000061035156,104.88500213623047 -38.19599914550781,98.74400329589844 C-38.16299819946289,98.7229995727539 -38.13100051879883,98.70099639892578 -38.097999572753906,98.67900085449219 C-37.7140007019043,98.427001953125 -37.33399963378906,98.16600036621094 -36.95899963378906,97.89700317382812 C-36.847999572753906,97.81800079345703 -36.73899841308594,97.73899841308594 -36.62900161743164,97.65899658203125 C-36.41899871826172,97.50399780273438 -36.20899963378906,97.3479995727539 -36.000999450683594,97.18699645996094 C-36.000999450683594,97.18699645996094 -35.891998291015625,97.2750015258789 -35.891998291015625,97.2750015258789 C-35.891998291015625,97.2750015258789 -34.25199890136719,95.75199890136719 -34.25199890136719,95.75199890136719 C-34.18899917602539,95.6969985961914 -34.125999450683594,95.64099884033203 -34.0629997253418,95.58499908447266 C-34.02399826049805,95.55000305175781 -33.986000061035156,95.51300048828125 -33.946998596191406,95.47799682617188 C-33.58000183105469,95.14600372314453 -33.21699905395508,94.80799865722656 -32.86199951171875,94.45999908447266 C-22.163999557495117,84.46600341796875 -6.565999984741211,64.20600128173828 11.475000381469727,40.76499938964844 C30.909000396728516,15.51099967956543 52.91899871826172,-13.086000442504883 73.63099670410156,-35.05099868774414 C74.49800109863281,-35.88800048828125 75.3280029296875,-36.77199935913086 76.125,-37.698001861572266 C76.125,-37.698001861572266 76.83599853515625,-38.45199966430664 76.83599853515625,-38.45199966430664 C76.83599853515625,-38.45199966430664 76.79499816894531,-38.494998931884766 76.79499816894531,-38.494998931884766 C77.95700073242188,-39.91999816894531 79.04000091552734,-41.4370002746582 80.01799774169922,-43.05500030517578 C91.33000183105469,-61.75899887084961 85.31500244140625,-86.1780014038086 66.61499786376953,-97.48699951171875z"></path></g></g><g transform="matrix(0.9974396824836731,0.07151244580745697,-0.07151244580745697,0.9974396824836731,33.73340606689453,-56.51511001586914)" opacity="1" style="display: block;"><g opacity="1" transform="matrix(1,0,0,1,900.7150268554688,523.0009765625)"><path fill="rgb(237,236,236)" fill-opacity="1" d=" M73.23899841308594,72.36900329589844 C73.23899841308594,72.36900329589844 71.81600189208984,68.12200164794922 71.81600189208984,68.12200164794922 C71.81600189208984,68.12200164794922 71.81500244140625,68.11499786376953 71.81500244140625,68.11499786376953 C70.1449966430664,63.1349983215332 30.624000549316406,-54.36800003051758 1.0520000457763672,-96.52400207519531 C1.0520000457763672,-96.52400207519531 0.8989999890327454,-96.74199676513672 0.8989999890327454,-96.74199676513672 C0.7419999837875366,-96.96900177001953 0.5860000252723694,-97.19599914550781 0.42399999499320984,-97.41899871826172 C0.42399999499320984,-97.41899871826172 -1.4550000429153442,-100.09700012207031 -1.4550000429153442,-100.09700012207031 C-1.4550000429153442,-100.09700012207031 -1.6169999837875366,-99.98899841308594 -1.6169999837875366,-99.98899841308594 C-11.800999641418457,-111.77999877929688 -28.472999572753906,-116.95099639892578 -44.1510009765625,-111.73799896240234 C-64.88899993896484,-104.84300231933594 -76.1520004272461,-82.35900115966797 -69.25599670410156,-61.62099838256836 C-68.65899658203125,-59.82500076293945 -67.93800354003906,-58.10499954223633 -67.11799621582031,-56.457000732421875 C-67.11799621582031,-56.457000732421875 -67.16899871826172,-56.42399978637695 -67.16899871826172,-56.42399978637695 C-67.16899871826172,-56.42399978637695 -66.63300323486328,-55.518001556396484 -66.63300323486328,-55.518001556396484 C-66.06099700927734,-54.439998626708984 -65.4469985961914,-53.39400100708008 -64.78600311279297,-52.387001037597656 C-34.95600128173828,-1.8700000047683716 2.23799991607666,78.58300018310547 6.833000183105469,89.96900177001953 C7.236999988555908,91.15899658203125 7.704999923706055,92.31099700927734 8.223999977111816,93.4260025024414 C8.223999977111816,93.4260025024414 8.42300033569336,93.91999816894531 8.42300033569336,93.91999816894531 C8.42300033569336,93.91999816894531 8.456000328063965,93.90899658203125 8.456000328063965,93.90899658203125 C15.843999862670898,109.14900207519531 33.608001708984375,116.95099639892578 50.104000091552734,111.46600341796875 C66.5989990234375,105.98100280761719 76.1520004272461,89.09600067138672 72.94300079345703,72.46700286865234 C72.94300079345703,72.46700286865234 73.23899841308594,72.36900329589844 73.23899841308594,72.36900329589844z"></path></g></g><g transform="matrix(1,0,0,1,-1.5,4.5)" opacity="1" style="display: block;"><g opacity="1" transform="matrix(1,0,0,1,834.8499755859375,1314.8499755859375)"><path fill="rgb(181,130,75)" fill-opacity="1" d=" M8.850000381469727,-29.850000381469727 C8.850000381469727,-29.850000381469727 4.449999809265137,-8.75 4.449999809265137,-8.75 C4.449999809265137,-8.75 -51.75,5.25 -45.25,34.849998474121094 C-45.25,34.849998474121094 12.149999618530273,39.04999923706055 51.04999923706055,28.950000762939453 C51.04999923706055,28.950000762939453 51.75,-21.25 48.45000076293945,-39.04999923706055 C48.45000076293945,-39.04999923706055 8.850000381469727,-29.850000381469727 8.850000381469727,-29.850000381469727z"></path></g><g opacity="1" transform="matrix(1,0,0,1,703.6500244140625,1314.8499755859375)"><path fill="rgb(181,130,75)" fill-opacity="1" d=" M8.850000381469727,-29.850000381469727 C8.850000381469727,-29.850000381469727 4.449999809265137,-8.75 4.449999809265137,-8.75 C4.449999809265137,-8.75 -51.75,5.25 -45.25,34.849998474121094 C-45.25,34.849998474121094 12.149999618530273,39.04999923706055 51.04999923706055,28.950000762939453 C51.04999923706055,28.950000762939453 51.75,-21.25 48.45000076293945,-39.04999923706055 C48.45000076293945,-39.04999923706055 8.850000381469727,-29.850000381469727 8.850000381469727,-29.850000381469727z"></path></g><g opacity="1" transform="matrix(1,0,0,1,778.0499877929688,971.5499877929688)"><path fill="rgb(65,65,64)" fill-opacity="1" d=" M33.849998474121094,110.6500015258789 C38.75,138.35000610351562 59.650001525878906,318.25 59.150001525878906,318.45001220703125 C76.25,314.45001220703125 93.1500015258789,310.95001220703125 110.25,307.25 C111.44999694824219,160.0500030517578 115.44999694824219,54.45000076293945 106.55000305175781,-100.55000305175781 C102.1500015258789,-179.75 95.05000305175781,-254.75 79.3499984741211,-319.6499938964844 C79.1500015258789,-319.8500061035156 -26.149999618530273,-304.8500061035156 -104.6500015258789,-314.45001220703125 C-115.44999694824219,-143.64999389648438 -83.3499984741211,135.25 -71.55000305175781,315.8500061035156 C-54.25,317.04998779296875 -37.150001525878906,318.45001220703125 -19.75,319.8500061035156 C-16.950000762939453,220.0500030517578 -7.349999904632568,-90.75 -3.75,-189.35000610351562 C2.1500000953674316,-156.14999389648438 26.350000381469727,74.3499984741211 33.849998474121094,110.6500015258789z"></path></g></g><g transform="matrix(0.9998250007629395,0.0187064278870821,-0.0187064278870821,0.9998250007629395,12.67047119140625,-9.4078369140625)" opacity="1" style="display: block;"><g opacity="1" transform="matrix(1,0,0,1,761.1500244140625,368.25)"><path fill="rgb(194,190,190)" fill-opacity="1" d=" M-35.349998474121094,16.649999618530273 C-35.349998474121094,16.649999618530273 -33.45000076293945,-5.650000095367432 -13.850000381469727,-14.449999809265137 C7.449999809265137,-24.25 39.75,-21.950000762939453 39.54999923706055,-4.849999904632568 C39.54999923706055,-4.849999904632568 39.349998474121094,19.049999237060547 39.349998474121094,19.049999237060547 C39.349998474121094,19.049999237060547 -30.75,24.25 -35.150001525878906,22.350000381469727 C-39.75,20.549999237060547 -35.349998474121094,16.649999618530273 -35.349998474121094,16.649999618530273z"></path></g><g opacity="1" transform="matrix(1,0,0,1,770.3330078125,355.3240051269531)"><path fill="rgb(253,208,180)" fill-opacity="1" d=" M-29.86199951171875,30.968000411987305 C-27.917999267578125,29.56599998474121 -26.732999801635742,28.576000213623047 -26.732999801635742,28.576000213623047 C-26.732999801635742,28.576000213623047 -21.33300018310547,2.0759999752044678 -21.33300018310547,2.0759999752044678 C-21.33300018310547,2.0759999752044678 -14.833000183105469,-29.12299919128418 -14.833000183105469,-29.12299919128418 C-14.833000183105469,-29.12299919128418 33.867000579833984,-45.222999572753906 33.867000579833984,-45.222999572753906 C33.867000579833984,-45.222999572753906 27.06800079345703,-4.923999786376953 27.06800079345703,-4.923999786376953 C24.886999130249023,7.9039998054504395 26.082000732421875,31.309999465942383 11.093999862670898,35.93000030517578 C10.458999633789062,37.99700164794922 15.097000122070312,36.64799880981445 13.354999542236328,37.93000030517578 C7.73799991607666,42.06399917602539 0.6439999938011169,43.617000579833984 -6.284999847412109,44.4119987487793 C-11.484000205993652,45.00699996948242 -16.829999923706055,45.2239990234375 -21.875,43.83100128173828 C-26.920000076293945,42.4379997253418 -31.66900062561035,39.224998474121094 -33.867000579833984,34.47600173950195 C-33.21699905395508,33.51900100708008 -30.801000595092773,31.645000457763672 -29.86199951171875,30.968000411987305z"></path></g><g opacity="1" transform="matrix(1,0,0,1,777.0499877929688,334.79998779296875)"><path fill="rgb(247,190,159)" fill-opacity="1" d=" M27.75,-24.399999618530273 C27.75,-24.399999618530273 20.395000457763672,12.293000221252441 20.395000457763672,12.293000221252441 C10.795000076293945,17.69300079345703 -0.15000000596046448,24.399999618530273 -12.550000190734863,24.399999618530273 C-17.75,24.399999618530273 -22.850000381469727,23.899999618530273 -27.75,22.799999237060547 C-27.75,22.799999237060547 -21.25,-8.399999618530273 -21.25,-8.399999618530273 C-21.25,-8.399999618530273 27.75,-24.399999618530273 27.75,-24.399999618530273z"></path></g><g opacity="1" transform="matrix(1,0,0,1,766.72998046875,541.8300170898438)"><path fill="rgb(238,237,237)" fill-opacity="1" d=" M113.47000122070312,-131.6300048828125 C113.47000122070312,-131.6300048828125 109.2699966430664,-124.62999725341797 106.16999816894531,-85.02999877929688 C105.58999633789062,-73.20999908447266 104.91000366210938,-58.41999816894531 104.43000030517578,-40.119998931884766 C104.23999786376953,-33.029998779296875 104.08000183105469,-25.40999984741211 103.97000122070312,-17.229999542236328 C103.94000244140625,-15.119999885559082 103.91000366210938,-13.010000228881836 103.87999725341797,-10.920000076293945 C103.76000213623047,-1.8600000143051147 103.68000030517578,7 103.62000274658203,15.619999885559082 C103.55000305175781,25.690000534057617 103.51000213623047,35.439998626708984 103.48999786376953,44.81999969482422 C103.47000122070312,55.41999816894531 103.47000122070312,65.5199966430664 103.47000122070312,75.06999969482422 C103.47000122070312,127.06999969482422 104.16999816894531,161.27000427246094 104.16999816894531,161.27000427246094 C104.16999816894531,161.27000427246094 40.869998931884766,162.6699981689453 40.869998931884766,162.6699981689453 C19.739999771118164,164.22999572753906 6.090000152587891,164.0399932861328 -7.619999885559082,163.02000427246094 C-21.110000610351562,162.02000427246094 -34.65999984741211,160.2100067138672 -55.43000030517578,158.47000122070312 C-55.43000030517578,158.47000122070312 -99.43000030517578,154.27000427246094 -99.43000030517578,154.27000427246094 C-99.43000030517578,154.27000427246094 -106.33999633789062,104.45999908447266 -110.44000244140625,44.81999969482422 C-111.0999984741211,35.279998779296875 -111.68000030517578,25.5 -112.16000366210938,15.619999885559082 C-112.58000183105469,6.809999942779541 -112.91000366210938,-2.0799999237060547 -113.12999725341797,-10.920000076293945 C-113.37000274658203,-20.760000228881836 -113.47000122070312,-30.549999237060547 -113.37999725341797,-40.119998931884766 C-113.0199966430664,-78.55999755859375 -109.68000030517578,-113.4800033569336 -100.83000183105469,-134.42999267578125 C-102.70999908447266,-135.16000366210938 -83.68000030517578,-145.1999969482422 -63.4900016784668,-152.61000061035156 C-50.400001525878906,-157.41000366210938 -36.81999969482422,-161.10000610351562 -28.1299991607666,-160.42999267578125 C-28.1299991607666,-160.42999267578125 -26.31999969482422,-157.77999877929688 -27.020000457763672,-150.27999877929688 C-27.690000534057617,-139.0800018310547 -15.800000190734863,-142.60000610351562 -6.449999809265137,-141.64999389648438 C0.8299999833106995,-140.91000366210938 6.159999847412109,-142.30999755859375 19.670000076293945,-149.42999267578125 C23.3700008392334,-153.6300048828125 27.8700008392334,-158.52999877929688 32.369998931884766,-164.22999572753906 C32.369998931884766,-164.22999572753906 69.58999633789062,-149.27000427246094 69.58999633789062,-149.27000427246094 C69.58999633789062,-149.27000427246094 113.47000122070312,-131.6300048828125 113.47000122070312,-131.6300048828125z"></path></g><g opacity="1" transform="matrix(1,0,0,1,766.72998046875,547.6400146484375)"><path fill="rgb(255,154,54)" fill-opacity="1" d=" M113.47000122070312,-137.44000244140625 C113.47000122070312,-137.44000244140625 109.2699966430664,-130.44000244140625 106.16999816894531,-90.83999633789062 C105.58999633789062,-79.0199966430664 104.91000366210938,-64.2300033569336 104.43000030517578,-45.93000030517578 C104.23999786376953,-38.84000015258789 104.08000183105469,-31.219999313354492 103.97000122070312,-23.040000915527344 C103.94000244140625,-20.93000030517578 103.91000366210938,-18.81999969482422 103.87999725341797,-16.729999542236328 C103.76000213623047,-7.670000076293945 103.68000030517578,1.190000057220459 103.62000274658203,9.8100004196167 C103.55000305175781,19.8799991607666 103.51000213623047,29.6299991607666 103.48999786376953,39.0099983215332 C103.47000122070312,49.61000061035156 103.47000122070312,59.709999084472656 103.47000122070312,69.26000213623047 C103.47000122070312,121.26000213623047 104.16999816894531,155.4600067138672 104.16999816894531,155.4600067138672 C104.16999816894531,155.4600067138672 40.869998931884766,156.86000061035156 40.869998931884766,156.86000061035156 C19.739999771118164,158.4199981689453 6.090000152587891,158.22999572753906 -7.619999885559082,157.2100067138672 C-21.110000610351562,156.2100067138672 -34.65999984741211,154.39999389648438 -55.43000030517578,152.66000366210938 C-55.43000030517578,152.66000366210938 -99.43000030517578,148.4600067138672 -99.43000030517578,148.4600067138672 C-99.43000030517578,148.4600067138672 -106.33999633789062,98.6500015258789 -110.44000244140625,39.0099983215332 C-111.0999984741211,29.469999313354492 -111.68000030517578,19.690000534057617 -112.16000366210938,9.8100004196167 C-112.58000183105469,1 -112.91000366210938,-7.889999866485596 -113.12999725341797,-16.729999542236328 C-113.37000274658203,-26.56999969482422 -113.47000122070312,-36.36000061035156 -113.37999725341797,-45.93000030517578 C-113.0199966430664,-84.37000274658203 -109.68000030517578,-119.29000091552734 -100.83000183105469,-140.24000549316406 C-102.70999908447266,-140.97000122070312 -83.68000030517578,-151.00999450683594 -63.4900016784668,-158.4199981689453 C-63.130001068115234,-147.44000244140625 -59.060001373291016,-85.05000305175781 -13.079999923706055,-77.77999877929688 C-13.079999923706055,-77.77999877929688 -12.239999771118164,-77.55999755859375 -10.710000038146973,-77.33000183105469 C0.4399999976158142,-75.61000061035156 48.06999969482422,-73.43000030517578 69.58999633789062,-155.0800018310547 C69.58999633789062,-155.0800018310547 113.47000122070312,-137.44000244140625 113.47000122070312,-137.44000244140625z"></path></g><g opacity="1" transform="matrix(1,0,0,1,765.5570068359375,406.9949951171875)"><path fill="rgb(3,3,3)" fill-opacity="0.15" d=" M52.643001556396484,-20.4950008392334 C51.042999267578125,-3.3949999809265137 40.51499938964844,20.392000198364258 22.597999572753906,27.691999435424805 C14.39799976348877,21.79199981689453 3.200000047683716,0.41200000047683716 -6.599999904632568,1.812000036239624 C-23.5,3.9119999408721924 -29.26099967956543,28.165000915527344 -43.76100158691406,19.065000534057617 C-44.46099853515625,8.96500015258789 -55.457000732421875,-3.0950000286102295 -51.957000732421875,-12.694999694824219 C-50.55699920654297,-16.69499969482422 -50.55699920654297,-18.795000076293945 -48.856998443603516,-21.795000076293945 C-41.15700149536133,-24.895000457763672 -34.856998443603516,-27.395000457763672 -34.356998443603516,-27.69499969482422 C-34.356998443603516,-27.69499969482422 -28.899999618530273,-11.387999534606934 -6.599999904632568,-5.48799991607666 C6.800000190734863,-1.9880000352859497 17.94300079345703,-9.095000267028809 38.34299850463867,-27.395000457763672 C38.34299850463867,-27.395000457763672 52.643001556396484,-20.4950008392334 52.643001556396484,-20.4950008392334z"></path></g><g opacity="1" transform="matrix(1,0,0,1,759.5999755859375,393.8999938964844)"><path fill="rgb(238,237,237)" fill-opacity="1" d=" M-12.699999809265137,-40.20000076293945 C-12.699999809265137,-40.20000076293945 -22.5,-11.399999618530273 -10.800000190734863,1 C0.8999999761581421,13.399999618530273 37.900001525878906,-3.200000047683716 39.400001525878906,-36 C39.400001525878906,-36 48.79999923706055,-19.100000381469727 50.400001525878906,-2.5 C50.400001525878906,-2.5 36.599998474121094,40.20000076293945 26.299999237060547,39.400001525878906 C26.299999237060547,39.400001525878906 31.200000762939453,7.800000190734863 -3.9000000953674316,7.800000190734863 C-39,7.800000190734863 -34.099998474121094,33.400001525878906 -34.099998474121094,33.400001525878906 C-34.099998474121094,33.400001525878906 -50.400001525878906,-23.100000381469727 -12.699999809265137,-40.20000076293945z"></path></g><g opacity="1" transform="matrix(1,0,0,1,396.6050109863281,254.0500030517578)"><path fill="rgb(1,1,1)" fill-opacity="1" d=" M396.6050109863281,254.0500030517578 C396.6050109863281,254.0500030517578 396.6940002441406,254.0500030517578 396.6940002441406,254.0500030517578 C396.6940002441406,254.0500030517578 396.6050109863281,254.0500030517578 396.6050109863281,254.0500030517578z M-396.6050109863281,-254.0500030517578 C-396.6050109863281,-254.0500030517578 1104.39501953125,-254.0500030517578 1104.39501953125,-254.0500030517578 C1104.39501953125,-254.0500030517578 1104.39501953125,1246.949951171875 1104.39501953125,1246.949951171875 C1104.39501953125,1246.949951171875 -396.6050109863281,1246.949951171875 -396.6050109863281,1246.949951171875 C-396.6050109863281,1246.949951171875 -396.6050109863281,-254.0500030517578 -396.6050109863281,-254.0500030517578z M-396.6050109863281,1246.949951171875 C-396.6050109863281,1246.949951171875 1104.39501953125,1246.949951171875 1104.39501953125,1246.949951171875 C1104.39501953125,1246.949951171875 1104.39501953125,-254.0500030517578 1104.39501953125,-254.0500030517578 C1104.39501953125,-254.0500030517578 -396.6050109863281,-254.0500030517578 -396.6050109863281,-254.0500030517578 C-396.6050109863281,-254.0500030517578 -396.6050109863281,1246.949951171875 -396.6050109863281,1246.949951171875z M396.6940002441406,254.0500030517578 C396.6940002441406,254.0500030517578 396.6940002441406,254.0500030517578 396.6940002441406,254.0500030517578 C396.4939880371094,254.0500030517578 396.6940002441406,254.0500030517578 396.6940002441406,254.0500030517578z"></path><g opacity="1" transform="matrix(1,0,0,1,0,0)"></g></g><g opacity="1" transform="matrix(1,0,0,1,759.2890014648438,409.9530029296875)"><path fill="rgb(238,237,237)" fill-opacity="1" d=" M-10.831000328063965,-10.798999786376953 C-10.831000328063965,-10.798999786376953 -13.604000091552734,1.5080000162124634 -13.604000091552734,1.5080000162124634 C-13.604000091552734,1.5080000162124634 -0.9950000047683716,10.798999786376953 -0.9950000047683716,10.798999786376953 C-0.9950000047683716,10.798999786376953 13.604000091552734,2.8359999656677246 13.604000091552734,2.8359999656677246 C13.604000091552734,2.8359999656677246 9.621000289916992,-9.77299976348877 9.621000289916992,-9.77299976348877 C9.621000289916992,-9.77299976348877 -10.831000328063965,-10.798999786376953 -10.831000328063965,-10.798999786376953z"></path></g><g opacity="1" transform="matrix(1,0,0,1,762.2100219726562,516.3099975585938)"><path fill="rgb(238,237,237)" fill-opacity="1" d=" M108.94999694824219,-14.600000381469727 C108.76000213623047,-7.510000228881836 108.5999984741211,0.10999999940395355 108.48999786376953,8.289999961853027 C108.45999908447266,10.399999618530273 108.43000030517578,12.510000228881836 108.4000015258789,14.600000381469727 C108.4000015258789,14.600000381469727 -108.61000061035156,14.600000381469727 -108.61000061035156,14.600000381469727 C-108.8499984741211,4.760000228881836 -108.94999694824219,-5.03000020980835 -108.86000061035156,-14.600000381469727 C-108.86000061035156,-14.600000381469727 108.94999694824219,-14.600000381469727 108.94999694824219,-14.600000381469727z"></path></g><g opacity="1" transform="matrix(1,0,0,1,762.4600219726562,572.0499877929688)"><path fill="rgb(238,237,237)" fill-opacity="1" d=" M107.88999938964844,-14.600000381469727 C107.81999969482422,-4.53000020980835 107.77999877929688,5.21999979019165 107.76000213623047,14.600000381469727 C107.76000213623047,14.600000381469727 -106.16999816894531,14.600000381469727 -106.16999816894531,14.600000381469727 C-106.83000183105469,5.059999942779541 -107.41000366210938,-4.71999979019165 -107.88999938964844,-14.600000381469727 C-107.88999938964844,-14.600000381469727 107.88999938964844,-14.600000381469727 107.88999938964844,-14.600000381469727z"></path></g></g><g transform="matrix(0.9498337507247925,0.017771106213331223,-0.017771106213331223,0.9498337507247925,51.76616668701172,7.226408004760742)" opacity="1" style="display: block;"><g opacity="1" transform="matrix(1,0,0,1,762.343994140625,238.78599548339844)"><path fill="rgb(96,97,97)" fill-opacity="1" d=" M15.75,-69.0999984741211 C-4.849999904632568,-68.19999694824219 -26.450000762939453,-71.69999694824219 -45.849998474121094,-64.19999694824219 C-50.04999923706055,-62.599998474121094 -54.25,-60.5 -57.04999923706055,-57.20000076293945 C-61.75,-52.29999923706055 -63.650001525878906,-45.70000076293945 -64.75,-39.400001525878906 C-67.75,-23.200000762939453 -67.05000305175781,-6.599999904632568 -65.94999694824219,9.800000190734863 C-64.55000305175781,25.5 -62.25,52 -43.95000076293945,57.79999923706055 C-24.450000762939453,63.70000076293945 -4.849999904632568,69.80000305175781 15.350000381469727,71.19999694824219 C21.450000762939453,71.69999694824219 27.75,71.69999694824219 33.349998474121094,69.5999984741211 C40.849998474121094,67 46.45000076293945,60.900001525878906 49.95000076293945,54.099998474121094 C53.45000076293945,47.29999923706055 55.150001525878906,39.79999923706055 56.75,32.29999923706055 C60.04999923706055,17.5 62.650001525878906,2.5 64.94999694824219,-12.5 C67.25,-27.5 67.75,-43.400001525878906 62.349998474121094,-57.70000076293945 C61.650001525878906,-59.599998474121094 60.75,-61.70000076293945 59.04999923706055,-62.900001525878906 C57.650001525878906,-64.30000305175781 55.54999923706055,-64.80000305175781 53.45000076293945,-65.19999694824219 C42.25,-68.19999694824219 27.75,-69.5999984741211 15.75,-69.0999984741211z"></path></g><g opacity="1" transform="matrix(1,0,0,1,753.593994140625,278.1860046386719)"><path fill="rgb(252,207,179)" fill-opacity="1" d=" M46.099998474121094,-70.80000305175781 C46.099998474121094,-70.80000305175781 37.900001525878906,-32.099998474121094 53.79999923706055,6.099999904632568 C53.79999923706055,6.099999904632568 50.79999923706055,71.30000305175781 -2.700000047683716,74.5 C-2.700000047683716,74.5 -51.900001525878906,75 -53.79999923706055,26 C-53.79999923706055,26 -51,-75 -51,-75 C-51,-75 46.099998474121094,-70.80000305175781 46.099998474121094,-70.80000305175781z"></path></g><g opacity="1" transform="matrix(1,0,0,1,717.2440185546875,245.63600158691406)"><path fill="rgb(3,3,3)" fill-opacity="1" d=" M10.949999809265137,5.849999904632568 C10.449999809265137,5.849999904632568 10.050000190734863,5.650000095367432 9.75,5.150000095367432 C5.25,-0.44999998807907104 -4.050000190734863,-2.3499999046325684 -10.449999809265137,1.4500000476837158 C-11.149999618530273,1.9500000476837158 -12.350000381469727,1.649999976158142 -12.550000190734863,0.75 C-13.050000190734863,0.05000000074505806 -12.75,-1.149999976158142 -11.850000381469727,-1.350000023841858 C-4.150000095367432,-5.849999904632568 7.150000095367432,-3.6500000953674316 12.550000190734863,3.3499999046325684 C13.050000190734863,4.050000190734863 13.050000190734863,4.949999809265137 12.350000381469727,5.650000095367432 C11.649999618530273,5.550000190734863 11.25,5.849999904632568 10.949999809265137,5.849999904632568z"></path></g><g opacity="1" transform="matrix(1,0,0,1,775.6939697265625,249.43600463867188)"><path fill="rgb(3,3,3)" fill-opacity="1" d=" M-12.600000381469727,5.050000190734863 C-13.100000381469727,5.050000190734863 -13.5,4.849999904632568 -13.800000190734863,4.550000190734863 C-14.5,3.8499999046325684 -14.300000190734863,2.950000047683716 -13.600000381469727,2.25 C-6.300000190734863,-4.349999904632568 5.599999904632568,-5.050000190734863 13.600000381469727,0.3499999940395355 C14.300000190734863,0.8500000238418579 14.5,1.75 14.100000381469727,2.6500000953674316 C13.600000381469727,3.3499999046325684 12.699999809265137,3.549999952316284 11.800000190734863,3.1500000953674316 C5,-1.5499999523162842 -5.099999904632568,-0.8500000238418579 -11.199999809265137,4.550000190734863 C-11.899999618530273,4.849999904632568 -12.100000381469727,5.050000190734863 -12.600000381469727,5.050000190734863z"></path></g><g opacity="1" transform="matrix(1,0,0,1,738.9290161132812,279.63299560546875)"><path fill="rgb(3,3,3)" fill-opacity="1" d=" M0.9649999737739563,15.652999877929688 C0.7649999856948853,15.652999877929688 0.4650000035762787,15.652999877929688 0.06499999761581421,15.45300006866455 C-1.3350000381469727,14.553000450134277 -8.135000228881836,10.253000259399414 -6.235000133514404,6.052999973297119 C-6.235000133514404,6.052999973297119 -6.235000133514404,5.853000164031982 -6.034999847412109,5.853000164031982 C-4.635000228881836,3.953000068664551 -2.734999895095825,-0.44699999690055847 -1.1349999904632568,-4.646999835968018 C0.4650000035762787,-8.847000122070312 2.1649999618530273,-12.847000122070312 3.565000057220459,-14.946999549865723 C4.065000057220459,-15.647000312805176 4.965000152587891,-15.847000122070312 5.864999771118164,-15.446999549865723 C6.565000057220459,-14.946999549865723 6.764999866485596,-14.04699993133545 6.364999771118164,-13.147000312805176 C5.164999961853027,-11.04699993133545 3.365000009536743,-7.046999931335449 1.8650000095367432,-3.3469998836517334 C-0.03500000014901161,1.152999997138977 -1.8350000381469727,5.552999973297119 -3.3350000381469727,7.6529998779296875 C-3.5350000858306885,8.553000450134277 -1.2350000143051147,11.152999877929688 1.565000057220459,12.852999687194824 C2.265000104904175,13.352999687194824 2.4649999141693115,14.253000259399414 2.065000057220459,14.95300006866455 C2.1649999618530273,15.352999687194824 1.465000033378601,15.652999877929688 0.9649999737739563,15.652999877929688z"></path></g><g opacity="1" transform="matrix(1,0,0,1,813.5440063476562,296.135986328125)"><path fill="rgb(252,207,179)" fill-opacity="1" d=" M-18.049999237060547,16.25 C-17.149999618530273,16.75 -16.450000762939453,17.450000762939453 -15.449999809265137,17.850000381469727 C-9.550000190734863,20.850000381469727 -1.350000023841858,19.450000762939453 4.25,16.649999618530273 C9.850000381469727,13.649999618530273 13.350000381469727,8.449999809265137 15.449999809265137,3.25 C17.049999237060547,-0.25 18.049999237060547,-4.050000190734863 18.049999237060547,-7.75 C17.850000381469727,-11.449999809265137 15.75,-15.449999809265137 11.949999809265137,-17.850000381469727 C8.149999618530273,-20.25 1.850000023841858,-20.850000381469727 -2.1500000953674316,-18.549999237060547 C-4.75,-17.149999618530273 -6.349999904632568,-15.050000190734863 -7.75,-12.949999809265137 C-10.050000190734863,-9.949999809265137 -12.449999809265137,-6.150000095367432 -10.75,-2.6500000953674316"></path></g><g opacity="1" transform="matrix(1,0,0,1,813.677978515625,293.8550109863281)"><path fill="rgb(3,3,3)" fill-opacity="0.2" d=" M-8.385000228881836,3.7309999465942383 C-8.885000228881836,8.630999565124512 -3.184999942779541,12.430999755859375 1.715000033378601,7.230999946594238 C2.9149999618530273,5.830999851226807 3.815000057220459,3.930999994277954 2.4149999618530273,2.5309998989105225 C1.5149999856948853,1.13100004196167 -1.784999966621399,0.9309999942779541 -2.7850000858306885,2.3310000896453857 C-2.984999895095825,-2.86899995803833 1.9149999618530273,-7.968999862670898 8.414999961853027,-9.168999671936035 C7.215000152587891,-10.069000244140625 5.414999961853027,-9.668999671936035 4.215000152587891,-9.369000434875488 C-2.2850000858306885,-7.269000053405762 -7.684999942779541,-1.86899995803833 -8.385000228881836,3.7309999465942383z"></path></g><g opacity="1" transform="matrix(1,0,0,1,760.2440185546875,185.875)"><path fill="rgb(34,31,31)" fill-opacity="1" d=" M-43.04999923706055,31.309999465942383 C-43.04999923706055,31.309999465942383 -70.75,42.51100158691406 -78.25,20.111000061035156 C-78.25,20.111000061035156 -78.9489974975586,7.921000003814697 -63.96900177001953,8.40999984741211 C-78.01699829101562,7.952000141143799 -78.7770004272461,-7.966000080108643 -72.64099884033203,-18.320999145507812 C-66.78600311279297,-28.200000762939453 -52.83100128173828,-29.031999588012695 -44.56800079345703,-21.972000122070312 C-41.19599914550781,-42.51499938964844 -18.85300064086914,-49.709999084472656 -0.550000011920929,-48.98899841308594 C-0.550000011920929,-48.98899841308594 18.649999618530273,-47.38999938964844 26.450000762939453,-35.189998626708984 C26.450000762939453,-35.189998626708984 49.14899826049805,-46.18899917602539 62.04899978637695,-26.98900032043457 C74.9489974975586,-7.789000034332275 58.54899978637695,-2.3889999389648438 58.54899978637695,-2.3889999389648438 C58.54899978637695,-2.3889999389648438 78.9489974975586,-6.589000225067139 76.14900207519531,16.611000061035156 C73.3489990234375,39.81100082397461 42.64899826049805,33.51100158691406 42.64899826049805,33.51100158691406 C42.64899826049805,33.51100158691406 33.249000549316406,49.71099853515625 9.64900016784668,38.4109992980957 C9.64900016784668,38.4109992980957 1.6490000486373901,36.111000061035156 -0.6510000228881836,28.111000061035156 C-0.6510000228881836,28.111000061035156 -4.849999904632568,41.209999084472656 -25.25,39.810001373291016 C-25.25,39.810001373291016 -34.349998474121094,39.810001373291016 -43.04999923706055,31.309999465942383z"></path></g><g opacity="1" transform="matrix(1,0,0,1,714.6439819335938,262.9859924316406)"><path fill="rgb(3,3,3)" fill-opacity="1" d=" M-0.05000000074505806,25.5 C-14.149999618530273,25.5 -25.549999237060547,14 -25.549999237060547,0 C-25.549999237060547,-14 -14.050000190734863,-25.5 -0.05000000074505806,-25.5 C13.949999809265137,-25.5 25.450000762939453,-14 25.450000762939453,0 C25.549999237060547,14 14.050000190734863,25.5 -0.05000000074505806,25.5z M-0.05000000074505806,-22.299999237060547 C-12.25,-22.299999237060547 -22.350000381469727,-12.199999809265137 -22.350000381469727,0 C-22.350000381469727,12.199999809265137 -12.25,22.299999237060547 -0.05000000074505806,22.299999237060547 C12.149999618530273,22.299999237060547 22.25,12.199999809265137 22.25,0 C22.25,-12.199999809265137 12.149999618530273,-22.299999237060547 -0.05000000074505806,-22.299999237060547z"></path></g><g opacity="1" transform="matrix(1,0,0,1,775.7940063476562,266.4859924316406)"><path fill="rgb(3,3,3)" fill-opacity="1" d=" M0,25.5 C-14.100000381469727,25.5 -25.5,14 -25.5,0 C-25.5,-14 -14,-25.5 0,-25.5 C14.100000381469727,-25.5 25.5,-14 25.5,0 C25.5,14 14.100000381469727,25.5 0,25.5z M0,-22.299999237060547 C-12.199999809265137,-22.299999237060547 -22.299999237060547,-12.199999809265137 -22.299999237060547,0 C-22.299999237060547,12.199999809265137 -12.199999809265137,22.299999237060547 0,22.299999237060547 C12.199999809265137,22.299999237060547 22.299999237060547,12.199999809265137 22.299999237060547,0 C22.299999237060547,-12.199999809265137 12.199999809265137,-22.299999237060547 0,-22.299999237060547z"></path></g><g opacity="1" transform="matrix(1,0,0,1,745.4940185546875,261.635986328125)"><path fill="rgb(3,3,3)" fill-opacity="1" d=" M6.900000095367432,4.550000190734863 C6.400000095367432,4.550000190734863 6,4.349999904632568 5.699999809265137,4.050000190734863 C1,-1.850000023841858 -5.800000190734863,3.549999952316284 -6,3.8499999046325684 C-6.699999809265137,4.349999904632568 -7.599999904632568,4.349999904632568 -8.300000190734863,3.6500000953674316 C-8.800000190734863,2.950000047683716 -8.800000190734863,2.049999952316284 -8.100000381469727,1.350000023841858 C-4.800000190734863,-1.25 2.700000047683716,-4.550000190734863 8.300000190734863,2.049999952316284 C8.800000190734863,2.75 8.800000190734863,3.6500000953674316 8.100000381469727,4.349999904632568 C7.599999904632568,4.349999904632568 7.300000190734863,4.550000190734863 6.900000095367432,4.550000190734863z"></path></g></g><g transform="matrix(0.9446717500686646,-0.1004750207066536,0.1004750207066536,0.9446717500686646,846.640380859375,802.258056640625)" opacity="1" style="display: block;"><g opacity="1" transform="matrix(1,0,0,1,-13.142000198364258,-561.5960083007812)"><path fill="rgb(0,0,0)" fill-opacity="1" d=" M0,-5.6539998054504395 C2.267204999923706,-5.6539998054504395 4.107999801635742,-3.1204423904418945 4.107999801635742,0 C4.107999801635742,3.1204423904418945 2.267204999923706,5.6539998054504395 0,5.6539998054504395 C-2.267204999923706,5.6539998054504395 -4.107999801635742,3.1204423904418945 -4.107999801635742,0 C-4.107999801635742,-3.1204423904418945 -2.267204999923706,-5.6539998054504395 0,-5.6539998054504395z"></path><path stroke-linecap="butt" stroke-linejoin="miter" fill-opacity="0" stroke-miterlimit="4" stroke="rgb(0,0,0)" stroke-opacity="1" stroke-width="2" d=" M0,-5.6539998054504395 C2.267204999923706,-5.6539998054504395 4.107999801635742,-3.1204423904418945 4.107999801635742,0 C4.107999801635742,3.1204423904418945 2.267204999923706,5.6539998054504395 0,5.6539998054504395 C-2.267204999923706,5.6539998054504395 -4.107999801635742,3.1204423904418945 -4.107999801635742,0 C-4.107999801635742,-3.1204423904418945 -2.267204999923706,-5.6539998054504395 0,-5.6539998054504395z"></path></g></g><g transform="matrix(0.9446717500686646,-0.1004750207066536,0.1004750207066536,0.9446717500686646,798.2247314453125,799.2542724609375)" opacity="1" style="display: block;"><g opacity="1" transform="matrix(1,0,0,1,-13.142000198364258,-561.5960083007812)"><path fill="rgb(0,0,0)" fill-opacity="1" d=" M0,-5.6539998054504395 C2.267204999923706,-5.6539998054504395 4.107999801635742,-3.1204423904418945 4.107999801635742,0 C4.107999801635742,3.1204423904418945 2.267204999923706,5.6539998054504395 0,5.6539998054504395 C-2.267204999923706,5.6539998054504395 -4.107999801635742,3.1204423904418945 -4.107999801635742,0 C-4.107999801635742,-3.1204423904418945 -2.267204999923706,-5.6539998054504395 0,-5.6539998054504395z"></path><path stroke-linecap="butt" stroke-linejoin="miter" fill-opacity="0" stroke-miterlimit="4" stroke="rgb(0,0,0)" stroke-opacity="1" stroke-width="2" d=" M0,-5.6539998054504395 C2.267204999923706,-5.6539998054504395 4.107999801635742,-3.1204423904418945 4.107999801635742,0 C4.107999801635742,3.1204423904418945 2.267204999923706,5.6539998054504395 0,5.6539998054504395 C-2.267204999923706,5.6539998054504395 -4.107999801635742,3.1204423904418945 -4.107999801635742,0 C-4.107999801635742,-3.1204423904418945 -2.267204999923706,-5.6539998054504395 0,-5.6539998054504395z"></path></g></g><g transform="matrix(0.6626019477844238,-0.06880214065313339,0.06880214065313339,0.6626019477844238,190.1433868408203,162.75534057617188)" opacity="1" style="display: block;"><g opacity="1" transform="matrix(1,0,0,1,813.75,318.8500061035156)"><path fill="rgb(244,134,125)" fill-opacity="1" d=" M10.050000190734863,-4.449999809265137 C10.050000190734863,-4.449999809265137 9.350000381469727,-0.44999998807907104 7.25,2.549999952316284 C5.349999904632568,5.650000095367432 2.049999952316284,7.75 -2.8499999046325684,6.349999904632568 C-4.949999809265137,5.349999904632568 -6.349999904632568,4.25 -7.25,2.549999952316284 C-10.050000190734863,-1.850000023841858 -8.449999809265137,-7.75 -8.449999809265137,-7.75 C1.5499999523162842,-5.849999904632568 10.050000190734863,-4.449999809265137 10.050000190734863,-4.449999809265137z"></path></g></g><g transform="matrix(0.9498337507247925,0.017771106213331223,-0.017771106213331223,0.9498337507247925,51.76616668701172,7.226408004760742)" opacity="1" style="display: block;"><g opacity="1" transform="matrix(1,0,0,1,816.8569946289062,219.68699645996094)"><path fill="rgb(242,242,242)" fill-opacity="1" d=" M21.660999298095703,13.633999824523926 C27.70599937438965,5.763000011444092 30.312999725341797,-3.447000026702881 32.70399856567383,-12.71399974822998 C33.303001403808594,-14.776000022888184 33.86399841308594,-16.52400016784668 33.44300079345703,-18.58099937438965 C31.968000411987305,-28.283000946044922 -24.194000244140625,-26.89699935913086 -33.86399841308594,-27.266000747680664 C-29.290000915527344,-8.399999618530273 -22.499000549316406,28.283000946044922 20.450000762939453,14.697999954223633 C21.115999221801758,14.460000038146973 21.30900001525879,13.90999984741211 21.660999298095703,13.633999824523926z"></path></g><g opacity="1" transform="matrix(1,0,0,1,712.177978515625,206.04800415039062)"><path fill="rgb(249,130,0)" fill-opacity="1" d=" M-41.097999572753906,-19.820999145507812 C-41.097999572753906,-19.820999145507812 -92.66300201416016,5.5289998054504395 -53.72999954223633,10.730999946594238 C15.088000297546387,19.820999145507812 92.66300201416016,-4.624000072479248 68.7509994506836,-10.244999885559082 C68.65299987792969,-10.225000381469727 -15.055000305175781,-11.267999649047852 -41.097999572753906,-19.820999145507812z"></path></g><g opacity="1" transform="matrix(1,0,0,1,764.4650268554688,142.81700134277344)"><path fill="rgb(249,130,0)" fill-opacity="1" d=" M88.67400360107422,61.6879997253418 C88.67400360107422,61.6879997253418 -6.955999851226807,52.26599884033203 -6.955999851226807,52.26599884033203 C-6.955999851226807,52.26599884033203 -29.263999938964844,54.481998443603516 -52.54999923706055,52.91699981689453 C-67.85199737548828,51.96500015258789 -83.18000030517578,49.38600158691406 -93.54299926757812,43.137001037597656 C-93.54299926757812,43.137001037597656 -62.62699890136719,-61.68899917602539 17.650999069213867,-42.4900016784668 C19.358999252319336,-42.125 21.009000778198242,-41.542999267578125 22.715999603271484,-41.178001403808594 C62.65800094604492,-29.54800033569336 79.72899627685547,-5.480999946594238 86.13999938964844,16.37700080871582 C93.54299926757812,40.584999084472656 88.67400360107422,61.6879997253418 88.67400360107422,61.6879997253418z"></path></g><g opacity="1" transform="matrix(1,0,0,1,748.8410034179688,151.5019989013672)"><path fill="rgb(247,82,0)" fill-opacity="1" d=" M36.70000076293945,-43.91400146484375 C23.57200050354004,-41.22800064086914 9.456999778747559,-26.39699935913086 2.621999979019165,-15.404000282287598 C-5.809999942779541,-1.7359999418258667 -6.75600004196167,19.076000213623047 1.090999960899353,32.98500061035156 C3.007999897003174,36.369998931884766 5.591000080108643,39.51599884033203 8.895999908447266,41.698001861572266 C8.895999908447266,41.698001861572266 -13.413999557495117,43.91400146484375 -36.70000076293945,42.349998474121094 C-19.159000396728516,26.30900001525879 -15.482999801635742,1.3660000562667847 -1.3669999837875366,-17.44499969482422 C7.929999828338623,-30.371000289916992 21.259000778198242,-41.06100082397461 36.70000076293945,-43.91400146484375z"></path></g><g opacity="1" transform="matrix(1,0,0,1,800.2210083007812,140.4320068359375)"><path fill="rgb(255,154,54)" fill-opacity="1" d=" M50.20800018310547,18.899999618530273 C49.132999420166016,24.121999740600586 47.33100128173828,29.28700065612793 43.58300018310547,33.422000885009766 C38.409000396728516,38.56399917602539 30.905000686645508,40.303001403808594 23.863000869750977,39.80500030517578 C16.583999633789062,39.1510009765625 9.845999717712402,36.650001525878906 3.3239998817443848,34.20800018310547 C-3.8459999561309814,31.591999053955078 -11.152999877929688,28.799999237060547 -18.520999908447266,25.71500015258789 C-30.46500015258789,21.216999053955078 -43.80699920654297,15.373000144958496 -47.7239990234375,3.2119998931884766 C-50.207000732421875,-3.936000108718872 -48.63399887084961,-11.708999633789062 -44.95600128173828,-18.17799949645996 C-41.27799987792969,-24.645999908447266 -35.61399841308594,-29.88800048828125 -29.572999954223633,-34.28799819946289 C-25.839000701904297,-36.99100112915039 -21.80699920654297,-38.73500061035156 -17.636999130249023,-40.303001403808594 C-15.928999900817871,-39.9379997253418 -14.277999877929688,-39.35599899291992 -12.569999694824219,-38.99100112915039 C26.687999725341797,-26.711000442504883 43.64099884033203,-2.7219998836517334 50.20800018310547,18.899999618530273z"></path></g><g opacity="1" transform="matrix(1,0,0,1,749.6060180664062,136.03500366210938)"><path fill="rgb(249,130,0)" fill-opacity="1" d=" M78.5260009765625,-11.847999572753906 C75.947998046875,-13.973999977111816 4.609000205993652,-60.82500076293945 -26.232999801635742,60.82600021362305 C-26.232999801635742,60.82600021362305 -78.5260009765625,50.191001892089844 -78.5260009765625,50.191001892089844 C-78.5260009765625,50.191001892089844 -73.92900085449219,38.737998962402344 -71.12100219726562,30.507999420166016 C-60.770999908447266,2.7709999084472656 -29.108999252319336,-57.499000549316406 45.4010009765625,-38.54899978637695 C45.4010009765625,-38.54899978637695 46.12699890136719,-38.494998931884766 47.4630012512207,-37.95100021362305 C52.04100036621094,-36.029998779296875 65.9540023803711,-29.893999099731445 78.5260009765625,-11.847999572753906z"></path></g><g opacity="1" transform="matrix(1,0,0,1,737.8460083007812,127.58000183105469)"><path fill="rgb(255,154,54)" fill-opacity="1" d=" M59.16600036621094,-29.280000686645508 C49.970001220703125,-28.82699966430664 40.41899871826172,-28.608999252319336 31.309999465942383,-26.235000610351562 C7.866000175476074,-19.090999603271484 -5.007999897003174,5.284999847412109 -16.364999771118164,27.104000091552734 C-19.55299949645996,33.47200012207031 -23.465999603271484,40.29499816894531 -29.62700080871582,44.106998443603516 C-37.48899841308594,49.08399963378906 -48.82699966430664,48.54600143432617 -55.81700134277344,42.31999969482422 C-57.07699966430664,41.14899826049805 -58.19900131225586,40.15399932861328 -59.16600036621094,38.92300033569336 C-48.814998626708984,11.1850004196167 -17.15399932861328,-49.08399963378906 57.356998443603516,-30.135000228881836 C57.20100021362305,-29.89900016784668 57.849998474121094,-29.725000381469727 59.16600036621094,-29.280000686645508z"></path></g></g><g transform="matrix(0.9998250007629395,0.0187064278870821,-0.0187064278870821,0.9998250007629395,739.6989135742188,744.3236083984375)" opacity="1" style="display: block;"><g opacity="1" transform="matrix(1,0,0,1,194.5,-117.5)"><path fill="rgb(237,236,236)" fill-opacity="1" d=" M0,-33 C18.21269989013672,-33 33,-18.21269989013672 33,0 C33,18.21269989013672 18.21269989013672,33 0,33 C-18.21269989013672,33 -33,18.21269989013672 -33,0 C-33,-18.21269989013672 -18.21269989013672,-33 0,-33z"></path><path stroke-linecap="butt" stroke-linejoin="miter" fill-opacity="0" stroke-miterlimit="4" stroke="rgb(70,65,148)" stroke-opacity="1" stroke-width="0" d=" M0,-33 C18.21269989013672,-33 33,-18.21269989013672 33,0 C33,18.21269989013672 18.21269989013672,33 0,33 C-18.21269989013672,33 -33,18.21269989013672 -33,0 C-33,-18.21269989013672 -18.21269989013672,-33 0,-33z"></path></g></g><g transform="matrix(-0.9999518394470215,0.009812761098146439,0.009812761098146439,0.9999518394470215,1538.958251953125,-22.09686279296875)" opacity="1" style="display: block;"><g opacity="1" transform="matrix(1,0,0,1,962.2630004882812,543.4290161132812)"><path fill="rgb(237,236,236)" fill-opacity="1" d=" M-53.8380012512207,52.09400177001953 C-53.8380012512207,52.09400177001953 -54.172000885009766,51.9900016784668 -54.172000885009766,51.9900016784668 C-54.172000885009766,51.9900016784668 -52.775001525878906,47.683998107910156 -52.775001525878906,47.683998107910156 C-52.51300048828125,46.87699890136719 -46.42499923706055,27.409000396728516 -30.63800048828125,-4.197999954223633 C-11.14900016784668,-43.21699905395508 12.60099983215332,-93.2750015258789 12.60099983215332,-93.2750015258789 C12.60099983215332,-93.2750015258789 50.7599983215332,-84.22200012207031 50.7599983215332,-84.22200012207031 C50.7599983215332,-84.22200012207031 44.46799850463867,-59.763999938964844 44.46799850463867,-59.763999938964844 C42.45100021362305,-40.310001373291016 11.559000015258789,72.55699920654297 11.559000015258789,72.55699920654297 C11.559000015258789,72.55699920654297 11.020000457763672,72.38800048828125 11.020000457763672,72.38800048828125 C3.9040000438690186,87.75700378417969 -13.717000007629395,95.87799835205078 -30.30699920654297,90.68699645996094 C-46.89799880981445,85.49600219726562 -56.750999450683594,68.77799987792969 -53.8380012512207,52.09400177001953z"></path></g></g><g transform="matrix(0.9803117513656616,-0.19745609164237976,0.19745609164237976,0.9803117513656616,13.665197372436523,295.8559875488281)" opacity="1" style="display: block;"><g opacity="1" transform="matrix(1,0,0,1,496.8999938964844,267.1499938964844)"><path fill="rgb(253,208,180)" fill-opacity="1" d=" M18.899999618530273,8.449999809265137 C18.899999618530273,8.449999809265137 19.899999618530273,-8.149999618530273 19.899999618530273,-8.149999618530273 C19.899999618530273,-8.149999618530273 -19.899999618530273,-21.75 -19.899999618530273,-21.75 C-19.899999618530273,-21.75 -17.299999237060547,3.3499999046325684 -18.5,8.449999809265137 C-19,8.449999809265137 -4.199999809265137,21.75 18.899999618530273,8.449999809265137z"></path></g><g opacity="1" transform="matrix(1,0,0,1,501.8500061035156,211.1999969482422)"><path fill="rgb(253,208,180)" fill-opacity="1" d=" M17.25,47.5 C13.050000190734863,51 7.650000095367432,52.70000076293945 2.450000047683716,53.599998474121094 C-1.5499999523162842,54.29999923706055 -5.75,54.79999923706055 -9.75,53.79999923706055 C-13.75,52.79999923706055 -17.450000762939453,50.29999923706055 -19.850000381469727,46.29999923706055 C-20.350000381469727,45.29999923706055 -20.850000381469727,44 -21.450000762939453,43 C-21.950000762939453,42 -22.649999618530273,41.400001525878906 -23.350000381469727,40.70000076293945 C-24.549999237060547,39.5 -25.950000762939453,38.400001525878906 -26.850000381469727,37.20000076293945 C-29.450000762939453,34.400001525878906 -31.25,30.399999618530273 -31.75,26.399999618530273 C-31.950000762939453,24.299999237060547 -31.950000762939453,22 -31.75,20.100000381469727 C-31.25,17.299999237060547 -30.149999618530273,17 -29.149999618530273,14.899999618530273 C-25.149999618530273,5.5 -21.450000762939453,-3.799999952316284 -12.550000190734863,-8.600000381469727 C-9.949999809265137,-10 -7.349999904632568,-10.899999618530273 -4.550000190734863,-10.5 C1.75,-9.5 9.050000190734863,-5.300000190734863 12.550000190734863,0.5 C13.949999809265137,-15.199999809265137 15.149999618530273,-30.5 17.450000762939453,-45.900001525878906 C18.149999618530273,-49.900001525878906 19.549999237060547,-54.79999923706055 23.049999237060547,-54.79999923706055 C26.549999237060547,-54.79999923706055 27.950000762939453,-50.099998474121094 28.649999618530273,-46.29999923706055 C30.549999237060547,-34.599998474121094 29.350000381469727,-22.200000762939453 30.950000762939453,-10.699999809265137 C31.950000762939453,-3.4000000953674316 31.649999618530273,4.300000190734863 30.450000762939453,11.800000190734863 C29.950000762939453,14.899999618530273 29.75,17.700000762939453 29.049999237060547,20.700000762939453 C28.850000381469727,22.100000381469727 28.549999237060547,23.299999237060547 28.350000381469727,24.399999618530273 C27.149999618530273,32.29999923706055 22.950000762939453,42.599998474121094 17.25,47.5z"></path></g><g opacity="1" transform="matrix(1,0,0,1,480.1000061035156,217.10000610351562)"><path fill="rgb(253,208,180)" fill-opacity="1" d=" M8.100000381469727,-21.200000762939453 C4.599999904632568,-22.200000762939453 0.6000000238418579,-20.700000762939453 -2.200000047683716,-18.399999618530273 C-6.400000095367432,-14.699999809265137 -8.699999809265137,-8.800000190734863 -10.399999618530273,-2.9000000953674316 C-11.800000190734863,1.5 -12.699999809265137,6 -12.300000190734863,10.5 C-12.100000381469727,14 -10.699999809265137,17.799999237060547 -8.600000381469727,20.299999237060547 C-7.900000095367432,20.799999237060547 -7.199999809265137,21.299999237060547 -6.5,21.700000762939453 C-6,21.899999618530273 -5.800000190734863,22.200000762939453 -5.300000190734863,22.200000762939453 C-4.800000190734863,22.200000762939453 -4.599999904632568,21.700000762939453 -4.099999904632568,21.5 C-1.5,18.399999618530273 -0.800000011920929,14 -0.10000000149011612,10 C1.7999999523162842,-0.10000000149011612 5.099999904632568,-6.900000095367432 11.100000381469727,-14.100000381469727 C12.699999809265137,-16 12.699999809265137,-17.600000381469727 11.800000190734863,-18.799999237060547 C10.899999618530273,-20 9.699999809265137,-20.700000762939453 8.100000381469727,-21.200000762939453z"></path></g><g opacity="1" transform="matrix(1,0,0,1,483.20001220703125,217.0500030517578)"><path fill="rgb(233,190,174)" fill-opacity="1" d=" M8.5,-19.25 C5.199999809265137,-18.049999237060547 1.7000000476837158,-15.75 1,-14.850000381469727 C-2.5,-10.850000381469727 -4.599999904632568,-5.75 -6.699999809265137,-0.550000011920929 C-8.600000381469727,4.150000095367432 -9.5,8.350000381469727 -9.300000190734863,13.449999809265137 C-9.100000381469727,15.550000190734863 -8.600000381469727,17.850000381469727 -7.199999809265137,19.049999237060547 C-7,19.25 -7,19.25 -6.699999809265137,19.25 C-4.800000190734863,19.25 -3.9000000953674316,10.75 -3.5999999046325684,9.449999809265137 C-1.7000000476837158,-0.6499999761581421 1.600000023841858,-7.449999809265137 7.599999904632568,-14.649999618530273 C9.5,-16.450000762939453 9.5,-18.049999237060547 8.5,-19.25z"></path></g><g opacity="1" transform="matrix(1,0,0,1,491.04998779296875,219.1999969482422)"><path fill="rgb(253,208,180)" fill-opacity="1" d=" M10.949999809265137,-20.899999618530273 C7.25,-22.5 2.950000047683716,-21.600000381469727 -0.25,-19.5 C-5.150000095367432,-16.399999618530273 -8.449999809265137,-10.399999618530273 -11.050000190734863,-4.699999809265137 C-12.949999809265137,-0.30000001192092896 -14.550000190734863,4.199999809265137 -14.75,8.899999618530273 C-14.949999809265137,13.600000381469727 -13.550000190734863,19 -10.050000190734863,21.799999237060547 C-9.850000381469727,21.799999237060547 -9.850000381469727,22 -9.850000381469727,22 C-9.649999618530273,22.200000762939453 -9.149999618530273,22.5 -8.850000381469727,22.5 C-8.649999618530273,22.5 -8.350000381469727,22.299999237060547 -8.149999618530273,22.299999237060547 C-5.550000190734863,20.399999618530273 -4.150000095367432,17.600000381469727 -3.25,14.300000190734863 C0.44999998807907104,1.2000000476837158 4.75,-6.099999904632568 12.850000381469727,-13.399999618530273 C14.25,-14.800000190734863 14.949999809265137,-16 14.75,-17.100000381469727 C14.550000190734863,-18.799999237060547 13.050000190734863,-20.200000762939453 10.949999809265137,-20.899999618530273z"></path></g><g opacity="1" transform="matrix(1,0,0,1,494.6499938964844,219.39999389648438)"><path fill="rgb(233,190,174)" fill-opacity="1" d=" M11.050000190734863,-17.600000381469727 C7.550000190734863,-19 -0.15000000596046448,-14.300000190734863 -1.350000023841858,-12.899999618530273 C-4.849999904632568,-8.899999618530273 -6.949999809265137,-3.799999952316284 -9.050000190734863,1.399999976158142 C-10.449999809265137,4.900000095367432 -11.350000381469727,8.699999809265137 -11.149999618530273,12.399999618530273 C-10.949999809265137,13.399999618530273 -10.949999809265137,17.299999237060547 -9.949999809265137,18 C-8.350000381469727,19 -7.349999904632568,15.199999809265137 -6.849999904632568,13.800000190734863 C-3.1500000953674316,0.699999988079071 1.149999976158142,-6.599999904632568 9.25,-13.899999618530273 C10.949999809265137,-15.100000381469727 11.350000381469727,-16.399999618530273 11.050000190734863,-17.600000381469727z"></path></g><g opacity="1" transform="matrix(1,0,0,1,501.04998779296875,224.25)"><path fill="rgb(253,208,180)" fill-opacity="1" d=" M8.75,-20.350000381469727 C6.150000095367432,-21.350000381469727 2.8499999046325684,-21.049999237060547 0.15000000596046448,-19.850000381469727 C-5.75,-17.549999237060547 -9.949999809265137,-10.449999809265137 -12.550000190734863,-4.150000095367432 C-15.149999618530273,1.75 -15.149999618530273,6.449999809265137 -14.149999618530273,12.449999809265137 C-13.949999809265137,13.149999618530273 -13.949999809265137,13.850000381469727 -13.949999809265137,14.350000381469727 C-13.75,15.75 -13.449999809265137,17.149999618530273 -12.949999809265137,18.350000381469727 C-12.449999809265137,19.549999237060547 -11.550000190734863,20.649999618530273 -10.350000381469727,21.149999618530273 C-9.350000381469727,21.350000381469727 -8.449999809265137,21.350000381469727 -7.75,20.950000762939453 C-5.150000095367432,19.950000762939453 -2.8499999046325684,17.850000381469727 -1.4500000476837158,15.050000190734863 C-1.25,14.850000381469727 -1.25,14.550000190734863 -0.949999988079071,14.350000381469727 C1.850000023841858,8.449999809265137 0.6499999761581421,-0.8500000238418579 7.25,-2.950000047683716 C9.350000381469727,-3.6500000953674316 10.949999809265137,-2.75 12.850000381469727,-4.849999904632568 C14.75,-6.949999809265137 15.149999618530273,-11.149999618530273 14.449999809265137,-13.949999809265137 C13.350000381469727,-17.350000381469727 11.25,-19.450000762939453 8.75,-20.350000381469727z"></path></g><g opacity="1" transform="matrix(1,0,0,1,501.25,240.1999969482422)"><path fill="rgb(233,190,174)" fill-opacity="1" d=" M29.850000381469727,-8.199999809265137 C29.350000381469727,-8 28.850000381469727,-8 28.25,-7.699999809265137 C21.25,-5.800000190734863 11.649999618530273,-3.700000047683716 5.75,1.399999976158142 C0.15000000596046448,6.099999904632568 -1.0499999523162842,16.600000381469727 -0.550000011920929,23.899999618530273 C-3.1500000953674316,20.200000762939453 -6.449999809265137,17.100000381469727 -10.350000381469727,15.699999809265137 C-15.050000190734863,13.800000190734863 -18.950000762939453,14.100000381469727 -22.549999237060547,12 C-23.950000762939453,11.300000190734863 -25.149999618530273,10.100000381469727 -26.049999237060547,8.5 C-26.25,8 -26.75,7.5 -27.049999237060547,7.099999904632568 C-29.149999618530273,3.5999999046325684 -30.350000381469727,-0.4000000059604645 -31.25,-4.400000095367432 C-30.25,-3.700000047683716 -29.149999618530273,-2.799999952316284 -27.950000762939453,-2.799999952316284 C-26.75,-2.799999952316284 -25.350000381469727,-3.5 -25.149999618530273,-5.099999904632568 C-24.649999618530273,-3.5 -24.149999618530273,-2 -23.25,-0.699999988079071 C-22.25,0.699999988079071 -20.950000762939453,1.399999976158142 -19.549999237060547,1.2000000476837158 C-17.25,0.699999988079071 -16.049999237060547,-2.5 -15.550000190734863,-5.300000190734863 C-14.550000190734863,-0.8999999761581421 -9.449999809265137,4.5 -5.25,2.4000000953674316 C-3.8499999046325684,1.7000000476837158 -2.950000047683716,0.10000000149011612 -2.450000047683716,-1.2999999523162842 C-1.9500000476837158,-2.9000000953674316 -1.75,-4.599999904632568 -1.4500000476837158,-6.199999809265137 C-0.44999998807907104,-10.399999618530273 1.149999976158142,-14.399999618530273 3.75,-17.399999618530273 C5.349999904632568,-19.299999237060547 8.449999809265137,-23.700000762939453 11.050000190734863,-23.899999618530273 C14.550000190734863,-23.899999618530273 11.75,-17.399999618530273 15.25,-14.800000190734863 C17.549999237060547,-13.199999809265137 20.149999618530273,-13.199999809265137 22.75,-13.600000381469727 C25.549999237060547,-14.100000381469727 28.649999618530273,-15 31.25,-16.700000762939453 C31.049999237060547,-14 30.25,-11.300000190734863 29.850000381469727,-8.199999809265137z"></path></g><g opacity="1" transform="matrix(1,0,0,1,523.7000122070312,241.5)"><path fill="rgb(253,208,180)" fill-opacity="1" d=" M-25.600000381469727,4.099999904632568 C-20.899999618530273,-3.200000047683716 -13.699999809265137,-8.100000381469727 -5.900000095367432,-9 C-3.0999999046325684,-9.5 0,-9.199999809265137 2.5999999046325684,-10.399999618530273 C4.699999809265137,-11.399999618530273 6.300000190734863,-13 8,-14.800000190734863 C12.699999809265137,-19.5 17.600000381469727,-23.899999618530273 23.200000762939453,-26.299999237060547 C25.5,-27.299999237060547 28.399999618530273,-27.700000762939453 30,-25.299999237060547 C31,-23.700000762939453 30.700000762939453,-21.600000381469727 29.799999237060547,-19.700000762939453 C29.100000381469727,-18.100000381469727 27.700000762939453,-16.600000381469727 26.700000762939453,-15.300000190734863 C23.200000762939453,-10.600000381469727 22,-4.099999904632568 18.5,0.4000000059604645 C15.399999618530273,4.099999904632568 11.199999809265137,6 7.300000190734863,8.399999618530273 C1.399999976158142,12.399999618530273 -3.299999952316284,18 -9.300000190734863,21.799999237060547 C-13.699999809265137,24.600000381469727 -22.399999618530273,27.700000762939453 -26.899999618530273,23 C-31,17.899999618530273 -28.700000762939453,8.800000190734863 -25.600000381469727,4.099999904632568z"></path></g></g><g transform="matrix(0.994131863117218,-0.10813744366168976,0.10813744366168976,0.994131863117218,-65.3388900756836,8.618239402770996)" opacity="1" style="display: block;"><g opacity="1" transform="matrix(1,0,0,1,767.3460083007812,737.031982421875)"><path fill="rgb(183,63,66)" fill-opacity="1" d=" M264.3429870605469,198.32899475097656 C264.3429870605469,198.32899475097656 198.29200744628906,264.3699951171875 198.29200744628906,264.3699951171875 C189.6699981689453,272.9909973144531 175.6909942626953,272.989990234375 167.07000732421875,264.36700439453125 C167.07000732421875,264.36700439453125 -264.343994140625,-167.1060028076172 -264.343994140625,-167.1060028076172 C-272.96600341796875,-175.72900390625 -272.9649963378906,-189.70799255371094 -264.3420104980469,-198.3300018310547 C-264.3420104980469,-198.3300018310547 -198.29299926757812,-264.3699951171875 -198.29299926757812,-264.3699951171875 C-189.6699981689453,-272.99200439453125 -175.6909942626953,-272.989990234375 -167.06900024414062,-264.36700439453125 C-167.06900024414062,-264.36700439453125 264.343994140625,167.10499572753906 264.343994140625,167.10499572753906 C272.96600341796875,175.72799682617188 272.96600341796875,189.70700073242188 264.3429870605469,198.32899475097656z"></path></g><g opacity="1" transform="matrix(1,0,0,1,767.3460083007812,737.0330200195312)"><path fill="rgb(183,63,66)" fill-opacity="1" d=" M-198.32899475097656,264.3420104980469 C-198.32899475097656,264.3420104980469 -264.3689880371094,198.29299926757812 -264.3689880371094,198.29299926757812 C-272.9909973144531,189.67100524902344 -272.989990234375,175.6909942626953 -264.36700439453125,167.07000732421875 C-264.36700439453125,167.07000732421875 167.1060028076172,-264.3450012207031 167.1060028076172,-264.3450012207031 C175.72900390625,-272.9670104980469 189.70799255371094,-272.9649963378906 198.3300018310547,-264.3420104980469 C198.3300018310547,-264.3420104980469 264.3689880371094,-198.29400634765625 264.3689880371094,-198.29400634765625 C272.9909973144531,-189.67100524902344 272.9909973144531,-175.6909942626953 264.3680114746094,-167.07000732421875 C264.3680114746094,-167.07000732421875 -167.10499572753906,264.343994140625 -167.10499572753906,264.343994140625 C-175.72799682617188,272.96600341796875 -189.70700073242188,272.9649963378906 -198.32899475097656,264.3420104980469z"></path></g><g opacity="1" transform="matrix(1,0,0,1,754.677001953125,725.2659912109375)"><path fill="rgb(239,70,68)" fill-opacity="1" d=" M264.3429870605469,198.32899475097656 C264.3429870605469,198.32899475097656 198.29299926757812,264.3689880371094 198.29299926757812,264.3689880371094 C189.67100524902344,272.9909973144531 175.6909942626953,272.989990234375 167.07000732421875,264.36700439453125 C167.07000732421875,264.36700439453125 -264.343994140625,-167.1060028076172 -264.343994140625,-167.1060028076172 C-272.96600341796875,-175.72900390625 -272.9649963378906,-189.70799255371094 -264.3420104980469,-198.3300018310547 C-264.3420104980469,-198.3300018310547 -198.29299926757812,-264.3689880371094 -198.29299926757812,-264.3689880371094 C-189.6699981689453,-272.9909973144531 -175.69000244140625,-272.989990234375 -167.06900024414062,-264.36700439453125 C-167.06900024414062,-264.36700439453125 264.343994140625,167.10499572753906 264.343994140625,167.10499572753906 C272.96600341796875,175.72799682617188 272.96600341796875,189.70700073242188 264.3429870605469,198.32899475097656z"></path></g><g opacity="1" transform="matrix(1,0,0,1,754.677001953125,725.2670288085938)"><path fill="rgb(239,70,68)" fill-opacity="1" d=" M-198.32899475097656,264.3420104980469 C-198.32899475097656,264.3420104980469 -264.3689880371094,198.29200744628906 -264.3689880371094,198.29200744628906 C-272.9909973144531,189.6699981689453 -272.989990234375,175.6909942626953 -264.36700439453125,167.07000732421875 C-264.36700439453125,167.07000732421875 167.1060028076172,-264.343994140625 167.1060028076172,-264.343994140625 C175.72900390625,-272.96600341796875 189.70799255371094,-272.96600341796875 198.3300018310547,-264.3429870605469 C198.3300018310547,-264.3429870605469 264.3689880371094,-198.29400634765625 264.3689880371094,-198.29400634765625 C272.9909973144531,-189.67100524902344 272.9909973144531,-175.6909942626953 264.3680114746094,-167.07000732421875 C264.3680114746094,-167.07000732421875 -167.10499572753906,264.343994140625 -167.10499572753906,264.343994140625 C-175.72799682617188,272.96600341796875 -189.70700073242188,272.9649963378906 -198.32899475097656,264.3420104980469z"></path></g></g><g transform="matrix(-1.1877942085266113,0.17071907222270966,0.17071907222270966,1.1877942085266113,1343.89404296875,-9.21372127532959)" opacity="1" style="display: block;"><g opacity="1" transform="matrix(1,0,0,1,452.6910095214844,488.4419860839844)"><path fill="rgb(249,210,186)" fill-opacity="1" d=" M-14.29800033569336,-29.780000686645508 C-10.8149995803833,-29.888999938964844 -7.170000076293945,-29.21500015258789 -2.4079999923706055,-29.131000518798828 C9.140000343322754,-28.92799949645996 20.716999053955078,-29.204999923706055 32.26599884033203,-29.239999771118164 C33.849998474121094,-29.243999481201172 35.50899887084961,-29.22800064086914 36.904998779296875,-28.479999542236328 C38.305999755859375,-27.729000091552734 39.310001373291016,-25.981000900268555 38.680999755859375,-24.52199935913086 C38.0890007019043,-23.14900016784668 36.4370002746582,-22.645000457763672 34.981998443603516,-22.301000595092773 C27.238000869750977,-20.466999053955078 19.280000686645508,-17.965999603271484 11.449000358581543,-17.47800064086914 C8.538000106811523,-17.297000885009766 -3,-14.513999938964844 -4.708000183105469,-15.26200008392334 C0.2329999953508377,-13.185999870300293 9.932000160217285,-11.395000457763672 13.35099983215332,-10.289999961853027 C19.98200035095215,-8.086000442504883 35.10200119018555,-5.1570000648498535 35.79800033569336,-0.3880000114440918 C36.31700134277344,3.3440001010894775 26.211000442504883,3.627000093460083 14.090999603271484,1.996999979019165 C11.190999984741211,1.5670000314712524 0.2370000034570694,0.3610000014305115 -6.913000106811523,-0.22599999606609344 C-7.02400016784668,0.08100000023841858 8.70300006866455,5.732999801635742 11.112000465393066,5.984000205993652 C18.11199951171875,6.794000148773193 27.711000442504883,6.951000213623047 29.84000015258789,13.699999809265137 C30.430999755859375,15.51200008392334 14.36299991607666,17.86400032043457 7.235000133514404,16.45199966430664 C4.072999954223633,15.788000106811523 -3.0209999084472656,14.666000366210938 -11.303999900817871,12.418000221252441 C-6.8480000495910645,14.871999740600586 1.8359999656677246,18.30900001525879 3.6540000438690186,19.040000915527344 C14.36299991607666,18.628000259399414 18.735000610351562,18.829999923706055 20.374000549316406,23.871999740600586 C20.763999938964844,25.472999572753906 4.639999866485596,29.88800048828125 -1.121000051498413,28.347999572753906 C-16.45199966430664,24.18899917602539 -35.305999755859375,20.649999618530273 -38.189998626708984,2.2880001068115234 C-39.310001373291016,-4.8460001945495605 -37.428001403808594,-12.402000427246094 -33.09400177001953,-18.17799949645996 C-30.961999893188477,-21.01799964904785 -28.290000915527344,-23.413999557495117 -25.45599937438965,-25.55299949645996 C-21.229999542236328,-28.743999481201172 -17.847999572753906,-29.66900062561035 -14.29800033569336,-29.780000686645508z"></path></g></g></g></svg>