<svg xmlns="http://www.w3.org/2000/svg" version="1.0" viewBox="0 0 19 19">
  <path fill="none" stroke="#474747" stroke-linecap="round" stroke-linejoin="round" stroke-miterlimit="10" stroke-width="1.5" d="M1.086 7.806c1.604-.416 2.057-2.198 2.173-2.753.124-.56.605-.581 1.623-1.037.992-.634 1.469-2.226 1.688-3.317.124-.698.746-1.208 1.473-1.208h0c.85 0 1.522.713 1.479 1.563a18.276 18.276 0 0 1-.205 1.982c-.314 1.953-2.034 3.488-2.034 3.488l4.104-.003c1.267-.001 2.293 1.025 2.293 2.293v2.815c0 1.268-1.026 2.293-2.293 2.293H2.928c-.886 0-1.771-.071-2.651-.225-1.866-.327-4.388.027-4.388.027M.343 14.036L2.526 9.953c.217-1.576.932-2.856 2.034-2.826l1.134.133c1.006.116 1.816.843 1.791 1.85-.05 2.18-1.196 3.059-1.868 3.765-.115.109-.274.086-.363-.029-.114-.139-.132-.336-.045-.562l1.153-3.195c.19-.63.288-1.305.18-2.082.31-.782.52-1.735-.155-2.256-.162-.391-.347-.593-.564-.669C3.58 0 3.06.215 2.644.576 2.24.92 2.05 1.455 2.05 2.19c0 .681.192 1.169.348 1.885" />
  <path fill="none" stroke="#474747" stroke-linecap="round" stroke-linejoin="round" stroke-miterlimit="10" stroke-width="1.5" d="M2.92 10.785v.991a2.494 2.494 0 0 1-.77 1.788m6.337-3.25-2.338-1.035c-.582-.258-.844-.94-.586-1.524.26-.584.946-1.061 1.49-1.061.365 0 .664.309.664.76 0 .488-.392.832-.664 1.097" />
  <path fill="none" stroke="#474747" stroke-linecap="round" stroke-linejoin="round" stroke-miterlimit="10" stroke-width="1.5" d="M14.406 2.313c.992-.634 1.469-2.226 1.688-3.317.124-.698.746-1.208 1.473-1.208h0c.85 0 1.522.713 1.479 1.563a18.276 18.276 0 0 1-.205 1.982c-.314 1.953-2.034 3.488-2.034 3.488l4.104-.003c1.267-.001 2.293 1.025 2.293 2.293v2.815c0 1.268-1.026 2.293-2.293 2.293h-2.375" />
  <path fill="none" stroke="#474747" stroke-linecap="round" stroke-linejoin="round" stroke-miterlimit="10" stroke-width="1.5" d="M17.417 4.607h-2.375c-1.291 0-2.388 1.28-2.388 2.57 0 1.006.303 1.571.948 2.277.554.6 1.192 1.291.82 2.242.695.19 1.475.294 2.315.294h2.33" />
</svg>
