<svg width="30" height="30" viewBox="0 0 30 30" fill="none" xmlns="http://www.w3.org/2000/svg">
<path d="M10.8431 6.80211C12.8718 5.6007 13.8862 5 15 5C16.1138 5 17.1282 5.6007 19.1569 6.80211L19.8431 7.20846C21.8718 8.40987 22.8862 9.01057 23.4431 10C24 10.9894 24 12.1908 24 14.5937V15.4063C24 17.8092 24 19.0106 23.4431 20C22.8862 20.9894 21.8718 21.5901 19.8431 22.7915L19.1569 23.1979C17.1282 24.3993 16.1138 25 15 25C13.8862 25 12.8718 24.3993 10.8431 23.1979L10.1569 22.7915C8.1282 21.5901 7.11384 20.9894 6.55692 20C6 19.0106 6 17.8092 6 15.4063V14.5937C6 12.1908 6 10.9894 6.55692 10C7.11384 9.01057 8.1282 8.40987 10.1569 7.20846L10.8431 6.80211Z" stroke="#070127" stroke-width="1.5"/>
<circle cx="15" cy="15" r="3" stroke="#070127" stroke-width="1.5"/>
</svg>
