<?xml version="1.0" encoding="UTF-8"?>
<svg xmlns="http://www.w3.org/2000/svg" xmlns:xlink="http://www.w3.org/1999/xlink" width="30px" height="30px" viewBox="0 0 30 29" version="1.1">
<g id="surface1">
<path style=" stroke:none;fill-rule:nonzero;fill:rgb(0%,0%,0%);fill-opacity:1;" d="M 11.820312 23.207031 C 11.621094 23.207031 11.324219 23.140625 11.027344 22.816406 C 10.226562 21.953125 9.484375 21.144531 7.300781 21.144531 C 6.742188 21.144531 6.105469 21.203125 5.398438 21.308594 C 2.257812 21.792969 2.101562 21.792969 2.050781 21.792969 C 2.027344 21.792969 2.003906 21.792969 1.984375 21.785156 C 1.691406 21.777344 0.421875 21.65625 0.0585938 19.839844 C 0.0507812 19.824219 0.0429688 19.800781 0.0429688 19.789062 C 0.0429688 19.765625 0.0429688 19.746094 0.0429688 19.714844 L 0.0390625 19.714844 C -0.207031 17.550781 1.394531 17.242188 1.410156 17.234375 L 1.410156 17.25 C 1.417969 17.25 1.425781 17.242188 1.433594 17.242188 L 1.433594 17.226562 C 1.449219 17.226562 1.457031 17.226562 1.46875 17.226562 C 1.863281 17.132812 2.746094 17.011719 4.707031 16.757812 C 8.429688 16.265625 9.023438 15.042969 9.652344 13.75 C 9.855469 13.339844 10.179688 13.109375 10.558594 13.109375 C 11.003906 13.109375 11.421875 13.441406 11.488281 13.84375 L 12.742188 22.210938 C 12.78125 22.441406 12.691406 22.695312 12.519531 22.890625 C 12.335938 23.089844 12.082031 23.207031 11.820312 23.207031 Z M 7.292969 20.640625 C 9.710938 20.640625 10.613281 21.613281 11.40625 22.472656 C 11.546875 22.621094 11.6875 22.703125 11.820312 22.703125 C 11.933594 22.703125 12.039062 22.652344 12.117188 22.558594 C 12.191406 22.472656 12.230469 22.371094 12.222656 22.285156 L 10.953125 13.921875 C 10.929688 13.785156 10.753906 13.628906 10.542969 13.628906 C 10.328125 13.628906 10.195312 13.816406 10.121094 13.964844 C 9.488281 15.273438 8.777344 16.742188 4.765625 17.269531 C 2.429688 17.582031 1.761719 17.679688 1.558594 17.71875 C 1.539062 17.730469 1.515625 17.738281 1.484375 17.738281 C 1.441406 17.746094 0.347656 17.976562 0.535156 19.65625 C 0.535156 19.664062 0.535156 19.671875 0.535156 19.679688 C 0.535156 19.6875 0.535156 19.695312 0.542969 19.703125 C 0.816406 21.164062 1.707031 21.28125 1.976562 21.28125 C 2.003906 21.273438 2.035156 21.28125 2.0625 21.289062 C 2.210938 21.273438 2.828125 21.195312 5.292969 20.8125 C 6.039062 20.695312 6.707031 20.640625 7.292969 20.640625 Z M 7.292969 20.640625 "/>
<path style=" stroke:none;fill-rule:nonzero;fill:rgb(0%,0%,0%);fill-opacity:1;" d="M 6.46875 21.195312 C 6.339844 21.195312 6.230469 21.101562 6.207031 20.976562 L 5.585938 16.867188 C 5.5625 16.730469 5.660156 16.597656 5.808594 16.578125 C 5.949219 16.5625 6.082031 16.65625 6.105469 16.792969 L 6.726562 20.90625 C 6.75 21.042969 6.652344 21.171875 6.503906 21.195312 C 6.488281 21.195312 6.484375 21.195312 6.46875 21.195312 Z M 6.46875 21.195312 "/>
<path style=" stroke:none;fill-rule:nonzero;fill:rgb(0%,0%,0%);fill-opacity:1;" d="M 1.753906 19 C 1.625 19 1.515625 18.90625 1.492188 18.785156 C 1.46875 18.648438 1.566406 18.519531 1.714844 18.496094 L 3.625 18.222656 C 3.765625 18.207031 3.898438 18.300781 3.921875 18.4375 C 3.941406 18.574219 3.847656 18.707031 3.699219 18.726562 L 1.789062 19 C 1.773438 19 1.765625 19 1.753906 19 Z M 1.753906 19 "/>
<path style=" stroke:none;fill-rule:nonzero;fill:rgb(0%,0%,0%);fill-opacity:1;" d="M 1.9375 20.234375 C 1.8125 20.234375 1.699219 20.140625 1.679688 20.019531 C 1.65625 19.882812 1.753906 19.75 1.902344 19.730469 L 3.808594 19.457031 C 3.949219 19.441406 4.085938 19.535156 4.105469 19.671875 C 4.128906 19.808594 4.03125 19.9375 3.882812 19.960938 L 1.976562 20.234375 C 1.960938 20.234375 1.953125 20.234375 1.9375 20.234375 Z M 1.9375 20.234375 "/>
<path style=" stroke:none;fill-rule:nonzero;fill:rgb(0%,0%,0%);fill-opacity:1;" d="M 6.253906 25.117188 C 5.753906 25.117188 5.472656 24.816406 5.441406 24.785156 L 2.710938 21.597656 C 2.652344 21.527344 2.636719 21.433594 2.664062 21.347656 C 2.703125 21.257812 2.777344 21.203125 2.875 21.1875 L 5.546875 20.828125 C 5.636719 20.8125 5.734375 20.847656 5.792969 20.921875 L 8.136719 23.8125 C 8.183594 23.871094 8.207031 23.941406 8.191406 24.015625 C 8.167969 24.136719 8.167969 24.136719 7.089844 24.851562 C 6.800781 25.023438 6.527344 25.117188 6.253906 25.117188 Z M 5.835938 24.449219 C 5.835938 24.449219 5.984375 24.605469 6.246094 24.605469 C 6.410156 24.605469 6.59375 24.542969 6.78125 24.417969 C 7.164062 24.160156 7.402344 24 7.542969 23.90625 L 5.457031 21.339844 L 3.402344 21.621094 Z M 5.835938 24.449219 "/>
<path style=" stroke:none;fill-rule:nonzero;fill:rgb(0%,0%,0%);fill-opacity:1;" d="M 15.734375 21.253906 C 15.667969 21.253906 15.601562 21.230469 15.558594 21.179688 C 15.453125 21.085938 15.445312 20.921875 15.550781 20.820312 C 16.460938 19.890625 16.871094 18.613281 16.671875 17.304688 C 16.476562 16.015625 15.675781 14.867188 14.523438 14.242188 C 14.398438 14.167969 14.355469 14.015625 14.421875 13.894531 C 14.496094 13.769531 14.652344 13.726562 14.777344 13.792969 C 16.070312 14.492188 16.96875 15.777344 17.183594 17.226562 C 17.40625 18.683594 16.945312 20.121094 15.921875 21.164062 C 15.867188 21.230469 15.800781 21.253906 15.734375 21.253906 Z M 15.734375 21.253906 "/>
<path style=" stroke:none;fill-rule:nonzero;fill:rgb(0%,0%,0%);fill-opacity:1;" d="M 13.929688 20.070312 C 13.871094 20.070312 13.804688 20.046875 13.761719 20.003906 C 13.648438 19.910156 13.640625 19.75 13.738281 19.644531 C 14.324219 18.988281 14.589844 18.222656 14.480469 17.5 C 14.367188 16.773438 13.886719 16.117188 13.121094 15.648438 C 12.996094 15.574219 12.957031 15.417969 13.039062 15.292969 C 13.113281 15.171875 13.277344 15.136719 13.402344 15.214844 C 14.300781 15.753906 14.867188 16.542969 15 17.421875 C 15.132812 18.292969 14.820312 19.203125 14.132812 19.976562 C 14.070312 20.039062 13.996094 20.070312 13.929688 20.070312 Z M 13.929688 20.070312 "/>
<path style=" stroke:none;fill-rule:nonzero;fill:rgb(0%,0%,0%);fill-opacity:1;" d="M 27.78125 13.324219 C 27.609375 13.394531 27.347656 13.382812 27.347656 13.382812 C 27.683594 13.238281 27.765625 13.015625 27.765625 13.015625 C 27.378906 13.144531 27.238281 13.085938 27.238281 13.085938 C 27.125 12.925781 26.949219 12.804688 26.738281 12.761719 C 26.308594 12.683594 25.902344 12.949219 25.820312 13.359375 C 25.8125 13.402344 25.804688 13.445312 25.804688 13.488281 C 24.632812 13.160156 24.453125 12.445312 24.453125 12.445312 C 23.960938 12.964844 24.453125 13.453125 24.453125 13.453125 C 24.246094 13.425781 24.164062 13.296875 24.164062 13.296875 C 24 13.886719 24.59375 14.148438 24.59375 14.148438 C 24.355469 14.160156 24.265625 14.082031 24.265625 14.082031 C 24.339844 14.621094 24.847656 14.730469 24.847656 14.730469 C 24.273438 15.035156 23.6875 14.824219 23.6875 14.824219 L 23.679688 14.816406 C 23.976562 15.089844 24.347656 15.285156 24.773438 15.371094 C 25.960938 15.605469 27.105469 14.851562 27.339844 13.699219 C 27.347656 13.675781 27.347656 13.65625 27.355469 13.640625 C 27.363281 13.628906 27.363281 13.613281 27.355469 13.597656 C 27.644531 13.511719 27.78125 13.324219 27.78125 13.324219 Z M 27.78125 13.324219 "/>
<path style=" stroke:none;fill-rule:nonzero;fill:rgb(0%,0%,0%);fill-opacity:1;" d="M 28.226562 18.101562 C 28.164062 18.105469 28.105469 18.105469 28.054688 18.09375 L 21.957031 16.925781 C 21.808594 16.894531 21.683594 16.816406 21.601562 16.6875 C 21.519531 16.5625 21.488281 16.417969 21.511719 16.273438 L 22.714844 10.351562 C 22.773438 10.0625 23.070312 9.863281 23.382812 9.917969 L 29.480469 11.085938 C 29.628906 11.117188 29.753906 11.203125 29.835938 11.324219 C 29.917969 11.449219 29.949219 11.59375 29.925781 11.738281 L 28.722656 17.660156 C 28.664062 17.898438 28.460938 18.070312 28.226562 18.101562 Z M 23.265625 10.425781 L 23.210938 10.453125 L 22.011719 16.375 L 22.039062 16.425781 L 28.152344 17.59375 C 28.164062 17.59375 28.179688 17.585938 28.1875 17.558594 L 29.390625 11.636719 C 29.398438 11.621094 29.375 11.59375 29.363281 11.585938 Z M 23.265625 10.425781 "/>
<path style=" stroke:none;fill-rule:nonzero;fill:rgb(0%,0%,0%);fill-opacity:1;" d="M 4.953125 11.015625 C 4.65625 11.015625 4.402344 10.792969 4.386719 10.496094 L 4.039062 4.464844 C 4.023438 4.164062 4.261719 3.902344 4.566406 3.886719 L 10.773438 3.550781 C 11.101562 3.550781 11.355469 3.773438 11.367188 4.070312 L 11.71875 10.097656 C 11.734375 10.402344 11.496094 10.664062 11.191406 10.675781 Z M 10.8125 4.0625 L 4.605469 4.402344 C 4.582031 4.402344 4.566406 4.421875 4.566406 4.445312 L 4.914062 10.476562 C 4.914062 10.496094 4.9375 10.511719 4.953125 10.511719 L 4.953125 10.761719 L 4.953125 10.511719 L 11.160156 10.171875 C 11.183594 10.171875 11.199219 10.148438 11.199219 10.128906 L 10.847656 4.097656 C 10.847656 4.074219 10.835938 4.0625 10.8125 4.0625 Z M 10.8125 4.0625 "/>
<path style=" stroke:none;fill-rule:nonzero;fill:rgb(0%,0%,0%);fill-opacity:1;" d="M 10.023438 5.707031 L 9.988281 5.027344 C 9.988281 5.027344 9.71875 5.042969 9.371094 5.0625 C 9.023438 5.085938 8.382812 5.410156 8.441406 6.433594 C 8.441406 6.484375 8.449219 6.535156 8.449219 6.585938 L 7.847656 6.621094 L 7.894531 7.335938 L 8.496094 7.300781 C 8.554688 8.28125 8.613281 9.386719 8.613281 9.386719 L 9.46875 9.34375 C 9.46875 9.34375 9.402344 8.160156 9.347656 7.257812 L 9.90625 7.226562 L 9.863281 6.515625 L 9.304688 6.542969 C 9.296875 6.421875 9.304688 6.5 9.296875 6.449219 C 9.261719 5.914062 9.503906 5.734375 10.023438 5.707031 Z M 10.023438 5.707031 "/>
<path style=" stroke:none;fill-rule:nonzero;fill:rgb(0%,0%,0%);fill-opacity:1;" d="M 22.6875 29 C 22.613281 29 22.53125 28.984375 22.460938 28.957031 L 16.753906 26.5625 C 16.46875 26.4375 16.335938 26.121094 16.457031 25.839844 L 18.921875 20.292969 C 19.039062 20.027344 19.382812 19.890625 19.664062 20.003906 L 25.375 22.398438 C 25.515625 22.457031 25.617188 22.566406 25.679688 22.703125 C 25.730469 22.839844 25.730469 22.992188 25.671875 23.121094 L 23.207031 28.667969 C 23.117188 28.871094 22.914062 29 22.6875 29 Z M 19.460938 20.472656 L 19.410156 20.496094 L 16.945312 26.035156 C 16.9375 26.058594 16.945312 26.078125 16.96875 26.085938 L 22.691406 28.488281 C 22.707031 28.488281 22.722656 28.480469 22.730469 28.464844 L 25.195312 22.917969 C 25.203125 22.902344 25.195312 22.875 25.171875 22.867188 Z M 19.460938 20.472656 "/>
<path style=" stroke:none;fill-rule:nonzero;fill:rgb(0%,0%,0%);fill-opacity:1;" d="M 22.6875 23.691406 L 20.429688 22.738281 C 20.085938 22.59375 19.691406 22.746094 19.542969 23.078125 L 19.03125 24.222656 C 18.882812 24.554688 19.039062 24.9375 19.382812 25.082031 L 21.636719 26.035156 C 21.980469 26.179688 22.375 26.027344 22.523438 25.695312 L 23.035156 24.550781 C 23.183594 24.21875 23.027344 23.835938 22.6875 23.691406 Z M 20.382812 24.738281 L 20.851562 23.683594 L 21.644531 24.636719 Z M 20.382812 24.738281 "/>
<path style=" stroke:none;fill-rule:nonzero;fill:rgb(0%,0%,0%);fill-opacity:1;" d="M 20.589844 9.03125 C 20.515625 9.03125 20.4375 9.015625 20.367188 8.988281 L 14.660156 6.59375 C 14.375 6.472656 14.242188 6.152344 14.363281 5.871094 L 16.828125 0.324219 C 16.945312 0.0585938 17.289062 -0.078125 17.570312 0.0351562 L 23.28125 2.429688 C 23.421875 2.488281 23.523438 2.597656 23.585938 2.734375 C 23.636719 2.871094 23.636719 3.023438 23.578125 3.152344 L 21.113281 8.699219 C 21.023438 8.902344 20.820312 9.03125 20.589844 9.03125 Z M 17.367188 0.503906 L 17.316406 0.527344 L 14.851562 6.066406 C 14.84375 6.089844 14.851562 6.109375 14.875 6.117188 L 20.597656 8.519531 C 20.613281 8.519531 20.628906 8.511719 20.636719 8.496094 L 23.101562 2.949219 C 23.109375 2.9375 23.101562 2.90625 23.078125 2.898438 Z M 17.367188 0.503906 "/>
<path style=" stroke:none;fill-rule:nonzero;fill:rgb(0%,0%,0%);fill-opacity:1;" d="M 19.707031 3.320312 C 19.679688 3.304688 19.65625 3.296875 19.65625 3.304688 C 19.640625 3.324219 19.625 3.363281 19.617188 3.382812 C 19.617188 3.40625 19.617188 3.417969 19.640625 3.425781 C 19.929688 3.578125 20.003906 3.707031 19.871094 3.824219 L 18.238281 5.265625 C 18.1875 5.308594 18.140625 5.308594 18.140625 5.28125 L 18.050781 3.085938 C 18.042969 2.90625 18.179688 2.863281 18.273438 2.894531 C 18.296875 2.898438 18.328125 2.90625 18.347656 2.914062 C 18.371094 2.921875 18.386719 2.90625 18.394531 2.894531 C 18.410156 2.878906 18.421875 2.84375 18.429688 2.8125 C 18.429688 2.804688 18.414062 2.800781 18.386719 2.785156 C 18.289062 2.75 18.074219 2.675781 17.820312 2.574219 C 17.589844 2.480469 17.53125 2.4375 17.4375 2.402344 C 17.40625 2.386719 17.382812 2.378906 17.382812 2.386719 C 17.363281 2.410156 17.355469 2.453125 17.347656 2.46875 C 17.339844 2.488281 17.347656 2.503906 17.367188 2.511719 C 17.53125 2.597656 17.621094 2.65625 17.628906 2.914062 L 17.738281 5.640625 C 17.738281 5.714844 17.769531 5.765625 17.8125 5.785156 C 17.859375 5.800781 17.910156 5.785156 17.96875 5.734375 L 20.050781 3.902344 C 20.289062 3.695312 20.441406 3.78125 20.613281 3.832031 C 20.636719 3.835938 20.652344 3.832031 20.660156 3.808594 C 20.664062 3.792969 20.6875 3.757812 20.695312 3.730469 C 20.695312 3.722656 20.671875 3.714844 20.644531 3.699219 C 20.546875 3.664062 20.472656 3.648438 20.242188 3.554688 C 20.003906 3.460938 19.804688 3.363281 19.707031 3.320312 Z M 19.707031 3.320312 "/>
<path style=" stroke:none;fill-rule:nonzero;fill:rgb(0%,0%,0%);fill-opacity:1;" d="M 20.84375 3.789062 C 20.8125 3.773438 20.792969 3.765625 20.792969 3.773438 C 20.777344 3.792969 20.761719 3.832031 20.753906 3.851562 C 20.753906 3.875 20.753906 3.886719 20.777344 3.894531 C 21.066406 4.046875 21.140625 4.175781 21.007812 4.292969 L 19.382812 5.726562 C 19.328125 5.769531 19.285156 5.769531 19.285156 5.742188 L 19.195312 3.550781 C 19.1875 3.367188 19.320312 3.324219 19.417969 3.355469 C 19.441406 3.363281 19.46875 3.367188 19.492188 3.375 C 19.515625 3.382812 19.53125 3.367188 19.539062 3.355469 C 19.550781 3.339844 19.566406 3.304688 19.574219 3.273438 C 19.574219 3.269531 19.558594 3.261719 19.53125 3.246094 C 19.433594 3.210938 19.21875 3.136719 18.964844 3.035156 C 18.734375 2.941406 18.675781 2.898438 18.578125 2.863281 C 18.550781 2.847656 18.527344 2.84375 18.527344 2.847656 C 18.503906 2.871094 18.496094 2.914062 18.488281 2.929688 C 18.484375 2.949219 18.488281 2.964844 18.511719 2.972656 C 18.675781 3.058594 18.765625 3.117188 18.773438 3.375 L 18.882812 6.101562 C 18.882812 6.175781 18.914062 6.226562 18.957031 6.246094 C 19.003906 6.261719 19.054688 6.246094 19.113281 6.195312 L 21.191406 4.363281 C 21.429688 4.15625 21.585938 4.242188 21.757812 4.292969 C 21.78125 4.300781 21.792969 4.292969 21.800781 4.269531 C 21.808594 4.257812 21.832031 4.21875 21.839844 4.191406 C 21.839844 4.183594 21.816406 4.175781 21.789062 4.164062 C 21.691406 4.125 21.617188 4.113281 21.386719 4.019531 C 21.140625 3.925781 20.941406 3.824219 20.84375 3.789062 Z M 20.84375 3.789062 "/>
</g>
</svg>
