<svg width="30" height="30" viewBox="0 0 30 30" fill="none" xmlns="http://www.w3.org/2000/svg">
<path d="M22.8706 15.3884L22.1249 15.3082V15.3082L22.8706 15.3884ZM22.6872 17.0931L23.4329 17.1733V17.1733L22.6872 17.0931ZM7.3128 17.0931L6.5671 17.1733L7.3128 17.0931ZM7.12945 15.3884L7.87514 15.3082L7.12945 15.3884ZM11.7601 13.934L12.4151 14.2993L11.7601 13.934ZM13.5495 10.7254L12.8945 10.3601L13.5495 10.7254ZM16.4505 10.7254L15.7954 11.0907L16.4505 10.7254ZM18.2399 13.934L18.895 13.5686V13.5686L18.2399 13.934ZM19.0038 14.9592L18.7015 15.6456L18.7015 15.6456L19.0038 14.9592ZM20.4705 14.2451L19.9412 13.7138L20.4705 14.2451ZM19.4533 15.0219L19.3506 14.2789L19.3506 14.2789L19.4533 15.0219ZM9.5295 14.2451L9.0002 14.7765L9.5295 14.2451ZM10.5467 15.0219L10.6494 14.2789L10.6494 14.2789L10.5467 15.0219ZM10.9962 14.9592L11.2985 15.6456L11.2985 15.6456L10.9962 14.9592ZM8.71208 23.1532L9.21228 22.5943H9.21228L8.71208 23.1532ZM21.2879 23.1532L20.7877 22.5943L21.2879 23.1532ZM21.8645 12.9801L22.432 12.4898L21.8645 12.9801ZM15.9077 9.78265L15.5668 9.11457L15.9077 9.78265ZM14.0923 9.78265L14.4332 9.11457L14.0923 9.78265ZM22.1249 15.3082L21.9415 17.0129L23.4329 17.1733L23.6163 15.4686L22.1249 15.3082ZM16.0879 23.25H13.9121V24.75H16.0879V23.25ZM8.0585 17.0129L7.87514 15.3082L6.38375 15.4686L6.5671 17.1733L8.0585 17.0129ZM12.4151 14.2993L14.2046 11.0907L12.8945 10.3601L11.105 13.5686L12.4151 14.2993ZM15.7954 11.0907L17.5849 14.2993L18.895 13.5686L17.1055 10.3601L15.7954 11.0907ZM17.5849 14.2993C17.7467 14.5893 17.8956 14.8582 18.0399 15.0638C18.1885 15.2753 18.3911 15.5089 18.7015 15.6456L19.306 14.2728C19.3619 14.2973 19.3524 14.3226 19.2675 14.2018C19.1784 14.0749 19.0727 13.8873 18.895 13.5686L17.5849 14.2993ZM19.9412 13.7138C19.6825 13.9715 19.529 14.1231 19.4082 14.2208C19.2931 14.3139 19.2906 14.2872 19.3506 14.2789L19.556 15.7648C19.8918 15.7184 20.1507 15.5495 20.3517 15.3869C20.547 15.2289 20.7642 15.0112 20.9998 14.7765L19.9412 13.7138ZM18.7015 15.6456C18.9698 15.7637 19.2657 15.8049 19.556 15.7648L19.3506 14.2789C19.3353 14.281 19.3199 14.2789 19.306 14.2728L18.7015 15.6456ZM9.0002 14.7765C9.23578 15.0112 9.453 15.2289 9.64834 15.3869C9.84933 15.5495 10.1082 15.7184 10.444 15.7648L10.6494 14.2789C10.7094 14.2872 10.7069 14.3139 10.5918 14.2208C10.471 14.1231 10.3175 13.9715 10.0588 13.7138L9.0002 14.7765ZM11.105 13.5686C10.9273 13.8873 10.8216 14.0749 10.7325 14.2018C10.6476 14.3226 10.6381 14.2973 10.694 14.2728L11.2985 15.6456C11.6089 15.5089 11.8115 15.2753 11.9601 15.0638C12.1044 14.8583 12.2533 14.5893 12.4151 14.2993L11.105 13.5686ZM10.444 15.7648C10.7343 15.8049 11.0302 15.7637 11.2985 15.6456L10.694 14.2728C10.6801 14.2789 10.6647 14.281 10.6494 14.2789L10.444 15.7648ZM13.9121 23.25C12.4742 23.25 11.4672 23.2486 10.6986 23.1502C9.9509 23.0545 9.52851 22.8774 9.21228 22.5943L8.21187 23.712C8.84173 24.2758 9.60137 24.522 10.5082 24.6381C11.3941 24.7514 12.514 24.75 13.9121 24.75V23.25ZM6.5671 17.1733C6.71526 18.5507 6.83282 19.8999 7.03322 20.994C7.1343 21.5459 7.26178 22.0659 7.43833 22.5172C7.61339 22.9648 7.8549 23.3925 8.21187 23.712L9.21228 22.5943C9.0962 22.4904 8.96405 22.3 8.83525 21.9708C8.70795 21.6454 8.60138 21.2299 8.50868 20.7238C8.32149 19.7018 8.21246 18.4443 8.0585 17.0129L6.5671 17.1733ZM21.9415 17.0129C21.7875 18.4443 21.6785 19.7018 21.4913 20.7238C21.3986 21.2299 21.292 21.6454 21.1647 21.9708C21.036 22.3 20.9038 22.4904 20.7877 22.5943L21.7881 23.712C22.1451 23.3925 22.3866 22.9648 22.5617 22.5172C22.7382 22.0659 22.8657 21.5459 22.9668 20.994C23.1672 19.8999 23.2847 18.5507 23.4329 17.1733L21.9415 17.0129ZM16.0879 24.75C17.486 24.75 18.6059 24.7514 19.4918 24.6381C20.3986 24.522 21.1583 24.2758 21.7881 23.712L20.7877 22.5943C20.4715 22.8774 20.0491 23.0545 19.3014 23.1502C18.5328 23.2486 17.5258 23.25 16.0879 23.25V24.75ZM13.75 8C13.75 7.30964 14.3096 6.75 15 6.75V5.25C13.4812 5.25 12.25 6.48122 12.25 8H13.75ZM15 6.75C15.6904 6.75 16.25 7.30964 16.25 8H17.75C17.75 6.48122 16.5188 5.25 15 5.25V6.75ZM23.75 12C23.75 12.4142 23.4142 12.75 23 12.75V14.25C24.2426 14.25 25.25 13.2426 25.25 12H23.75ZM22.25 12C22.25 11.5858 22.5858 11.25 23 11.25V9.75C21.7574 9.75 20.75 10.7574 20.75 12H22.25ZM23 11.25C23.4142 11.25 23.75 11.5858 23.75 12H25.25C25.25 10.7574 24.2426 9.75 23 9.75V11.25ZM7 12.75C6.58579 12.75 6.25 12.4142 6.25 12H4.75C4.75 13.2426 5.75736 14.25 7 14.25V12.75ZM6.25 12C6.25 11.5858 6.58579 11.25 7 11.25V9.75C5.75736 9.75 4.75 10.7574 4.75 12H6.25ZM7 11.25C7.41421 11.25 7.75 11.5858 7.75 12H9.25C9.25 10.7574 8.24264 9.75 7 9.75V11.25ZM23 12.75C22.997 12.75 22.994 12.75 22.991 12.7499L22.9736 14.2498C22.9824 14.2499 22.9912 14.25 23 14.25V12.75ZM23.6163 15.4686C23.6646 15.0187 23.707 14.6258 23.7302 14.298C23.753 13.9769 23.7616 13.6689 23.7256 13.4003L22.2389 13.5995C22.2536 13.7093 22.2553 13.8908 22.234 14.192C22.2131 14.4865 22.1743 14.8486 22.1249 15.3082L23.6163 15.4686ZM22.991 12.7499C22.7681 12.7474 22.5689 12.6483 22.432 12.4898L21.2969 13.4704C21.703 13.9405 22.3032 14.2421 22.9736 14.2498L22.991 12.7499ZM22.432 12.4898C22.3181 12.358 22.25 12.1879 22.25 12H20.75C20.75 12.5614 20.9566 13.0765 21.2969 13.4704L22.432 12.4898ZM20.9998 14.7765C21.6773 14.1017 22.0262 13.7616 22.2584 13.6183L21.4705 12.3419C21.0506 12.6011 20.547 13.1103 19.9412 13.7138L20.9998 14.7765ZM7.75 12C7.75 12.1879 7.68188 12.358 7.56799 12.4898L8.70307 13.4704C9.0434 13.0765 9.25 12.5614 9.25 12H7.75ZM10.0588 13.7138C9.45296 13.1103 8.94936 12.6011 8.52946 12.3419L7.7416 13.6183C7.97377 13.7616 8.32273 14.1017 9.0002 14.7765L10.0588 13.7138ZM7.56799 12.4898C7.4311 12.6483 7.23192 12.7474 7.00904 12.7499L7.02639 14.2498C7.69676 14.2421 8.29701 13.9405 8.70307 13.4704L7.56799 12.4898ZM7.00904 12.7499C7.00602 12.75 7.00301 12.75 7 12.75V14.25C7.00881 14.25 7.01761 14.2499 7.02639 14.2498L7.00904 12.7499ZM7.87514 15.3082C7.82571 14.8486 7.78687 14.4865 7.76601 14.192C7.74467 13.8908 7.74636 13.7093 7.76107 13.5995L6.27435 13.4003C6.23837 13.6689 6.24701 13.9769 6.26976 14.298C6.29298 14.6258 6.33535 15.0187 6.38375 15.4686L7.87514 15.3082ZM16.25 8C16.25 8.48504 15.9739 8.90689 15.5668 9.11457L16.2485 10.4507C17.1381 9.99685 17.75 9.07053 17.75 8H16.25ZM15.5668 9.11457C15.3975 9.20095 15.2056 9.25 15 9.25V10.75C15.448 10.75 15.873 10.6423 16.2485 10.4507L15.5668 9.11457ZM17.1055 10.3601C16.8992 9.9902 16.7138 9.65746 16.5437 9.3852L15.2716 10.1801C15.4176 10.4137 15.5828 10.7095 15.7954 11.0907L17.1055 10.3601ZM15 9.25C14.7944 9.25 14.6025 9.20095 14.4332 9.11457L13.7515 10.4507C14.127 10.6423 14.552 10.75 15 10.75V9.25ZM14.4332 9.11457C14.0261 8.90689 13.75 8.48504 13.75 8H12.25C12.25 9.07053 12.8619 9.99685 13.7515 10.4507L14.4332 9.11457ZM14.2046 11.0907C14.4172 10.7095 14.5824 10.4137 14.7284 10.1801L13.4563 9.3852C13.2862 9.65746 13.1008 9.9902 12.8945 10.3601L14.2046 11.0907Z" fill="#070127"/>
<path d="M8 20.5H22" stroke="#070127" stroke-width="1.5" stroke-linecap="round"/>
</svg>
