<svg width="299" height="251" viewBox="0 0 299 251" fill="none" xmlns="http://www.w3.org/2000/svg">
<path fill-rule="evenodd" clip-rule="evenodd" d="M61.7009 86.5757L60.3381 86.2991C56.1902 85.4103 53.1089 83.8697 51.1733 81.7365C48.8821 82.1908 46.4921 82.4278 44.0627 82.4278C38.2359 82.4278 32.7252 81.0847 28.5971 78.6552C24.3307 76.1665 22 72.8087 22 69.2139C22 65.6191 24.3307 62.2613 28.5971 59.7726C32.7252 57.3431 38.2359 56 44.0627 56C49.8894 56 55.4001 57.3431 59.5282 59.7726C63.7946 62.2613 66.1253 65.6191 66.1253 69.2139C66.1253 73.105 63.3403 76.7393 58.4814 79.228C59.4887 82.5266 61.0096 85.3313 61.0294 85.351L61.7009 86.5757ZM51.6671 80.3144L51.9041 80.6106C53.4447 82.4475 55.9137 83.8302 59.2715 84.719C58.6789 83.4549 57.7506 81.3612 57.079 79.0898L56.9408 78.5565L57.4346 78.3194C62.1355 76.048 64.8415 72.71 64.8415 69.2139C64.8415 62.6366 55.5187 57.2839 44.0627 57.2839C32.6067 57.2839 23.2839 62.6366 23.2839 69.2139C23.2839 75.7912 32.6067 81.1439 44.0627 81.1439C46.5514 81.1439 48.9808 80.8872 51.2918 80.3934L51.6671 80.3144Z" fill="#B3BAC5"/>
<path d="M56.1319 66.9226H31.7188V66.0732H56.1319V66.9226Z" fill="#B3BAC5"/>
<path d="M49.7126 71.6438H31.7188V70.7944H49.7126V71.6438Z" fill="#B3BAC5"/>
<path fill-rule="evenodd" clip-rule="evenodd" d="M216.412 96.5757L217.462 96.3624C220.661 95.6771 223.037 94.4892 224.529 92.8444C226.296 93.1947 228.139 93.3774 230.012 93.3774C234.505 93.3774 238.754 92.3418 241.937 90.4685C245.226 88.5496 247.023 85.9605 247.023 83.1887C247.023 80.4169 245.226 77.8278 241.937 75.9089C238.754 74.0356 234.505 73 230.012 73C225.519 73 221.27 74.0356 218.087 75.9089C214.797 77.8278 213 80.4169 213 83.1887C213 86.189 215.148 88.9912 218.894 90.9102C218.117 93.4536 216.945 95.6162 216.929 95.6314L216.412 96.5757ZM224.148 91.7478L223.966 91.9763C222.778 93.3926 220.874 94.4587 218.285 95.1441C218.742 94.1694 219.458 92.555 219.975 90.8036L220.082 90.3924L219.701 90.2096C216.077 88.4582 213.99 85.8844 213.99 83.1887C213.99 78.1172 221.179 73.9899 230.012 73.9899C238.845 73.9899 246.034 78.1172 246.034 83.1887C246.034 88.2602 238.845 92.3875 230.012 92.3875C228.093 92.3875 226.22 92.1895 224.438 91.8087L224.148 91.7478Z" fill="#B3BAC5"/>
<path d="M220.707 81.422H239.531V80.7671H220.707V81.422Z" fill="#B3BAC5"/>
<path d="M225.657 85.0621H239.531V84.4072H225.657V85.0621Z" fill="#B3BAC5"/>
<path opacity="0.6" d="M35.0129 249.291C26.0386 234.056 21.4432 216.257 22.5587 198.575C23.591 182.557 29.5684 167.239 39.5584 154.685C48.899 142.947 61.5197 133.723 75.822 129.028C90.0245 124.382 105.442 124.665 119.612 129.361C135.546 134.622 149.681 145.378 158.023 160.063C158.24 160.446 158.822 160.113 158.606 159.73C143.638 133.373 110.487 119.854 81.2 126.813C50.8637 134.039 27.1541 161.129 22.6253 191.765C19.6616 211.695 24.257 232.324 34.4302 249.624C34.6466 249.99 35.2294 249.657 35.0129 249.291Z" fill="#FF5900"/>
<g opacity="0.3">
<path opacity="0.2" d="M222.091 233.074C235.278 205.235 235.778 171.102 213.683 148.741C202.911 137.836 187.892 131.242 172.325 130.593C149.997 129.66 129.8 140.416 110.087 150.107C89.1078 160.43 71.2757 166.107 48.1322 165.608C38.4252 165.408 27.9357 166.224 20.1269 172.318C0.463222 187.652 10.9028 214.242 20.6763 231.125C22.8505 234.886 25.213 238.526 27.755 242.034C31.5511 247.274 37.7877 250.04 44.2576 250.04H199.741C207.132 250.04 214.083 246.378 217.976 240.096C220.119 236.639 221.637 234.027 222.091 233.074Z" fill="#FF5900"/>
</g>
<path d="M94.3518 189.248C85.525 208.64 81.3868 228.957 81.5849 250L187.616 249.956L183.279 193.496L94.3518 189.248Z" fill="#3335CF"/>
<path d="M139.477 218.347L138.156 218.259L139.917 193.606L141.238 193.694L139.477 218.347Z" fill="#1B1B43"/>
<path d="M113.963 16.2782C115.086 13.3287 115.284 10.0049 113.963 7.18736C113.303 5.80062 112.334 4.54594 111.146 3.57742C109.957 2.58689 108.57 1.8605 107.095 1.42027C104.168 0.49577 100.866 0.693871 98.0926 2.10263C95.3191 3.48937 93.25 6.06475 91.9513 8.92629L91.6211 8.79422C92.1934 7.29742 92.9858 5.84464 93.9984 4.56795C95.0109 3.29127 96.2876 2.21269 97.7404 1.42027C100.668 -0.142573 104.212 -0.406712 107.36 0.58382C110.485 1.55234 113.325 3.79754 114.623 6.87919C115.284 8.39801 115.57 10.0709 115.46 11.6998C115.372 13.3507 114.91 14.9355 114.293 16.4103L113.963 16.2782Z" fill="#1B1B43"/>
<path d="M168.267 29.4413C168.531 36.7052 164.525 43.5069 159.11 48.2394C153.365 53.3021 145.881 56.3618 138.243 56.802C130.473 57.2642 124.684 64.3961 117.023 65.3426C108.747 66.3771 104.08 57.8145 102.452 50.9689C98.4675 34.1078 107.426 16.3223 123.121 9.4766C132.3 5.47046 142.623 5.62454 151.758 9.69672C159 12.8884 166.484 18.4354 167.981 26.7779C168.142 27.673 168.238 28.5608 168.267 29.4413Z" fill="#070127"/>
<path d="M115.084 16.0803C115.084 23.7184 108.965 29.9257 101.393 29.9257C93.821 29.9257 87.6797 23.7184 87.6797 16.0803C87.6797 8.44218 93.821 2.23486 101.393 2.23486C108.965 2.23486 115.084 8.44218 115.084 16.0803Z" fill="#070127"/>
<path d="M148.918 51.1011V89.9959H121.051V51.1011H148.918Z" fill="#FFBC96"/>
<path d="M148.918 55.8774V81.9614C135.579 78.5716 129.086 70.0751 125.762 59.2232L148.918 55.8774Z" fill="#1B1B43"/>
<path d="M162.982 27.5924C162.982 27.5924 162.982 30.8501 162.696 35.6487C162.498 38.5542 162.211 42.0101 161.771 45.642C161.551 47.359 161.287 49.0979 160.979 50.8588C160.406 54.2046 159.68 57.5504 158.734 60.5661C156.929 66.2671 154.375 70.8456 150.765 72.3644C150.208 72.5992 149.591 72.7973 148.916 72.9587C143.964 74.1033 136.304 72.8927 129.128 67.2797C127.499 66.003 125.892 64.5062 124.351 62.7452C122.634 60.7862 123.229 58.9152 121.71 56.2958C121.578 56.0756 121.842 54.975 121.71 54.7549L119.641 51.101L120.543 44.2773L120.983 40.9755L123.118 25.083L143.149 19.3159L162.982 27.5924Z" fill="#FFBC96"/>
<path d="M117.153 45.5094C124.967 42.7139 127.52 41.9875 131.482 31.642C151.139 38.0914 163.091 37.299 165.072 33.9973L163.95 23.3656L145.064 12.7559L123.888 19.8877L114.445 32.2143L117.153 45.5094Z" fill="#070127"/>
<path d="M125.54 44.9817C128.006 48.9438 127.543 53.6543 124.528 55.5473C121.512 57.4184 117.066 55.7235 114.6 51.7613C112.157 47.8212 112.597 43.0887 115.613 41.2177C118.651 39.3247 123.075 41.0196 125.54 44.9817Z" fill="#FFBC96"/>
<path d="M114.888 14.4731C113.48 15.5077 112.247 16.5202 111.102 17.6208C109.972 18.7067 108.945 19.866 108.021 21.0987C107.096 22.3314 106.26 23.6301 105.533 25.0168C104.807 26.4035 104.235 27.8783 103.662 29.5512C103.112 27.8783 103.156 26.0293 103.596 24.3124C104.015 22.5735 104.829 20.9226 105.908 19.4918C106.986 18.0831 108.351 16.8504 109.87 15.9699C111.41 15.0675 113.127 14.4731 114.888 14.4731Z" fill="#FFA121"/>
<path d="M116.404 43.9907C117.197 44.0347 117.967 44.3209 118.65 44.7171C119.332 45.1133 119.926 45.6416 120.433 46.2579C120.939 46.8523 121.357 47.5566 121.599 48.3271C121.863 49.0975 121.907 49.9559 121.621 50.7263L121.225 50.6383C121.225 49.9339 121.027 49.2736 120.741 48.6572C120.455 48.0409 120.058 47.4686 119.618 46.9183C119.2 46.39 118.694 45.9058 118.143 45.4655C117.571 45.0473 116.999 44.6511 116.316 44.3869L116.404 43.9907Z" fill="#1B1B43"/>
<path d="M146.47 47.0295C146.47 48.2841 145.7 49.3187 144.731 49.3187C143.785 49.3187 142.992 48.2841 142.992 47.0295C142.992 45.7528 143.785 44.7402 144.731 44.7402C145.7 44.7402 146.47 45.7528 146.47 47.0295Z" fill="#1B1B43"/>
<path d="M158.599 48.1295C158.599 49.2301 157.916 50.1326 157.08 50.1326C156.221 50.1326 155.539 49.2301 155.539 48.1295C155.539 47.029 156.221 46.1265 157.08 46.1265C157.916 46.1265 158.599 47.029 158.599 48.1295Z" fill="#1B1B43"/>
<path d="M152.368 50.7277C152.39 50.9918 152.5 51.2119 152.698 51.388C152.874 51.5861 153.095 51.7182 153.359 51.8503C153.865 52.0924 154.591 52.3125 155.076 52.9949C155.318 53.325 155.406 53.7873 155.362 54.1835C155.296 54.5797 155.142 54.9319 154.878 55.2181C154.371 55.8124 153.667 56.0325 153.007 56.0765L152.941 55.7243C153.491 55.5042 153.997 55.174 154.261 54.7558C154.547 54.3376 154.591 53.8093 154.349 53.4791C154.107 53.1049 153.557 52.8628 152.985 52.4886C152.72 52.3125 152.412 52.0704 152.214 51.7622C152.038 51.432 151.906 51.0358 152.038 50.6616L152.368 50.7277Z" fill="#D28572"/>
<path d="M144.733 59.4218C146.142 59.1356 147.55 59.2457 148.937 59.5098C149.642 59.6419 150.324 59.862 150.984 60.1482C151.645 60.4343 152.283 60.8085 152.789 61.3588L152.503 61.7991C151.248 61.3588 149.972 61.0947 148.673 60.8085C147.374 60.5224 146.054 60.2802 144.711 59.9281L144.733 59.4218Z" fill="#1B1B43"/>
<path d="M147.551 41.5701C147.617 42.3185 145.108 42.1424 142.73 42.5386C140.177 42.9568 138.328 43.221 138.328 42.4726C138.328 41.7462 140.287 40.6896 142.841 40.2274C145.878 39.6771 147.419 40.1173 147.551 41.5701Z" fill="#1B1B43"/>
<path d="M154.66 42.1203C154.484 42.8467 156.421 42.9787 158.159 43.6611C160.053 44.3655 161.395 44.8718 161.527 44.1234C161.637 43.397 160.317 42.1203 158.446 41.3499C156.222 40.4474 154.99 40.6895 154.66 42.1203Z" fill="#1B1B43"/>
<path opacity="0.2" d="M140.572 52.7305C140.572 55.7902 138.085 58.2775 135.025 58.2775C131.965 58.2775 129.5 55.7902 129.5 52.7305C129.5 49.6709 131.965 47.2056 135.025 47.2056C138.085 47.2056 140.572 49.6709 140.572 52.7305Z" fill="#FE5B52"/>
<path opacity="0.2" d="M160.977 50.8589C160.405 54.2047 159.678 57.5505 158.732 60.5661C157.455 59.5536 156.641 58.0127 156.641 56.2518C156.641 53.6104 158.512 51.4092 160.977 50.8589Z" fill="#FE5B52"/>
<path d="M33.1569 131.862C21.0504 127.174 1.01966 110.225 0.139185 107.583C-1.07146 103.929 5.86225 106.483 11.3652 110.445L33.1569 131.862Z" fill="#D28572"/>


<path d="M213.475 146.082L205.507 160.5L189.856 188.785C188.249 191.69 185.168 193.517 181.822 193.517H98.6393C93.4666 193.517 89.3063 189.225 89.4604 184.052L90.561 149.318L63.3984 132.281L72.8635 108.618C77.8822 96.0491 88.8001 86.8042 102.007 83.8766L109.931 83.1502L138.371 80.5088L158.886 83.1502L173.039 84.9772C186.863 87.4425 198.155 97.3918 202.381 110.775L207.796 128.01L213.475 146.082Z" fill="#FF5900"/>
<path d="M86.272 177.361C86.272 177.361 83.8727 182.732 79.5363 187.266C74.0334 193.034 65.4268 197.48 54.7291 187.773C54.2008 187.288 53.6872 186.767 53.1882 186.21C44.2734 176.062 41.5 153.544 33.1575 131.863C23.3622 128.121 4.1019 111.92 9.36273 108.002C9.56083 107.87 9.80295 107.87 10.0011 107.98C12.2243 109.102 25.4754 115.706 34.3241 115.442C44.0093 115.134 53.4083 113.373 61.0464 128.341C68.6625 143.309 86.272 177.361 86.272 177.361Z" fill="#FFBC96"/>
<path d="M63.3984 132.28L68.0869 170.911L82.1745 184.25C91.5515 171.791 90.539 159.025 90.561 149.295L63.3984 132.28Z" fill="#FFBC96"/>
<path d="M213.478 146.082L205.51 160.5L188.076 164.22L186.359 141.548L207.799 128.01L213.478 146.082Z" fill="#FFBC96"/>
<path d="M74.1415 154.447L62.6953 132.105L63.4878 131.708L74.9339 154.05L74.1415 154.447Z" fill="#D28572"/>
<path d="M91.0055 149.318L90.125 149.296L91.4017 117.137L92.2821 117.181L91.0055 149.318Z" fill="#1B1B43"/>
<path d="M187.637 164.242L183.785 116.895L184.666 116.829L188.518 164.176L187.637 164.242Z" fill="#1B1B43"/>
<path d="M159.064 85.0652C159.064 94.0461 148.014 101.354 134.411 101.354C120.808 101.354 109.758 94.0461 109.758 85.0652C109.758 84.4269 109.802 83.7665 109.934 83.1502L138.373 80.5088L158.888 83.1502C159.006 83.7812 159.064 84.4196 159.064 85.0652Z" fill="#FFBC96"/>
<path d="M134.808 111.964C127.082 111.964 120.105 109.411 114.602 106.439L115.042 105.647C125.365 111.26 141.038 115.354 157.04 103.049L157.569 103.754C149.71 109.785 141.94 111.964 134.808 111.964Z" fill="#CC811A"/>
<path opacity="0.2" d="M79.5356 187.266C74.0327 193.034 65.4261 197.48 54.7283 187.773C54.2 187.288 53.6864 186.767 53.1875 186.21C55.983 182.094 60.6935 179.408 66.0204 179.408C71.8095 179.408 76.8722 182.578 79.5356 187.266Z" fill="#FE5B52"/>
<path d="M189.221 194.156H151.141V185.351H189.221V194.156Z" fill="#1B1B43"/>
<path d="M266.35 194.155H176.828L208.701 120.218H298.223L266.35 194.155Z" fill="#E5E8EE"/>
<path d="M202.361 191.449C201.392 190.854 200.116 190.81 199.213 191.493C198.179 192.285 198.135 193.584 199.191 195.389C200.732 198.008 217.263 211.677 235.357 197.524C253.428 183.37 230.36 191.823 230.36 191.823C230.36 191.823 234.63 180.751 231.769 179.694C228.929 178.616 222.502 191.449 222.502 191.449C222.502 191.449 223.933 179.694 220.477 180.399C217.021 181.103 215.018 191.228 215.018 191.228C215.018 191.228 214.886 183.612 212.508 183.48C210.131 183.37 207.754 194.794 207.754 194.794L202.361 191.449Z" fill="#FFBC96"/>
</svg>