<svg width="37" height="37" viewBox="0 0 37 37" fill="none" xmlns="http://www.w3.org/2000/svg">
<circle cx="18.2237" cy="18.17" r="17.9971" fill="white"/>
<path d="M11 18.6667C11 15.0526 11 13.2455 12.1228 12.1228C13.2455 11 15.0526 11 18.6667 11C22.2808 11 24.0878 11 25.2106 12.1228C26.3333 13.2455 26.3333 15.0526 26.3333 18.6667C26.3333 22.2808 26.3333 24.0878 25.2106 25.2106C24.0878 26.3333 22.2808 26.3333 18.6667 26.3333C15.0526 26.3333 13.2455 26.3333 12.1228 25.2106C11 24.0878 11 22.2808 11 18.6667Z" stroke="#D37E6C" stroke-width="1.5"/>
<circle cx="21.7335" cy="15.5997" r="1.53333" stroke="#D37E6C" stroke-width="1.5"/>
<path d="M11 19.0498L12.3429 17.8748C13.0415 17.2635 14.0945 17.2985 14.7509 17.9549L18.0397 21.2437C18.5666 21.7706 19.396 21.8425 20.0056 21.414L20.2342 21.2534C21.1114 20.6368 22.2983 20.7083 23.0953 21.4255L25.5667 23.6498" stroke="#D37E6C" stroke-width="1.5" stroke-linecap="round"/>
</svg>
